<?xml version="1.0" standalone="no"?>
<!DOCTYPE svg PUBLIC "-//W3C//DTD SVG 1.1//EN" "http://www.w3.org/Graphics/SVG/1.1/DTD/svg11.dtd" >
<svg xmlns="http://www.w3.org/2000/svg" xmlns:xlink="http://www.w3.org/1999/xlink" version="1.1">
<metadata>
Created by FontForge 20170731 at Thu Jul 30 23:56:04 2020
 By Aleksey,,,
Copyright c Cafe24 Corp. All Rights Reserved.
</metadata>
<defs>
<font id="Cafe24Ssurround" horiz-adv-x="1107" >
  <font-face 
    font-family="Cafe24 Ssurround"
    font-weight="700"
    font-stretch="normal"
    units-per-em="1000"
    panose-1="0 0 0 0 0 0 0 0 0 0"
    ascent="800"
    descent="-200"
    x-height="416"
    cap-height="676"
    bbox="-146 -306.667 1049 743"
    underline-thickness="50"
    underline-position="-430"
    unicode-range="U+000D-FFE6"
  />
<missing-glyph horiz-adv-x="500" 
 />
    <glyph glyph-name=".notdef" horiz-adv-x="500" 
 />
    <glyph glyph-name=".null" horiz-adv-x="0" 
 />
    <glyph glyph-name="nonmarkingreturn" unicode="&#xd;" horiz-adv-x="500" 
 />
    <glyph glyph-name="NULL" horiz-adv-x="0" 
 />
    <glyph glyph-name="NULL" horiz-adv-x="0" 
 />
    <glyph glyph-name="space" unicode=" " horiz-adv-x="300" 
 />
    <glyph glyph-name="exclam" unicode="!" horiz-adv-x="294" 
d="M217 173q0 -15 -7.5 -26.5t-18.5 -19t-24 -11t-23 -3.5q-31 0 -52.5 14.5t-22.5 45.5l-15 437q-1 32 20.5 55.5t69.5 23.5q45 0 67.5 -23.5t22.5 -55.5zM46 -18q0 -42 28.5 -63.5t70.5 -21.5t71 21.5t29 63.5t-29 64t-71 22t-70.5 -22t-28.5 -64z" />
    <glyph glyph-name="quotedbl" unicode="&#x22;" horiz-adv-x="440" 
d="M119 743q25 0 40.5 -7.5t23 -18.5t9.5 -23t1 -21l-11 -132q-2 -21 -14.5 -34.5t-47.5 -13.5q-33 0 -47 14t-16 34l-13 132q-1 9 1 21t10 23t23 18.5t41 7.5zM321 743q25 0 40 -7.5t23 -18.5t10 -23t1 -21l-11 -132q-2 -21 -15 -34.5t-47 -13.5q-33 0 -47 14t-16 34
l-11 132q-1 9 0.5 21t9 23t22.5 18.5t41 7.5z" />
    <glyph glyph-name="numbersign" unicode="#" horiz-adv-x="847" 
d="M548 596q8 38 36 53t61 10q34 -2 54 -25.5t13 -61.5l-19 -88h55q43 0 57.5 -18.5t14.5 -44.5q0 -11 -2.5 -21.5t-10.5 -19t-22 -13.5t-37 -5h-82l-25 -115h61q41 0 56 -18.5t15 -44.5q0 -11 -2.5 -21.5t-10 -18.5t-21.5 -12.5t-37 -4.5h-87l-25 -118q-10 -37 -37.5 -51.5
t-60.5 -9.5q-32 5 -53 29t-12 62l19 88h-117l-26 -118q-9 -37 -36.5 -51.5t-60.5 -9.5t-53.5 29t-12.5 62l19 88h-69q-44 0 -58.5 17t-14.5 42q0 11 2.5 22t10.5 19.5t22.5 14t37.5 5.5h95l25 115h-73q-42 0 -57.5 18.5t-15.5 42.5q0 11 2.5 22t10.5 19.5t22.5 14t37.5 5.5
h99l25 112q9 38 37 53t61 10q34 -2 54 -25.5t13 -61.5l-20 -88h117zM355 247h117l25 115h-117z" />
    <glyph glyph-name="dollar" unicode="$" horiz-adv-x="721" 
d="M300 659q0 32 20 45.5t49 13.5t49 -13.5t20 -45.5v-32q43 -4 85.5 -14.5t69.5 -30.5q47 -35 14 -82q-14 -19 -34.5 -23t-55.5 10q-13 5 -34 12t-45 12v-158l18 -5q37 -11 72.5 -26t63.5 -37.5t45.5 -54t17.5 -76.5q0 -44 -16 -77.5t-45 -57t-68.5 -37.5t-87.5 -20v-29
q0 -38 -20 -52t-49 -14t-49 14t-20 52v26q-70 6 -118.5 24t-76.5 39q-25 20 -26.5 47t12.5 45q9 13 23.5 17.5t30 3t30 -7t24.5 -11.5q23 -14 46 -25.5t55 -16.5v192q-41 13 -81 27.5t-71.5 34.5t-51.5 48t-20 67q0 43 19 74.5t50.5 53t71.5 34t83 18.5v36zM490 147
q0 23 -13 39.5t-39 29.5v-132q23 8 37.5 24t14.5 39zM241 451q0 -21 16.5 -34t42.5 -23v112q-26 -8 -42.5 -21.5t-16.5 -33.5z" />
    <glyph glyph-name="percent" unicode="%" horiz-adv-x="1084" 
d="M234 274q-42 0 -77.5 7t-60.5 23.5t-39 43t-14 64.5v126q0 37 14 63.5t39 43t60 24t78 7.5t78.5 -7t60.5 -23.5t38.5 -43t13.5 -64.5v-126q0 -38 -13.5 -64.5t-38.5 -43t-60.5 -23.5t-78.5 -7zM272 528q0 37 -38 37t-38 -37v-106q0 -20 10 -28t28 -8q20 0 29 8t9 28v106z
M698 673q9 13 21 19t25.5 7.5t27 -1.5t25.5 -9q14 -6 24 -16t14 -23t2.5 -26.5t-9.5 -25.5l-458 -673q-17 -26 -46 -31.5t-58 10.5q-29 14 -35 44t13 57zM829 -84q-42 0 -77.5 7t-60.5 23.5t-39 43t-14 64.5v126q0 37 14 63.5t39 43t60 24t78 7.5t78.5 -7t60.5 -23.5
t38.5 -43t13.5 -64.5v-126q0 -38 -13.5 -64.5t-38.5 -43t-60.5 -23.5t-78.5 -7zM867 170q0 37 -38 37t-38 -37v-106q0 -20 10 -28t28 -8q20 0 29 8t9 28v106z" />
    <glyph glyph-name="ampersand" unicode="&#x26;" horiz-adv-x="866" 
d="M349 -86q-77 0 -137 17.5t-102 47t-64 68.5t-22 82q0 32 12 60t32 52t47.5 43.5t57.5 33.5q-33 29 -56.5 63.5t-23.5 82.5q0 42 21.5 75.5t58 56t85 34.5t102.5 12q90 0 148 -24t82 -51q23 -26 18 -49.5t-26 -38.5q-29 -20 -58.5 -14t-55.5 24q-18 13 -40 24.5t-63 11.5
q-42 0 -67 -14.5t-25 -43.5q0 -17 12 -34.5t30 -35t39.5 -34.5t39.5 -32l191 -156q11 52 11 100q3 23 21 37.5t64 14.5q39 0 60 -19t21 -49q0 -15 -2 -35t-7.5 -43t-16 -48t-26.5 -50q21 -17 38 -29t37 -28q15 -12 19.5 -26t2.5 -28t-9 -26t-14 -19q-24 -21 -54 -19t-54 20
l-76 57q-45 -34 -107 -52.5t-144 -18.5zM357 33q38 0 74 11t62 28l-207 158q-15 -8 -30 -17.5t-27 -21.5t-19.5 -27.5t-7.5 -34.5q0 -18 9.5 -35.5t28.5 -31t48.5 -21.5t68.5 -8z" />
    <glyph glyph-name="quotesingle" unicode="'" horiz-adv-x="241" 
d="M121 743q25 0 40.5 -6.5t24 -16t11 -20.5t1.5 -20l-14 -139q-2 -21 -14.5 -34.5t-47.5 -13.5q-33 0 -47 14t-16 34l-16 139q-1 9 1.5 20t11 20.5t24 16t41.5 6.5z" />
    <glyph glyph-name="parenleft" unicode="(" horiz-adv-x="383" 
d="M217 161q0 -35 5 -59t16 -41.5t28.5 -32t43.5 -30.5q16 -10 23.5 -21.5t8.5 -24t-3.5 -25t-12.5 -23.5q-10 -14 -26 -19t-34 -3.5t-36 7t-31 13.5q-44 24 -71.5 51t-43.5 58.5t-21.5 68.5t-5.5 81v274q0 44 5.5 82.5t23.5 72t51.5 62.5t89.5 54q29 13 57.5 9.5
t45.5 -26.5q16 -21 13.5 -48t-27.5 -39q-27 -14 -46 -28t-31 -33t-17 -44.5t-5 -61.5v-274z" />
    <glyph glyph-name="parenright" unicode=")" horiz-adv-x="382" 
d="M168 435q0 36 -5 61.5t-17 44.5t-31 33t-46 28q-25 12 -27.5 39t13.5 48q17 23 45.5 26.5t57.5 -9.5q55 -25 88.5 -54t51.5 -62.5t24 -72t6 -82.5v-274q0 -44 -5.5 -81t-21.5 -68.5t-43.5 -58.5t-71.5 -51q-14 -8 -31.5 -13.5t-35.5 -7t-34 3.5t-26 19q-17 22 -16.5 48
t32.5 46q26 16 43.5 30.5t28.5 32t16 41.5t5 59v274z" />
    <glyph glyph-name="asterisk" unicode="*" horiz-adv-x="632" 
d="M499 359q9 -10 12 -21.5t1 -23.5t-8.5 -22.5t-16.5 -17.5q-20 -14 -46.5 -15t-44.5 20l-83 94l-89 -93q-19 -20 -42.5 -20.5t-44.5 14.5q-23 17 -26 42t17 46l62 69l-107 24q-31 7 -40.5 28t-2.5 42q9 29 29.5 35.5t45.5 1.5l125 -27l-3 93q-1 26 22 37t52 11
q28 0 48.5 -12t20.5 -37l-1 -92l124 30q35 8 56.5 -4t26.5 -29q8 -25 0 -45t-43 -27l-112 -26z" />
    <glyph glyph-name="plus" unicode="+" horiz-adv-x="607" 
d="M216 460q0 16 7 27.5t19 18.5t26.5 10t29.5 3q30 0 55 -13.5t25 -45.5v-90h125q44 0 59.5 -18t15.5 -43q0 -23 -14 -40.5t-61 -17.5h-125v-84q0 -20 -7 -32t-18 -19.5t-25.5 -10t-29.5 -2.5t-29.5 2.5t-26.5 10t-19 19.5t-7 32v84h-128q-45 0 -59.5 17t-14.5 43
q0 11 2.5 21.5t10.5 19t22.5 13.5t38.5 5h128v90z" />
    <glyph glyph-name="comma" unicode="," horiz-adv-x="280" 
d="M138 68q47 0 74 -24.5t27 -65.5q0 -12 -0.5 -28t-5.5 -34.5t-16.5 -38.5t-32.5 -40q-10 -9 -23 -15.5t-26 -9t-25.5 0t-21.5 10.5q-12 11 -11.5 25t9.5 22q10 8 17 21.5t9 31.5q-13 0 -25.5 5t-23 14t-17 21.5t-6.5 27.5q0 30 22 53.5t76 23.5z" />
    <glyph glyph-name="hyphen" unicode="-" horiz-adv-x="580" 
d="M125 250q-44 0 -61 17.5t-17 43.5q0 22 15.5 41t62.5 19h332q44 0 60 -18.5t16 -43.5q0 -23 -14.5 -41t-61.5 -18h-332z" />
    <glyph glyph-name="period" unicode="." horiz-adv-x="280" 
d="M40 -19q0 42 28.5 64t70.5 22t71 -22t29 -64t-29 -63.5t-71 -21.5t-70.5 21.5t-28.5 63.5z" />
    <glyph glyph-name="slash" unicode="/" horiz-adv-x="673" 
d="M495 674q15 22 43 26t55 -11t35.5 -41t-14.5 -60l-448 -659q-18 -27 -47.5 -32.5t-57.5 7.5q-32 14 -37.5 43.5t12.5 55.5z" />
    <glyph glyph-name="zero" unicode="0" horiz-adv-x="701" 
d="M351 -87q-65 0 -116 12.5t-86.5 41t-54.5 73.5t-19 110v295q0 65 19 110t54.5 73.5t86.5 41t116 12.5q64 0 115.5 -13t88 -42t56 -74.5t19.5 -110.5v-292q-2 -64 -22 -109t-56 -73.5t-87 -41.5t-114 -13zM456 444q-1 30 -6 52t-16.5 35.5t-31.5 20t-51 6.5
q-32 0 -52 -6.5t-31 -20.5t-15.5 -35.5t-4.5 -51.5v-295q0 -29 4.5 -50.5t15.5 -35t31 -20t52 -6.5q62 0 83.5 28t21.5 84v295z" />
    <glyph glyph-name="one" unicode="1" horiz-adv-x="518" 
d="M201 489q-11 -8 -22.5 -15.5t-25.5 -14.5q-12 -6 -26.5 -10.5t-29 -4.5t-28 5.5t-22.5 19.5q-20 29 -11.5 54.5t34.5 40.5l163 95q10 8 26 12.5t32 4.5q34 0 59 -18t25 -56v-607q0 -41 -26.5 -59t-59.5 -18q-17 0 -32.5 4.5t-28 14t-20 24t-7.5 34.5v494z" />
    <glyph glyph-name="two" unicode="2" horiz-adv-x="646" 
d="M530 43q38 0 54 -19t16 -45q0 -10 -3 -20.5t-11 -19.5t-21.5 -15t-34.5 -6h-399q-41 0 -61.5 25t-20.5 56q0 23 18 52q29 40 76 85t96 89q36 32 68.5 62.5t57 60t39.5 57.5t15 55q0 16 -2.5 32.5t-11.5 30.5t-26 23t-46 9q-20 0 -39 -5t-33 -15t-22.5 -26t-8.5 -37
q0 -23 -19.5 -39.5t-58.5 -16.5q-16 0 -30.5 4t-26 12.5t-18.5 22.5t-7 34q0 44 21.5 79.5t57.5 61t82.5 39t96.5 13.5q62 0 110.5 -15.5t81.5 -43.5t50.5 -67.5t17.5 -87.5q0 -44 -15.5 -82.5t-42 -74.5t-62.5 -71t-76 -72q-32 -29 -64.5 -58t-65.5 -67h268z" />
    <glyph glyph-name="three" unicode="3" horiz-adv-x="718" 
d="M342 37q70 0 103 25t33 84v17q0 52 -37.5 72.5t-98.5 20.5q-35 0 -48.5 19t-13.5 39q0 23 13.5 40.5t48.5 17.5q25 0 45.5 4.5t35.5 15.5t23.5 29t8.5 45q0 93 -108 93q-34 0 -56 -7t-35 -18t-18.5 -24.5t-5.5 -25.5q0 -28 -20.5 -46.5t-63.5 -18.5t-61 17.5t-18 56.5
q0 26 11.5 59t43 62t85.5 48.5t140 19.5q60 0 110.5 -11t87 -34.5t57 -61t20.5 -90.5q0 -69 -21.5 -107t-61.5 -60q52 -20 81 -57t29 -98v-17q0 -64 -24.5 -108.5t-66.5 -72t-98.5 -40t-119.5 -12.5q-80 0 -137 17t-94 43.5t-54 59.5t-17 65q0 35 18.5 53t62.5 18
q27 0 44.5 -5t27.5 -14t13.5 -21t3.5 -27q0 -26 32.5 -45.5t99.5 -19.5z" />
    <glyph glyph-name="four" unicode="4" horiz-adv-x="666" 
d="M386 62h-301q-22 0 -34.5 10.5t-17 26t-2 33.5t10.5 32l274 478q19 32 48.5 38t58.5 -8q36 -17 42.5 -47.5t-12.5 -62.5l-221 -376h154v153q0 32 19.5 57t67.5 25q47 0 67 -24.5t20 -57.5v-153h48q22 0 36 -5t22 -13.5t10.5 -19.5t2.5 -23q0 -26 -14 -44.5t-57 -18.5h-48
v-68q0 -12 -3.5 -25t-13.5 -24.5t-26.5 -19t-43.5 -7.5t-43.5 7.5t-26.5 19t-13.5 24.5t-3.5 25v68z" />
    <glyph glyph-name="five" unicode="5" horiz-adv-x="718" 
d="M527 676q42 0 60 -18.5t18 -44.5q0 -21 -16.5 -40.5t-61.5 -19.5h-283v-164q29 6 56.5 9t50.5 3q60 0 114.5 -12t96 -38.5t66 -69t24.5 -104.5v-28q0 -65 -23 -109.5t-63.5 -73t-95 -41t-118.5 -12.5q-73 0 -129 14.5t-93.5 39t-56.5 57.5t-19 70q0 38 22.5 58.5
t62.5 20.5q26 0 43 -6t26.5 -16t13.5 -23t4 -26q0 -33 35.5 -49t89.5 -16q63 0 95 26t32 86v22q0 57 -41.5 84.5t-104.5 25.5q-16 0 -27.5 -1t-23.5 -3.5t-25.5 -6t-33.5 -8.5q-40 -10 -61 -11.5t-38 3.5l1 -1q-27 8 -40 27.5t-13 48.5v284q0 36 18 49.5t48 13.5h390z" />
    <glyph glyph-name="six" unicode="6" horiz-adv-x="736" 
d="M393 394q57 0 108 -11t89.5 -37t60.5 -68.5t22 -104.5v-23q0 -65 -24 -110t-65 -73.5t-96.5 -41t-118.5 -12.5q-65 0 -121 13t-97.5 41.5t-65 74t-23.5 110.5v288q0 64 24 110t66 75.5t99 43t122 13.5q76 0 132.5 -16.5t93.5 -43t55.5 -60t18.5 -67.5q0 -33 -24.5 -51.5
t-64.5 -18.5q-36 0 -58.5 16.5t-25.5 47.5q-2 36 -37.5 53t-89.5 17q-66 0 -102.5 -30.5t-36.5 -88.5v-79q33 20 73.5 26.5t85.5 6.5zM234 150q0 -60 35 -87t100 -27q62 0 96 27t34 87v12q0 62 -34.5 85.5t-98.5 23.5q-27 0 -51 -6.5t-42 -20t-28.5 -34.5t-10.5 -49v-11z
" />
    <glyph glyph-name="seven" unicode="7" horiz-adv-x="670" 
d="M521 676q51 0 76.5 -19.5t25.5 -54.5q0 -11 -2 -27t-13 -32l-312 -595q-8 -15 -21.5 -23.5t-29 -10.5t-32 0.5t-30.5 9.5q-17 8 -26.5 21t-13 28t-1.5 30t9 27l283 523h-339q-43 0 -59.5 19t-16.5 44q0 11 3 21.5t11.5 19t23.5 14t38 5.5h426z" />
    <glyph glyph-name="eight" unicode="8" horiz-adv-x="718" 
d="M351 682q60 0 112 -12.5t90.5 -37.5t60.5 -63t22 -90q0 -56 -28 -94.5t-67 -57.5q57 -25 89.5 -70.5t32.5 -110.5v-13q0 -51 -24.5 -92t-67 -69.5t-99.5 -43.5t-121 -15q-63 0 -120 15t-99.5 43.5t-67.5 69.5t-25 92v13q0 65 32 110.5t90 70.5q-36 19 -64.5 58t-28.5 94
q0 52 22 90t60.5 63t90 37.5t110.5 12.5zM489 151q0 29 -11 49.5t-29.5 33.5t-44 19t-53.5 6q-27 0 -52.5 -6t-44.5 -19t-30.5 -33.5t-11.5 -49.5v-6q0 -23 10.5 -43t29 -34.5t44 -23t55.5 -8.5q65 0 101.5 31.5t36.5 77.5v6zM351 559q-52 0 -83 -19.5t-31 -62.5
q0 -47 31 -67t83 -20q54 0 85.5 20t31.5 67q0 43 -31.5 62.5t-85.5 19.5z" />
    <glyph glyph-name="nine" unicode="9" horiz-adv-x="718" 
d="M318 199q-58 0 -109 11.5t-88.5 37.5t-59.5 68.5t-22 105.5v23q0 65 23.5 110.5t65 73.5t97 40.5t118.5 12.5q65 0 121 -13t97.5 -41.5t65 -74t23.5 -111.5v-287q0 -65 -24 -111t-66 -75t-98.5 -42.5t-122.5 -13.5q-76 0 -131 16.5t-90 43t-52 60.5t-17 69
q0 32 23.5 50.5t65.5 18.5q36 0 58.5 -16.5t24.5 -49.5q2 -35 33.5 -51.5t84.5 -16.5q66 0 102.5 30t36.5 88v82q-68 -38 -160 -38zM478 445q0 60 -35 87t-100 27q-63 0 -97.5 -27t-34.5 -87v-10q0 -62 34.5 -87.5t100.5 -25.5q27 0 51 7t42 21t28.5 35.5t10.5 50.5v9z" />
    <glyph glyph-name="colon" unicode=":" horiz-adv-x="308" 
d="M49 470q0 45 29.5 66.5t71.5 21.5t72 -21.5t30 -66.5t-30 -66t-72 -21t-71.5 21t-29.5 66zM49 147q0 45 29.5 66.5t71.5 21.5t72 -21.5t30 -66.5t-30 -66t-72 -21t-71.5 21t-29.5 66z" />
    <glyph glyph-name="semicolon" unicode=";" horiz-adv-x="308" 
d="M49 470q0 45 29.5 66.5t71.5 21.5t72 -21.5t30 -66.5t-30 -66t-72 -21t-71.5 21t-29.5 66zM49 147q0 45 29.5 66.5t71.5 21.5t73 -21.5t31 -66.5q0 -17 -9.5 -41t-22.5 -49t-26 -45.5t-20 -29.5q-14 -18 -37.5 -18.5t-37.5 4.5q-22 8 -31 26.5t1 38.5l20 40
q-20 11 -31 30t-11 44z" />
    <glyph glyph-name="less" unicode="&#x3c;" horiz-adv-x="576" 
d="M13 311q0 17 9.5 29t32.5 23l342 167q11 6 25.5 9.5t29.5 3t28.5 -7t22.5 -21.5q17 -29 8.5 -51t-34.5 -35l-239 -119q60 -29 119 -56.5t119 -58.5q26 -14 34 -37t-7 -52q-11 -21 -41 -26.5t-65 11.5l-342 164q-23 11 -32.5 25.5t-9.5 31.5z" />
    <glyph glyph-name="equal" unicode="=" horiz-adv-x="619" 
d="M135 348q-44 0 -60 17.5t-16 42.5q0 11 3 21.5t11 18.5t23 13t39 5h336q45 0 62 -17.5t17 -43.5q0 -10 -3.5 -20t-12 -18.5t-24 -13.5t-39.5 -5h-336zM135 147q-44 0 -60 17t-16 41q0 11 3 21.5t11 19t23 13.5t39 5h336q45 0 62 -17.5t17 -43.5q0 -21 -15.5 -38.5
t-63.5 -17.5h-336z" />
    <glyph glyph-name="greater" unicode="&#x3e;" horiz-adv-x="574" 
d="M526 311q0 -17 -9.5 -31.5t-32.5 -25.5l-342 -164q-35 -17 -65 -11.5t-41 26.5q-15 29 -7 52t34 37q60 31 119 58.5t119 56.5l-239 119q-26 13 -34.5 35t8.5 51q9 15 22.5 21.5t28.5 7t29.5 -3t25.5 -9.5l342 -167q23 -11 32.5 -23t9.5 -29z" />
    <glyph glyph-name="question" unicode="?" horiz-adv-x="591" 
d="M541 508q0 -38 -13 -69t-34.5 -57t-49.5 -49t-57 -44q-18 -13 -29 -24.5t-16 -24t-6.5 -29t-1.5 -38.5q0 -9 -3.5 -19t-12 -19t-23 -14.5t-36.5 -5.5q-37 0 -59 14.5t-22 49.5q0 37 7 65.5t20.5 51t34.5 40.5t49 35q18 12 34 26t29 30t20.5 35t7.5 42q0 20 -5 36.5
t-17 28.5t-33 18.5t-53 6.5q-25 0 -41.5 -5t-27.5 -12t-18 -14.5t-13 -12.5q-13 -11 -28.5 -17t-31 -7.5t-30 1.5t-25.5 11q-25 18 -27.5 40t12.5 40q13 16 34 32t50 29t66 20.5t84 7.5q69 0 119 -16.5t82.5 -44t48 -63.5t15.5 -75zM159 -19q0 -42 28.5 -63.5t70.5 -21.5
t71 21.5t29 63.5t-29 64t-71 22t-70.5 -22t-28.5 -64z" />
    <glyph glyph-name="at" unicode="@" horiz-adv-x="1021" 
d="M324 466q11 9 29.5 16t41 12t47 7.5t48.5 2.5q46 0 85 -10t67.5 -30t44.5 -49.5t16 -68.5v-170q0 -19 10.5 -29t24.5 -10q19 0 31.5 13.5t19.5 33.5t9.5 43.5t2.5 44.5q0 137 -74 210t-230 73q-89 0 -148.5 -24t-95.5 -65t-51 -94.5t-15 -111.5q0 -60 13 -111.5t44 -89
t83 -58.5t130 -21q49 0 84 11t67 19q20 5 39.5 -1.5t27.5 -22.5q15 -29 6.5 -48t-31.5 -29q-34 -15 -85.5 -25t-121.5 -10q-75 0 -144.5 22t-123 68.5t-86 119.5t-32.5 175q0 83 26 155.5t80 126.5t137.5 85t197.5 31q209 0 319 -96.5t110 -276.5q0 -51 -10.5 -96.5t-34 -80
t-60 -55t-88.5 -20.5q-50 0 -79.5 15.5t-46.5 36.5q-32 -23 -70 -33.5t-91 -10.5q-34 0 -66.5 7.5t-58 24t-41 43t-15.5 63.5q0 43 18.5 72.5t50.5 48t74.5 26.5t90.5 8h66v3q0 32 -22.5 44.5t-60.5 12.5q-31 0 -51.5 -5t-34.5 -11q-24 -11 -46.5 -10t-40.5 26
q-15 20 -10 39.5t24 33.5zM568 229h-53q-21 0 -40.5 -1.5t-34.5 -6.5t-23.5 -14.5t-8.5 -26.5q0 -15 15 -23t38 -8q22 0 41.5 5t34 13t23 19.5t8.5 24.5v18z" />
    <glyph glyph-name="A" unicode="A" horiz-adv-x="674" 
d="M65 -78q-19 6 -31 16t-17.5 23t-5.5 26t4 25l217 613q7 20 29.5 38.5t67.5 18.5t68 -18.5t30 -38.5l217 -615q12 -35 -1 -56t-45 -30q-38 -11 -63.5 2t-35.5 43l-46 137h-242l-48 -142q-8 -24 -35 -37t-63 -5zM332 466l-81 -239h161z" />
    <glyph glyph-name="B" unicode="B" horiz-adv-x="724" 
d="M75 626q0 24 17.5 37t46.5 13h230q55 0 105 -10t88.5 -33.5t61 -61.5t22.5 -95t-23 -96.5t-61 -63.5q21 -8 40.5 -21t34 -32t23.5 -44t9 -58v-17q0 -62 -21 -105t-57.5 -70t-86.5 -39t-107 -12h-240q-38 0 -60 19t-22 51v638zM373 43q59 0 91 23t32 81v7q0 49 -32 74.5
t-91 25.5h-124v-211h124zM249 368h114q55 0 82.5 30t27.5 75q0 42 -29.5 61t-82.5 19h-112v-185z" />
    <glyph glyph-name="C" unicode="C" horiz-adv-x="660" 
d="M549 416q-32 0 -54 16.5t-24 42.5q-4 38 -33 60.5t-86 22.5q-112 0 -117 -116q-3 -77 -2.5 -148.5t2.5 -143.5q2 -59 31 -86t86 -27q59 0 85.5 23t31.5 71q2 25 26 42t53 17q78 0 78 -79q0 -41 -19.5 -77t-55.5 -63t-86.5 -42.5t-112.5 -15.5q-59 0 -110 12.5t-89 41
t-60.5 73.5t-24.5 110q-4 153 0 295q2 63 25 108t61.5 73.5t88.5 42t105 13.5q61 0 112.5 -15t88.5 -40.5t57.5 -60t20.5 -73.5q0 -77 -78 -77z" />
    <glyph glyph-name="D" unicode="D" horiz-adv-x="741" 
d="M358 676q64 0 120 -12.5t97.5 -41t65 -73.5t23.5 -109v-285q0 -65 -23.5 -110t-65 -73.5t-97.5 -41t-120 -12.5h-204q-38 0 -58 19.5t-20 52.5v618q0 28 22 48t57 20h203zM249 43h109q64 0 98.5 27t34.5 85v285q0 58 -34.5 85.5t-98.5 27.5h-109v-510z" />
    <glyph glyph-name="E" unicode="E" horiz-adv-x="624" 
d="M249 43h266q38 0 58.5 -19t20.5 -45q0 -10 -4.5 -20.5t-14.5 -19.5t-24.5 -15t-35.5 -6h-365q-35 0 -54.5 18t-19.5 51v626q0 28 21.5 45.5t53.5 17.5h366q38 0 57.5 -18.5t19.5 -44.5q0 -21 -18 -40.5t-59 -19.5h-268v-194h234q38 0 56 -18t18 -44q0 -21 -16.5 -40.5
t-57.5 -19.5h-234v-194z" />
    <glyph glyph-name="F" unicode="F" horiz-adv-x="614" 
d="M76 610q0 35 20.5 50.5t46.5 15.5h355q48 0 66.5 -18.5t18.5 -41.5q0 -26 -18.5 -44.5t-66.5 -18.5h-249v-194h241q38 0 56.5 -18t18.5 -44q0 -21 -17 -40.5t-58 -19.5h-241v-242q0 -20 -8 -34.5t-20.5 -24t-28 -14t-30.5 -4.5t-30 4.5t-27.5 14t-20.5 24t-8 34.5v615z
" />
    <glyph glyph-name="G" unicode="G" horiz-adv-x="740" 
d="M591 416q-35 0 -59.5 16.5t-26.5 42.5q-5 38 -37.5 60.5t-94.5 22.5q-64 0 -99.5 -29t-38.5 -87q-2 -73 -3 -146.5t3 -145.5q3 -59 38 -86t100 -27q62 0 97 27t35 86v66h-93q-21 0 -35 5.5t-22 14t-11 19.5t-3 22q0 10 3 20.5t11 19.5t22 15t35 6h196q69 0 69 -60v-128
q0 -65 -23.5 -110t-65 -73.5t-97 -41t-118.5 -12.5q-66 0 -121.5 12.5t-96 41t-63.5 73.5t-24 110q-2 72 -2 146t2 149q1 63 25 108t64.5 73.5t94.5 42t115 13.5q68 0 125 -15t98 -40.5t64 -60t23 -73.5q0 -77 -86 -77z" />
    <glyph glyph-name="H" unicode="H" horiz-adv-x="780" 
d="M529 249h-280v-240q0 -24 -7 -41t-19 -28t-27.5 -16.5t-31.5 -5.5q-34 0 -61 22t-27 69v577q0 46 27 68t61 22q16 0 31.5 -5.5t27.5 -16.5t19 -28t7 -40v-212h280v212q0 47 26 68.5t60 21.5q33 0 60 -22t27 -68v-577q0 -47 -27 -69t-60 -22q-34 0 -60 22t-26 69v240z" />
    <glyph glyph-name="I" unicode="I" horiz-adv-x="326" 
d="M76 602q0 38 27.5 56t61.5 18q16 0 31.5 -4.5t27.5 -13.5t19 -23t7 -33v-607q0 -20 -7 -34.5t-19 -24t-27.5 -14t-31.5 -4.5q-17 0 -33 4.5t-28.5 14t-20 24t-7.5 34.5v607z" />
    <glyph glyph-name="J" unicode="J" horiz-adv-x="706" 
d="M447 599q0 38 26.5 57.5t60.5 19.5q33 0 59.5 -19.5t26.5 -57.5v-449q0 -65 -23.5 -110t-64 -73.5t-95.5 -41t-118 -12.5q-68 0 -125 14.5t-98 41.5t-64 65t-23 84q0 39 22 52.5t67 13.5q32 0 57 -10t27 -39q1 -20 9 -37.5t23.5 -31t39.5 -21.5t59 -8q64 0 99 27t35 86
v449z" />
    <glyph glyph-name="K" unicode="K" horiz-adv-x="700" 
d="M76 600q0 19 7.5 33.5t20 24t28.5 14t33 4.5q32 0 58 -19t26 -57v-215l273 268q11 11 26.5 16.5t31.5 6t30.5 -4t25.5 -13.5q23 -20 23.5 -50t-21.5 -51l-249 -239l274 -271q30 -29 30.5 -63.5t-27.5 -54.5t-59 -16.5t-54 26.5l-304 303v-247q0 -41 -26 -59t-58 -18
q-17 0 -33 4.5t-28.5 14t-20 24t-7.5 34.5v605z" />
    <glyph glyph-name="L" unicode="L" horiz-adv-x="618" 
d="M76 602q0 38 27 56t61 18q16 0 31.5 -4.5t27.5 -13.5t19 -23t7 -33v-559h288q42 0 58.5 -19t16.5 -45q0 -10 -3 -20.5t-11.5 -19.5t-23 -15t-37.5 -6h-379q-38 0 -60 18t-22 51v615z" />
    <glyph glyph-name="M" unicode="M" horiz-adv-x="897" 
d="M649 405q-34 -49 -69.5 -107t-67.5 -106q-14 -19 -30 -25.5t-35 -6.5q-16 0 -34 7t-29 26l-135 217v-415q0 -41 -26.5 -59t-59.5 -18q-17 0 -32.5 4.5t-27.5 14t-19.5 24t-7.5 34.5v606q0 37 26.5 56t60.5 19q21 0 38 -2.5t31 -10t27 -20.5t26 -33l162 -254l168 254
q25 37 50.5 51.5t69.5 14.5q36 0 61 -19t25 -56v-606q0 -20 -7.5 -34.5t-19.5 -24t-27.5 -14t-31.5 -4.5t-31.5 4.5t-27.5 14t-19.5 24t-7.5 34.5v410z" />
    <glyph glyph-name="N" unicode="N" horiz-adv-x="779" 
d="M703 2q0 -24 -7 -40t-19 -25.5t-27 -14t-31 -4.5q-33 0 -59 10.5t-41 33.5l-270 409v-376q0 -41 -26 -59t-58 -18q-17 0 -33 4.5t-28.5 14t-20 24t-7.5 34.5v611q0 12 5.5 24t16.5 22.5t27.5 17t39.5 6.5q21 0 37 -3t29 -10.5t25 -20.5t25 -33l249 -383v376q0 38 27.5 56
t61.5 18q16 0 31 -4.5t27 -13.5t19 -23t7 -33v-600z" />
    <glyph glyph-name="O" unicode="O" horiz-adv-x="745" 
d="M373 -87q-66 0 -121.5 12.5t-96 41t-63.5 73.5t-24 110q-2 72 -2 143.5t2 146.5q1 64 24.5 109t64 73.5t96 41t120.5 12.5q63 0 117 -13.5t94.5 -42t65 -73t27.5 -107.5q3 -72 2.5 -147t-2.5 -143q-1 -63 -25 -108t-65 -73.5t-96 -42t-118 -13.5zM511 440q-2 58 -39 85.5
t-99 27.5q-65 0 -100.5 -28t-37.5 -86q-3 -145 0 -289q2 -59 37.5 -86t100.5 -27q61 0 97.5 28.5t40.5 85.5q5 71 3.5 142t-3.5 147z" />
    <glyph glyph-name="P" unicode="P" horiz-adv-x="726" 
d="M72 623q0 26 20 39.5t52 13.5h236q63 0 119.5 -12.5t99.5 -40.5t68 -73t25 -109v-6q0 -64 -24 -109t-65 -73t-96.5 -41t-118.5 -13h-142v-204q0 -20 -7 -34.5t-19 -24t-27.5 -14t-31.5 -4.5q-17 0 -33 4.5t-28.5 14t-20 24t-7.5 34.5v628zM246 553v-240h142q61 0 96 28
t35 87v14q0 58 -41.5 84.5t-104.5 26.5h-127z" />
    <glyph glyph-name="Q" unicode="Q" horiz-adv-x="752" 
d="M272 -79q-44 9 -81 27t-64 46t-42.5 66.5t-16.5 89.5q-2 72 -2 143.5t2 146.5q1 64 24.5 109t64 73.5t96 41t120.5 12.5q63 0 117 -13.5t94.5 -42t65 -73t27.5 -107.5q3 -72 2.5 -147t-2.5 -143q-1 -55 -23 -93.5t-68 -69.5l92 -16q42 -8 57 -28t10 -48
q-6 -32 -31.5 -40.5t-66.5 -0.5zM511 440q-2 58 -39 85.5t-99 27.5q-65 0 -100.5 -28t-37.5 -86q-3 -145 0 -289q2 -59 37.5 -86t100.5 -27q61 0 97.5 28.5t40.5 85.5q5 71 3.5 142t-3.5 147z" />
    <glyph glyph-name="R" unicode="R" horiz-adv-x="671" 
d="M248 232v-237q0 -20 -8 -34.5t-20 -24t-27 -14t-30 -4.5t-30.5 4.5t-28 14t-20.5 24t-8 34.5v624q0 29 16.5 43t42.5 14h224q58 0 110.5 -10t92.5 -35t63.5 -66t23.5 -104q0 -42 -12 -76t-33 -60t-49 -45t-59 -29l130 -213q19 -29 15 -60t-36 -49q-18 -10 -35.5 -11.5
t-32 3.5t-26.5 15t-20 23l-163 273h-80zM248 553v-201h107q56 0 90 22t34 78q0 57 -33.5 79t-90.5 22h-107z" />
    <glyph glyph-name="S" unicode="S" horiz-adv-x="681" 
d="M317 37q30 0 56.5 5t45.5 16t30 28t11 40q0 26 -12.5 45t-33.5 33.5t-48 25.5t-56 21q-45 16 -92.5 34.5t-86 44t-63 60.5t-24.5 84q0 60 29 99.5t74 63t101 33.5t110 10q27 0 60 -2.5t64.5 -8.5t59 -15t42.5 -22q12 -10 16.5 -23.5t4.5 -24.5q-1 -24 -12 -37.5
t-26.5 -18.5t-34 -4t-33.5 7q-37 12 -70 20t-71 8q-61 0 -100.5 -17.5t-39.5 -57.5q0 -23 13 -40t34.5 -30.5t50 -24.5t59.5 -21l55 -19q38 -14 74.5 -32t65 -43t46 -58t17.5 -77q0 -58 -23 -101t-64.5 -71t-98.5 -41.5t-125 -13.5q-100 0 -169 24t-101 56q-10 8 -15 19
t-6 22q-2 18 4 32t16.5 23t23.5 13.5t27 4.5q15 0 30.5 -5t26.5 -14q16 -11 31 -20t33 -15.5t41 -10.5t53 -4z" />
    <glyph glyph-name="T" unicode="T" horiz-adv-x="667" 
d="M81 554q-42 0 -59 18.5t-17 43.5q0 11 3.5 21.5t12 19t23 14t37.5 5.5h504q42 0 59 -18.5t17 -44.5q0 -11 -3.5 -21.5t-12 -18.5t-23 -13.5t-37.5 -5.5h-164v-559q0 -20 -7.5 -34.5t-19.5 -24t-27.5 -14t-31.5 -4.5q-17 0 -32.5 4.5t-28 14t-20 24t-7.5 34.5v559h-166z
" />
    <glyph glyph-name="U" unicode="U" horiz-adv-x="775" 
d="M76 602q0 38 27 56t61 18q16 0 31.5 -4.5t27.5 -13.5t19 -23t7 -33v-452q0 -59 38.5 -86t104.5 -27q64 0 100.5 27t36.5 86v452q0 38 27 56t61 18q16 0 31 -4.5t27 -13.5t19.5 -23t7.5 -33v-452q0 -65 -24.5 -110t-66.5 -73.5t-98.5 -41t-120.5 -12.5q-66 0 -124 12.5
t-100.5 41t-67 73.5t-24.5 110v452z" />
    <glyph glyph-name="V" unicode="V" horiz-adv-x="747" 
d="M21 573q-7 17 -6 32.5t8 28t18 22t25 14.5q16 6 33 7.5t32 -2.5t27 -13.5t18 -24.5l190 -515l188 515q3 7 9.5 16t19 15.5t30.5 8.5t43 -5q16 -5 28.5 -15t20 -23t9 -27.5t-3.5 -28.5l-233 -599q-5 -12 -13.5 -23.5t-22 -21t-32 -15.5t-43.5 -6q-26 0 -45.5 7t-32.5 17
t-21 21.5t-12 21.5z" />
    <glyph glyph-name="W" unicode="W" horiz-adv-x="1070" 
d="M869 -17q-10 -29 -35 -49.5t-77 -20.5q-49 0 -74 19t-35 49l-116 374l-115 -374q-9 -30 -34.5 -49t-75.5 -19q-27 0 -46 5.5t-32 15t-21 22t-13 27.5l-174 597q-4 13 -3 27.5t7.5 27.5t19.5 23t33 14q37 8 65.5 -1.5t39.5 -44.5l124 -497l143 501q4 14 24.5 29.5
t61.5 15.5q37 0 56 -16t23 -30l141 -500l125 496q11 36 41.5 46.5t70.5 -0.5q20 -5 32 -15.5t18 -23t6 -26.5t-4 -26z" />
    <glyph glyph-name="X" unicode="X" horiz-adv-x="710" 
d="M347 196l-170 -248q-19 -28 -53 -33t-62 12q-15 9 -24 22t-13 27t-1.5 28t10.5 25l203 276l-198 262q-10 13 -12.5 28t1 28.5t12 25.5t19.5 20q32 23 65 18.5t53 -32.5l170 -239l173 240q20 27 51.5 29t63.5 -18q12 -8 20 -20t11 -25.5t0.5 -27.5t-10.5 -25l-198 -264
l197 -270q20 -28 15 -58t-36 -50t-64.5 -11.5t-53.5 37.5z" />
    <glyph glyph-name="Y" unicode="Y" horiz-adv-x="727" 
d="M443 217v-222q0 -20 -7.5 -34.5t-20 -24t-28 -14t-31.5 -4.5t-31.5 4.5t-27.5 14t-19.5 24t-7.5 34.5v222l-247 355q-16 23 -9.5 50.5t33.5 45.5q13 8 28 12t29.5 3.5t27 -7t21.5 -18.5l203 -305l199 300q17 26 46 28t59 -13q13 -6 23 -17t15 -23.5t4 -27t-11 -28.5z" />
    <glyph glyph-name="Z" unicode="Z" horiz-adv-x="675" 
d="M399 549h-296q-42 0 -59.5 19.5t-17.5 44.5q0 11 3.5 22.5t12.5 20.5t23.5 14.5t37.5 5.5h453q41 0 58 -13.5t17 -36.5q0 -9 -2 -19.5t-10 -21.5l-373 -539h329q41 0 59.5 -19.5t18.5 -45.5q0 -10 -4 -21t-13 -20.5t-24 -15.5t-37 -6h-493q-26 0 -41.5 9.5t-22 23.5
t-4.5 29.5t10 27.5z" />
    <glyph glyph-name="bracketleft" unicode="[" horiz-adv-x="459" 
d="M249 19h113q43 0 61 -17.5t18 -42.5q0 -12 -3.5 -22.5t-12.5 -19t-24.5 -13.5t-38.5 -5h-214q-38 0 -59.5 16.5t-21.5 49.5v689q0 59 74 59h221q43 0 61 -18t18 -44q0 -11 -3.5 -21.5t-12.5 -19t-24.5 -14t-38.5 -5.5h-113v-572z" />
    <glyph glyph-name="backslash" unicode="\" horiz-adv-x="951" 
d="M100 232q-44 0 -61 17.5t-17 43.5q0 22 15.5 41t62.5 19h10l-47 227q-3 13 -2.5 27.5t6 27.5t17 23t31.5 14q37 8 63.5 -6t31.5 -50l45 -263h84l53 267q4 14 24.5 29.5t61.5 15.5q37 0 56 -16t23 -30l51 -266h84l46 262q5 38 31 52.5t66 3.5q20 -5 31.5 -15t17 -23
t6 -26.5t-2.5 -26.5l-48 -227h13q44 0 60 -18.5t16 -43.5q0 -23 -14.5 -41t-61.5 -18h-39l-52 -249q-5 -14 -11.5 -27t-18 -22.5t-29 -15t-43.5 -5.5q-49 0 -74 19t-35 49l-47 251h-58l-46 -251q-9 -30 -34.5 -49t-75.5 -19q-27 0 -44.5 5.5t-28.5 15t-17.5 22t-11.5 27.5
l-52 249h-35zM295 126l21 106h-40zM652 126l18 106h-39zM463 353h21l-10 92z" />
    <glyph glyph-name="bracketright" unicode="]" horiz-adv-x="457" 
d="M208 591h-113q-23 0 -38.5 5.5t-24.5 14t-12.5 19t-3.5 21.5q0 26 18 44t61 18h221q74 0 74 -59v-689q0 -33 -21.5 -49.5t-59.5 -16.5h-214q-23 0 -38.5 5t-24.5 13.5t-12.5 19t-3.5 22.5q0 25 18 42.5t61 17.5h113v572z" />
    <glyph glyph-name="asciicircum" unicode="^" horiz-adv-x="500" 
d="M250 707q16 0 33.5 -4.5t28.5 -17.5l99 -114q7 -8 11 -19t3.5 -23t-7 -24.5t-19.5 -21.5q-19 -13 -44 -10.5t-39 19.5l-67 75l-67 -77q-15 -17 -40 -17t-42 14q-21 17 -25 40t8 37l104 120q11 12 29 17.5t34 5.5z" />
    <glyph glyph-name="underscore" unicode="_" horiz-adv-x="813" 
d="M81 -169q-44 0 -60.5 18t-16.5 42q0 10 3 20.5t11.5 18.5t23.5 13.5t39 5.5h638q44 0 60 -18.5t16 -43.5q0 -10 -3 -20t-11 -18t-23 -13t-39 -5h-638z" />
    <glyph glyph-name="grave" unicode="`" horiz-adv-x="312" 
d="M47 578q-32 21 -33 44.5t15 42.5q10 12 22.5 16t25.5 2.5t26 -7.5t25 -14l124 -81q32 -20 36.5 -43t-13.5 -47q-9 -12 -20.5 -16t-24 -3t-25.5 6t-23 12z" />
    <glyph glyph-name="a" unicode="a" horiz-adv-x="631" 
d="M551 -14q0 -32 -22 -49.5t-60 -17.5q-52 0 -72 26q-18 -11 -38.5 -17.5t-41.5 -10t-40.5 -4.5t-34.5 -1q-60 0 -101.5 12.5t-67.5 33t-37.5 46t-12.5 52.5q-6 88 64.5 131t210.5 43h84q-2 30 -32 54.5t-87 24.5q-41 0 -65 -6t-38 -12q-27 -11 -52.5 -10t-38.5 30
q-11 26 -3 46.5t32 32.5q31 16 77.5 25.5t91.5 9.5q75 0 128.5 -17t88 -45.5t51 -66t16.5 -77.5v-233zM383 122h-88q-62 0 -83.5 -12.5t-21.5 -37.5q0 -21 17.5 -34.5t50.5 -13.5q24 0 46.5 6t40 16.5t28 24.5t10.5 31v20z" />
    <glyph glyph-name="b" unicode="b" horiz-adv-x="674" 
d="M341 423q55 0 104 -13.5t86.5 -39.5t60 -65t24.5 -90q1 -26 0.5 -49t-0.5 -46q0 -49 -18.5 -87.5t-53 -65.5t-84 -41t-110.5 -14q-19 0 -38.5 3.5t-37 9t-31.5 12.5t-21 15q-11 -15 -27 -24.5t-51 -9.5q-37 0 -59 17.5t-22 49.5v631q0 19 7 33t19 23t27 13t31 4
q34 0 59 -17.5t25 -55.5v-214q23 10 50.5 15.5t59.5 5.5zM446 221q-4 42 -32 61.5t-73 19.5t-74 -22.5t-34 -61.5q-3 -25 -2.5 -49.5t2.5 -50.5q4 -42 29 -64.5t79 -22.5q44 0 72.5 22.5t32.5 64.5q3 26 2.5 51.5t-2.5 51.5z" />
    <glyph glyph-name="c" unicode="c" horiz-adv-x="567" 
d="M324 -88q-72 0 -123 15.5t-85 42.5t-51 64t-20 80q-3 51 0 101q2 44 19 82t50.5 66.5t85 45t123.5 16.5q61 0 108 -13t71 -30q25 -17 26.5 -40.5t-12.5 -44.5t-41.5 -22.5t-49.5 9.5q-15 6 -35.5 12.5t-55.5 6.5q-63 0 -91.5 -23t-30.5 -67q-3 -47 0 -93q3 -43 31.5 -66
t91.5 -23q35 0 59 9t38 16q30 14 55 9t39 -27q12 -18 11 -40.5t-20 -38.5q-22 -18 -73 -32.5t-120 -14.5z" />
    <glyph glyph-name="d" unicode="d" horiz-adv-x="665" 
d="M321 423q32 0 60 -6t52 -15v214q0 38 25.5 55.5t57.5 17.5q16 0 31.5 -4t27.5 -13t19.5 -23t7.5 -33v-631q0 -32 -23 -49.5t-60 -17.5q-29 0 -48 8.5t-31 28.5q-24 -20 -53 -31.5t-66 -11.5q-61 0 -111.5 15t-86.5 42t-56 65t-21 85q-1 27 -1.5 50.5t1.5 46.5
q4 51 26 89.5t58.5 65t85 39.5t105.5 13zM215 227q-6 -62 0 -109q5 -42 33 -64.5t73 -22.5q47 0 76 22.5t34 64.5q6 52 0 100q-5 41 -34 62.5t-76 21.5q-45 0 -72.5 -17.5t-33.5 -57.5z" />
    <glyph glyph-name="e" unicode="e" horiz-adv-x="631" 
d="M326 425q55 0 104 -15.5t86 -42.5t58.5 -64.5t21.5 -80.5q0 -35 -11.5 -56t-30 -32.5t-42.5 -15t-49 -3.5h-250q1 -43 36.5 -66.5t98.5 -23.5q40 0 75 11.5t58 19.5q25 8 49 7t39 -25q12 -19 9 -41.5t-28 -36.5q-29 -19 -83 -33.5t-123 -14.5q-67 0 -121 15t-92.5 42.5
t-60.5 65.5t-25 84q-3 52 0 102q1 41 22 78t58 65t88 44.5t113 16.5zM406 222q17 0 23.5 2t6.5 11q0 32 -31.5 53.5t-79.5 21.5q-23 0 -43 -5t-35.5 -14.5t-24.5 -23t-9 -29.5v-16h193z" />
    <glyph glyph-name="f" unicode="f" horiz-adv-x="503" 
d="M67 302q-41 0 -58 18.5t-17 41.5t16 42t59 19h60v69q0 45 18 81.5t49 62t73 39.5t91 14h63q32 0 53 -13.5t21 -45.5q0 -35 -20 -47t-53 -12h-39q-39 0 -62.5 -19t-23.5 -52v-77h103q42 0 58.5 -18.5t16.5 -44.5q0 -10 -3.5 -20t-12 -18.5t-23 -14t-36.5 -5.5h-103v-308
q0 -40 -26 -58t-59 -18q-16 0 -31.5 4.5t-27.5 13.5t-19 23.5t-7 34.5v308h-60z" />
    <glyph glyph-name="g" unicode="g" horiz-adv-x="668" 
d="M605 -85q0 -55 -21 -96t-59.5 -68t-91.5 -40.5t-116 -13.5t-110 12t-76 29q-12 7 -20 17.5t-11 22.5t-1 23.5t8 21.5q8 13 19.5 19t25 6.5t28 -3t28.5 -9.5q19 -8 45 -15.5t59 -7.5q65 0 94.5 25t29.5 69v33q-24 -17 -52.5 -22.5t-60.5 -5.5q-54 0 -103 12t-86.5 37
t-60.5 64.5t-26 93.5q-2 25 -2 49t2 48q5 54 28.5 93.5t61 64.5t85.5 37t101 12q77 0 133 -28q25 23 63 23q16 0 31.5 -4.5t27.5 -13.5t19.5 -23t7.5 -33v-429zM215 221q-2 -22 -2 -50t2 -54q4 -41 33 -63.5t75 -22.5q47 0 75.5 17.5t33.5 59.5q3 26 3.5 56t-3.5 54
q-6 41 -34 62.5t-75 21.5q-46 0 -75 -18.5t-33 -62.5z" />
    <glyph glyph-name="h" unicode="h" horiz-adv-x="679" 
d="M63 614q0 19 7 33t19 23.5t27 14t31 4.5q34 0 59 -18.5t25 -56.5v-216q25 12 54.5 18.5t64.5 6.5q55 0 103 -14t84 -41t57.5 -66.5t21.5 -90.5v-198q0 -41 -19 -68t-68 -27q-38 0 -60.5 22.5t-22.5 54.5v221q0 40 -30 63t-75 23t-74 -21.5t-34 -62.5q-1 -5 -1.5 -10
t-0.5 -10v-195q0 -42 -19 -63.5t-68 -21.5q-37 0 -59 20.5t-22 52.5v623z" />
    <glyph glyph-name="i" unicode="i" horiz-adv-x="295" 
d="M63 344q0 19 7 33t19 23t27 13.5t31 4.5t31.5 -4.5t27.5 -13.5t19 -23t7 -33v-350q0 -20 -7 -34.5t-19 -23.5t-27.5 -13.5t-31.5 -4.5t-31 4.5t-27 13.5t-19 23.5t-7 34.5v350zM46 538q0 42 28.5 64t70.5 22t71 -22t29 -64t-29 -63.5t-71 -21.5t-70.5 21.5t-28.5 63.5z
" />
    <glyph glyph-name="j" unicode="j" horiz-adv-x="286" 
d="M54 344q0 38 25 56t58 18q16 0 31.5 -4.5t27.5 -13.5t19.5 -23t7.5 -33v-450q0 -46 -16 -82.5t-45 -62t-69.5 -39t-89.5 -13.5h-76q-33 0 -53 13.5t-20 45.5q0 35 19.5 47t51.5 12h43q42 0 64 18t22 50v461zM36 538q0 42 28.5 64t70.5 22t71 -22t29 -64t-29 -63.5
t-71 -21.5t-70.5 21.5t-28.5 63.5z" />
    <glyph glyph-name="k" unicode="k" horiz-adv-x="586" 
d="M63 614q0 19 7 33.5t19 23.5t27 13.5t31 4.5q34 0 59 -18t25 -57v-358l197 157q24 19 51.5 17t48.5 -20q27 -23 22 -53t-29 -49l-154 -125l183 -153q14 -12 19.5 -26.5t4 -28.5t-7.5 -26t-14 -20q-22 -20 -51.5 -20t-52.5 20l-217 183v-118q0 -40 -25 -58t-59 -18
q-16 0 -31 4.5t-27 13.5t-19 23.5t-7 34.5v620z" />
    <glyph glyph-name="l" unicode="l" horiz-adv-x="295" 
d="M63 614q0 19 7 33.5t19 23.5t27 13.5t31 4.5t31.5 -4.5t27.5 -13.5t19 -23.5t7 -33.5v-620q0 -20 -7 -34.5t-19 -23.5t-27.5 -13.5t-31.5 -4.5t-31 4.5t-27 13.5t-19 23.5t-7 34.5v620z" />
    <glyph glyph-name="m" unicode="m" horiz-adv-x="1014" 
d="M63 343q0 38 26.5 56t59.5 18q30 0 48 -13t24 -29q23 29 56 38.5t71 9.5q117 0 181 -68q57 68 168 68q55 0 102 -13.5t80.5 -40t52.5 -65.5t19 -90v-223q0 -34 -17 -53.5t-66 -19.5q-38 0 -62 18t-24 53v227q0 40 -24.5 63t-68.5 23q-45 0 -70.5 -23.5t-25.5 -65.5v-227
q0 -34 -19 -51t-68 -17q-83 0 -83 67v231q0 40 -25 63t-67 23q-54 0 -75.5 -27t-21.5 -71v-201q0 -42 -20 -63.5t-68 -21.5q-38 0 -60.5 17.5t-22.5 49.5v358z" />
    <glyph glyph-name="n" unicode="n" horiz-adv-x="679" 
d="M63 344q0 19 7 33t19 23t27.5 13.5t31.5 4.5q21 0 38 -6.5t32 -29.5q24 21 60 31t75 10q55 0 102.5 -14t83 -41t56.5 -66.5t21 -90.5v-208q0 -42 -18.5 -63.5t-68.5 -21.5q-38 0 -60.5 17.5t-22.5 49.5v231q0 40 -30 63t-75 23t-74 -21.5t-34 -62.5q-1 -3 -1 -6.5v-6.5
v-202q0 -42 -19.5 -63.5t-68.5 -21.5q-37 0 -59 17.5t-22 49.5v359z" />
    <glyph glyph-name="o" unicode="o" horiz-adv-x="647" 
d="M323 423q53 0 101.5 -15t86.5 -42t62.5 -65t28.5 -85q2 -25 2 -49t-2 -48q-3 -47 -26 -85t-60.5 -65t-87 -42t-105.5 -15t-104.5 15t-86 42.5t-60.5 65.5t-27 84q-3 49 0 97q4 47 26.5 85.5t59.5 65.5t86 41.5t106 14.5zM434 218q-3 42 -33 63t-78 21q-44 0 -74.5 -22.5
t-35.5 -61.5q-6 -52 0 -100q0 -42 31.5 -64.5t78.5 -22.5q46 0 76 22.5t35 64.5q3 26 2.5 51.5t-2.5 48.5z" />
    <glyph glyph-name="p" unicode="p" horiz-adv-x="665" 
d="M341 423q55 0 104 -13.5t86.5 -39.5t60 -65t24.5 -90q1 -26 0.5 -49t-0.5 -46q0 -48 -22.5 -86.5t-60 -65.5t-87.5 -41.5t-105 -14.5q-32 0 -59.5 6t-50.5 17v-154q0 -41 -19 -61.5t-68 -20.5q-37 0 -59 16t-22 51v577q0 19 7 33t19 23t27 13.5t31 4.5q21 0 39.5 -6.5
t29.5 -24.5q26 16 56.5 26.5t68.5 10.5zM446 221q-3 42 -31.5 61.5t-73.5 19.5t-73.5 -22.5t-34.5 -61.5q-1 -32 -1 -50v-28.5t0.5 -14.5t0.5 -7q0 -42 31 -64.5t77 -22.5q44 0 72.5 22.5t32.5 64.5q3 26 2.5 51.5t-2.5 51.5z" />
    <glyph glyph-name="q" unicode="q" horiz-adv-x="666" 
d="M321 423q75 0 125 -38q11 17 31 24.5t40 7.5q16 0 31.5 -4.5t27.5 -13.5t19.5 -23t7.5 -33v-577q0 -35 -23 -51t-60 -16q-50 0 -68 20.5t-18 61.5v153q-50 -22 -113 -22q-54 0 -104 15t-88 42t-60.5 65t-23.5 85q-2 25 -2 49t2 48q5 47 29 85t61 65t85 42t101 15z
M213 221q-4 -56 0 -104q3 -41 32.5 -63.5t75.5 -22.5q47 0 75.5 19.5t33.5 67.5q2 26 3 51t-3 49q-6 41 -34 62.5t-75 21.5q-46 0 -75.5 -21t-32.5 -60z" />
    <glyph glyph-name="r" unicode="r" horiz-adv-x="494" 
d="M231 196v-193q0 -42 -18.5 -63.5t-68.5 -21.5q-37 0 -59 17.5t-22 49.5v359q0 19 7 33t19 23t27 13.5t31 4.5q22 0 41 -7.5t30 -29.5q26 22 60 32t73 10h58q33 0 56 -14t23 -47q0 -34 -22 -47t-56 -13h-52q-23 0 -45.5 -5t-40.5 -17t-29.5 -32.5t-11.5 -51.5z" />
    <glyph glyph-name="s" unicode="s" horiz-adv-x="530" 
d="M255 20q47 0 62.5 12t15.5 26q0 15 -12 25.5t-28 18t-33 11.5t-27 6q-35 9 -69.5 18.5t-62 26t-45 41t-17.5 63.5q0 27 12.5 55t40 50t72.5 36t110 14q48 0 91 -7.5t71 -21.5q30 -15 34.5 -37t-5.5 -45q-19 -43 -91 -21q-20 6 -43 12.5t-56 6.5q-22 0 -35.5 -3.5
t-21 -8.5t-10.5 -12t-3 -14q0 -20 28 -29.5t73 -20.5q33 -8 67 -19t61.5 -29t44.5 -45.5t17 -67.5q0 -69 -61.5 -109t-178.5 -40q-72 0 -120 13t-78 35q-25 17 -28 38.5t10 41.5q15 23 40.5 26t48.5 -8q26 -14 54.5 -26t71.5 -12z" />
    <glyph glyph-name="t" unicode="t" horiz-adv-x="482" 
d="M160 590q0 39 26 57t59 18t59.5 -18t26.5 -57v-167h91q21 0 34 -5t21 -13.5t11 -20t3 -24.5q0 -10 -2.5 -20t-10 -18.5t-21 -14t-35.5 -5.5h-91v-308q0 -40 -26.5 -58t-59.5 -18t-59 18t-26 58v308h-100q-40 0 -54.5 18.5t-14.5 41.5q0 12 3 23t10.5 19.5t21 13.5t34.5 5
h100v167z" />
    <glyph glyph-name="u" unicode="u" horiz-adv-x="679" 
d="M616 -6q0 -40 -26 -58t-60 -18q-20 0 -39 8t-30 27q-54 -41 -132 -41q-56 0 -104.5 14t-84 40.5t-56.5 65.5t-21 90v218q0 41 17.5 62t67.5 21q38 0 60.5 -17t22.5 -50v-238q0 -40 30 -63.5t75 -23.5q22 0 42 6t35 17.5t24 28t9 38.5v219q0 41 19.5 62t67.5 21
q38 0 60.5 -17t22.5 -50v-362z" />
    <glyph glyph-name="v" unicode="v" horiz-adv-x="571" 
d="M12 330q-11 24 -1.5 50t47.5 40q33 12 62.5 1t43.5 -43l122 -273q14 33 30 70t33 74.5t33.5 74.5t30.5 69q3 7 10.5 14.5t19 13t27.5 6.5t37 -5q34 -10 48.5 -37t1.5 -56l-162 -350q-4 -10 -13 -21.5t-22.5 -21.5t-32 -16.5t-41.5 -6.5q-26 0 -45 7t-32 17t-21.5 21.5
t-12.5 20.5z" />
    <glyph glyph-name="w" unicode="w" horiz-adv-x="883" 
d="M16 332q-10 24 2.5 50.5t47.5 37.5t62.5 0t39.5 -43l96 -269l96 273q8 22 29 34t51 11q34 -1 52.5 -14.5t26.5 -34.5l97 -270l93 270q4 11 11 21t19 17t29 9.5t40 -2.5q15 -3 27.5 -11t21 -19t11 -25t-3.5 -29l-139 -359q-4 -10 -13 -21.5t-22.5 -21.5t-32.5 -16.5
t-42 -6.5q-26 0 -45 6.5t-32 16.5t-21 21.5t-11 21.5l-68 192l-64 -192q-3 -10 -11 -21.5t-21.5 -21.5t-33 -16.5t-44.5 -6.5t-43.5 7t-31.5 17t-21 21.5t-12 20.5z" />
    <glyph glyph-name="x" unicode="x" horiz-adv-x="513" 
d="M359 402q12 13 26 19.5t29 6.5t28.5 -4.5t23.5 -11.5q24 -18 31 -48t-18 -59l-121 -135l123 -137q25 -29 18 -59t-31 -48q-10 -8 -23.5 -12t-28.5 -4t-29 6t-26 20l-106 119l-103 -115q-22 -25 -51.5 -28.5t-58.5 16.5t-32.5 49.5t18.5 54.5l124 138l-123 138
q-22 25 -18.5 54.5t32.5 49.5t58.5 16.5t51.5 -28.5l102 -114z" />
    <glyph glyph-name="y" unicode="y" horiz-adv-x="610" 
d="M289 -264q-9 -17 -20.5 -26.5t-24 -13.5t-26.5 -2t-27 7q-33 14 -43 38.5t4 54.5l66 140l-202 393q-14 26 -3.5 52.5t46.5 40.5q37 14 66 2t43 -44q19 -39 36 -73t33.5 -66.5t33.5 -66t36 -72.5l138 287q3 7 10.5 15.5t20 14t30 6.5t40.5 -6q30 -10 45.5 -35t1.5 -53z
" />
    <glyph glyph-name="z" unicode="z" horiz-adv-x="555" 
d="M278 296h-182q-41 0 -57.5 17.5t-16.5 42.5q0 11 3 21.5t11.5 19t22.5 14t37 5.5h347q40 0 56.5 -15t16.5 -39q0 -8 -2 -17t-10 -18l-253 -287h218q42 0 58.5 -18.5t16.5 -42.5q0 -11 -3.5 -21.5t-11.5 -19.5t-23 -14.5t-37 -5.5h-400q-26 0 -39.5 10.5t-18 24.5
t-0.5 29.5t12 24.5z" />
    <glyph glyph-name="braceleft" unicode="{" horiz-adv-x="453" 
d="M249 45q0 -32 25 -50t67 -18h24q34 0 54 -13t20 -48q0 -32 -20.5 -46t-55.5 -14h-48q-106 0 -162 55t-56 146v167q0 7 -9.5 11.5t-20.5 8.5q-25 5 -44 15t-19 39q0 26 19 36t42 16q11 2 21.5 7.5t10.5 14.5v149q0 93 56 147t162 54h46q35 0 56.5 -13.5t21.5 -46.5
q0 -37 -21 -48.5t-55 -11.5h-22q-42 0 -67 -19.5t-25 -51.5v-160q0 -26 -20.5 -43.5t-41.5 -30.5q22 -11 42 -29t20 -44v-179z" />
    <glyph glyph-name="bar" unicode="|" horiz-adv-x="320" 
d="M246 -16q0 -24 -7 -40t-19 -26.5t-27.5 -15t-31.5 -4.5q-34 0 -61 19.5t-27 66.5v645q0 46 27 65.5t61 19.5q16 0 31.5 -4.5t27.5 -14.5t19 -26.5t7 -39.5v-645z" />
    <glyph glyph-name="braceright" unicode="}" horiz-adv-x="463" 
d="M204 224q0 26 20 44t42 29q-21 13 -41.5 30.5t-20.5 43.5v160q0 32 -25 51.5t-67 19.5h-22q-34 0 -55 11.5t-21 48.5q0 33 21.5 46.5t56.5 13.5h46q106 0 162 -54t56 -147v-149q0 -9 10.5 -14.5t21.5 -7.5q23 -6 42 -16t19 -36q0 -29 -19 -39t-44 -15q-11 -4 -20.5 -8.5
t-9.5 -11.5v-167q0 -91 -56 -146t-162 -55h-48q-35 0 -55.5 14t-20.5 46q0 35 20 48t54 13h24q42 0 67 18t25 50v179z" />
    <glyph glyph-name="asciitilde" unicode="~" horiz-adv-x="619" 
d="M222 252q-24 0 -44.5 -8t-34.5 -15q-23 -13 -50 -16.5t-44 12.5q-20 19 -22.5 44t15.5 43q13 12 32.5 20.5t41.5 14.5t43 9t37 3q33 0 58 -6.5t47 -14.5t45 -14.5t52 -6.5q25 0 43 7t41 18q32 14 52 9t34 -19q16 -16 16.5 -38.5t-14.5 -39.5q-13 -14 -33 -23.5t-42 -14.5
t-42 -7t-33 -2q-28 0 -52.5 7t-48 15.5t-47 15.5t-50.5 7z" />
    <glyph glyph-name="cid208" unicode="&#xa1;" 
 />
    <glyph glyph-name="cent" unicode="&#xa2;" horiz-adv-x="576" 
d="M269 639q0 32 20 45.5t49 13.5t49 -13.5t20 -45.5v-90q35 -6 62 -15.5t43 -20.5q25 -17 26.5 -40.5t-12.5 -44.5t-41.5 -22.5t-49.5 9.5q-13 5 -28 9v-251q21 7 35 14q30 14 55 9t39 -27q12 -18 11 -40.5t-20 -38.5q-15 -13 -46.5 -24t-73.5 -17v-96q0 -38 -20 -52
t-49 -14t-49 14t-20 52v92q-57 6 -98 23.5t-68 44t-41 60t-17 72.5q-3 51 0 101q2 39 15.5 74t40.5 62.5t68.5 46t99.5 24.5v86zM202 344q-3 -47 0 -93q5 -61 67 -80v254q-64 -20 -67 -81z" />
    <glyph glyph-name="cid144" unicode="&#xa3;" horiz-adv-x="700" 
d="M143 -59q-40 0 -58 26t-18 59q0 16 4.5 31.5t13.5 27.5t23.5 19t34.5 7q21 0 32.5 13.5t11.5 33.5v75h-47q-41 0 -58 18.5t-17 41.5t16 42t59 19h47v76q0 45 18 81.5t49 62t73 39.5t91 14h91q32 0 53 -13.5t21 -45.5q0 -35 -20 -47t-53 -12h-67q-39 0 -62.5 -19
t-23.5 -52v-84h161q42 0 58.5 -18.5t16.5 -44.5q0 -10 -3.5 -20t-12 -18.5t-23 -14t-36.5 -5.5h-161v-79q0 -12 -0.5 -24.5t-5.5 -24.5t-17 -23t-34 -20h296q42 0 58.5 -18.5t16.5 -44.5q0 -10 -3.5 -20t-12 -18.5t-23 -14t-36.5 -5.5h-453z" />
    <glyph glyph-name="cid214" unicode="&#xa4;" 
 />
    <glyph glyph-name="yen" unicode="&#xa5;" horiz-adv-x="717" 
d="M140 37q-44 0 -61 17.5t-17 43.5q0 22 15.5 41t62.5 19h128v62h-128q-44 0 -61 17.5t-17 43.5q0 22 15.5 41t62.5 19h46l-165 231q-16 23 -9.5 50.5t33.5 45.5q13 8 28 12t29.5 3.5t27 -7t21.5 -18.5l203 -295l199 290q17 26 46 28t59 -13q13 -6 23 -17t15 -23.5t4 -27
t-11 -28.5l-166 -231h49q44 0 60 -18.5t16 -43.5q0 -23 -14.5 -41t-61.5 -18h-131v-62h131q44 0 60 -18.5t16 -43.5q0 -23 -14.5 -41t-61.5 -18h-131v-42q0 -20 -7.5 -34.5t-20 -24t-28 -14t-31.5 -4.5t-31.5 4.5t-27.5 14t-19.5 24t-7.5 34.5v42h-128z" />
    <glyph glyph-name="cid155" unicode="&#xa7;" 
 />
    <glyph glyph-name="cid107" unicode="&#xa8;" 
 />
    <glyph glyph-name="cid98" unicode="&#xa9;" 
 />
    <glyph glyph-name="cid668" unicode="&#xaa;" 
 />
    <glyph glyph-name="cid176" unicode="&#xab;" 
 />
    <glyph glyph-name="cid176" unicode="&#x226a;" 
 />
    <glyph glyph-name="cid194" unicode="&#xac;" 
 />
    <glyph glyph-name="cid194" unicode="&#xffe2;" 
 />
    <glyph glyph-name="cid109" unicode="&#xad;" 
 />
    <glyph glyph-name="cid109" unicode="&#x2013;" 
 />
    <glyph glyph-name="cid138" unicode="&#xb0;" 
 />
    <glyph glyph-name="cid130" unicode="&#xb1;" 
 />
    <glyph glyph-name="cid843" unicode="&#xb2;" 
 />
    <glyph glyph-name="cid844" unicode="&#xb3;" 
 />
    <glyph glyph-name="cid199" unicode="&#xb4;" 
 />
    <glyph glyph-name="cid244" unicode="&#xb6;" 
 />
    <glyph glyph-name="cid104" unicode="&#xb7;" horiz-adv-x="309" 
d="M58 350q0 42 28.5 64t70.5 22t71 -22t29 -64t-29 -63.5t-71 -21.5t-70.5 21.5t-28.5 63.5z" />
    <glyph glyph-name="cid104" unicode="&#x30fb;" horiz-adv-x="309" 
d="M58 350q0 42 28.5 64t70.5 22t71 -22t29 -64t-29 -63.5t-71 -21.5t-70.5 21.5t-28.5 63.5z" />
    <glyph glyph-name="cid206" unicode="&#xb8;" 
 />
    <glyph glyph-name="cid842" unicode="&#xb9;" 
 />
    <glyph glyph-name="cid675" unicode="&#xba;" 
 />
    <glyph glyph-name="cid177" unicode="&#xbb;" 
 />
    <glyph glyph-name="cid177" unicode="&#x226b;" 
 />
    <glyph glyph-name="cid751" unicode="&#xbc;" 
 />
    <glyph glyph-name="cid748" unicode="&#xbd;" 
 />
    <glyph glyph-name="cid752" unicode="&#xbe;" 
 />
    <glyph glyph-name="cid209" unicode="&#xbf;" 
 />
    <glyph glyph-name="cid666" unicode="&#xc6;" 
 />
    <glyph glyph-name="cid667" unicode="&#xd0;" 
 />
    <glyph glyph-name="cid131" unicode="&#xd7;" 
 />
    <glyph glyph-name="cid673" unicode="&#xd8;" 
 />
    <glyph glyph-name="cid676" unicode="&#xde;" 
 />
    <glyph glyph-name="cid768" unicode="&#xdf;" 
 />
    <glyph glyph-name="cid757" unicode="&#xe6;" 
 />
    <glyph glyph-name="cid759" unicode="&#xf0;" 
 />
    <glyph glyph-name="cid132" unicode="&#xf7;" 
 />
    <glyph glyph-name="cid766" unicode="&#xf8;" 
 />
    <glyph glyph-name="cid769" unicode="&#xfe;" 
 />
    <glyph glyph-name="cid758" unicode="&#x111;" 
 />
    <glyph glyph-name="cid669" unicode="&#x126;" 
 />
    <glyph glyph-name="cid760" unicode="&#x127;" 
 />
    <glyph glyph-name="cid761" unicode="&#x131;" 
 />
    <glyph glyph-name="cid670" unicode="&#x132;" 
 />
    <glyph glyph-name="cid762" unicode="&#x133;" 
 />
    <glyph glyph-name="cid763" unicode="&#x138;" 
 />
    <glyph glyph-name="cid671" unicode="&#x13f;" 
 />
    <glyph glyph-name="cid764" unicode="&#x140;" 
 />
    <glyph glyph-name="cid672" unicode="&#x141;" 
 />
    <glyph glyph-name="cid765" unicode="&#x142;" 
 />
    <glyph glyph-name="cid772" unicode="&#x149;" 
 />
    <glyph glyph-name="cid678" unicode="&#x14a;" 
 />
    <glyph glyph-name="cid771" unicode="&#x14b;" 
 />
    <glyph glyph-name="cid674" unicode="&#x152;" 
 />
    <glyph glyph-name="cid767" unicode="&#x153;" 
 />
    <glyph glyph-name="cid677" unicode="&#x166;" 
 />
    <glyph glyph-name="cid770" unicode="&#x167;" 
 />
    <glyph glyph-name="cid8275" unicode="&#x2bc;" 
 />
    <glyph glyph-name="cid201" unicode="&#x2c7;" 
 />
    <glyph glyph-name="cid210" unicode="&#x2d0;" 
 />
    <glyph glyph-name="cid210" unicode="&#x2236;" 
 />
    <glyph glyph-name="cid202" unicode="&#x2d8;" 
 />
    <glyph glyph-name="cid205" unicode="&#x2d9;" 
 />
    <glyph glyph-name="cid204" unicode="&#x2da;" 
 />
    <glyph glyph-name="cid207" unicode="&#x2db;" 
 />
    <glyph glyph-name="cid200" unicode="&#x2dc;" 
 />
    <glyph glyph-name="cid203" unicode="&#x2dd;" 
 />
    <glyph glyph-name="cid471" unicode="&#x391;" 
 />
    <glyph glyph-name="cid472" unicode="&#x392;" 
 />
    <glyph glyph-name="cid473" unicode="&#x393;" 
 />
    <glyph glyph-name="cid474" unicode="&#x394;" 
 />
    <glyph glyph-name="cid475" unicode="&#x395;" 
 />
    <glyph glyph-name="cid476" unicode="&#x396;" 
 />
    <glyph glyph-name="cid477" unicode="&#x397;" 
 />
    <glyph glyph-name="cid478" unicode="&#x398;" 
 />
    <glyph glyph-name="cid479" unicode="&#x399;" 
 />
    <glyph glyph-name="cid480" unicode="&#x39a;" 
 />
    <glyph glyph-name="cid481" unicode="&#x39b;" 
 />
    <glyph glyph-name="cid482" unicode="&#x39c;" 
 />
    <glyph glyph-name="cid483" unicode="&#x39d;" 
 />
    <glyph glyph-name="cid484" unicode="&#x39e;" 
 />
    <glyph glyph-name="cid485" unicode="&#x39f;" 
 />
    <glyph glyph-name="cid486" unicode="&#x3a0;" 
 />
    <glyph glyph-name="cid487" unicode="&#x3a1;" 
 />
    <glyph glyph-name="cid488" unicode="&#x3a3;" 
 />
    <glyph glyph-name="cid489" unicode="&#x3a4;" 
 />
    <glyph glyph-name="cid490" unicode="&#x3a5;" 
 />
    <glyph glyph-name="cid491" unicode="&#x3a6;" 
 />
    <glyph glyph-name="cid492" unicode="&#x3a7;" 
 />
    <glyph glyph-name="cid493" unicode="&#x3a8;" 
 />
    <glyph glyph-name="cid494" unicode="&#x3a9;" 
 />
    <glyph glyph-name="cid495" unicode="&#x3b1;" 
 />
    <glyph glyph-name="cid496" unicode="&#x3b2;" 
 />
    <glyph glyph-name="cid497" unicode="&#x3b3;" 
 />
    <glyph glyph-name="cid498" unicode="&#x3b4;" 
 />
    <glyph glyph-name="cid499" unicode="&#x3b5;" 
 />
    <glyph glyph-name="cid500" unicode="&#x3b6;" 
 />
    <glyph glyph-name="cid501" unicode="&#x3b7;" 
 />
    <glyph glyph-name="cid502" unicode="&#x3b8;" 
 />
    <glyph glyph-name="cid503" unicode="&#x3b9;" 
 />
    <glyph glyph-name="cid504" unicode="&#x3ba;" 
 />
    <glyph glyph-name="cid505" unicode="&#x3bb;" 
 />
    <glyph glyph-name="cid506" unicode="&#x3bc;" 
 />
    <glyph glyph-name="cid507" unicode="&#x3bd;" 
 />
    <glyph glyph-name="cid508" unicode="&#x3be;" 
 />
    <glyph glyph-name="cid509" unicode="&#x3bf;" 
 />
    <glyph glyph-name="cid510" unicode="&#x3c0;" 
 />
    <glyph glyph-name="cid511" unicode="&#x3c1;" 
 />
    <glyph glyph-name="cid512" unicode="&#x3c3;" 
 />
    <glyph glyph-name="cid513" unicode="&#x3c4;" 
 />
    <glyph glyph-name="cid514" unicode="&#x3c5;" 
 />
    <glyph glyph-name="cid515" unicode="&#x3c6;" 
 />
    <glyph glyph-name="cid516" unicode="&#x3c7;" 
 />
    <glyph glyph-name="cid517" unicode="&#x3c8;" 
 />
    <glyph glyph-name="cid518" unicode="&#x3c9;" 
 />
    <glyph glyph-name="cid1026" unicode="&#x401;" 
 />
    <glyph glyph-name="cid1020" unicode="&#x410;" 
 />
    <glyph glyph-name="cid1021" unicode="&#x411;" 
 />
    <glyph glyph-name="cid1022" unicode="&#x412;" 
 />
    <glyph glyph-name="cid1023" unicode="&#x413;" 
 />
    <glyph glyph-name="cid1024" unicode="&#x414;" 
 />
    <glyph glyph-name="cid1025" unicode="&#x415;" 
 />
    <glyph glyph-name="cid1027" unicode="&#x416;" 
 />
    <glyph glyph-name="cid1028" unicode="&#x417;" 
 />
    <glyph glyph-name="cid1029" unicode="&#x418;" 
 />
    <glyph glyph-name="cid1030" unicode="&#x419;" 
 />
    <glyph glyph-name="cid1031" unicode="&#x41a;" 
 />
    <glyph glyph-name="cid1032" unicode="&#x41b;" 
 />
    <glyph glyph-name="cid1033" unicode="&#x41c;" 
 />
    <glyph glyph-name="cid1034" unicode="&#x41d;" 
 />
    <glyph glyph-name="cid1035" unicode="&#x41e;" 
 />
    <glyph glyph-name="cid1036" unicode="&#x41f;" 
 />
    <glyph glyph-name="cid1037" unicode="&#x420;" 
 />
    <glyph glyph-name="cid1038" unicode="&#x421;" 
 />
    <glyph glyph-name="cid1039" unicode="&#x422;" 
 />
    <glyph glyph-name="cid1040" unicode="&#x423;" 
 />
    <glyph glyph-name="cid1041" unicode="&#x424;" 
 />
    <glyph glyph-name="cid1042" unicode="&#x425;" 
 />
    <glyph glyph-name="cid1043" unicode="&#x426;" 
 />
    <glyph glyph-name="cid1044" unicode="&#x427;" 
 />
    <glyph glyph-name="cid1045" unicode="&#x428;" 
 />
    <glyph glyph-name="cid1046" unicode="&#x429;" 
 />
    <glyph glyph-name="cid1047" unicode="&#x42a;" 
 />
    <glyph glyph-name="cid1048" unicode="&#x42b;" 
 />
    <glyph glyph-name="cid1049" unicode="&#x42c;" 
 />
    <glyph glyph-name="cid1050" unicode="&#x42d;" 
 />
    <glyph glyph-name="cid1051" unicode="&#x42e;" 
 />
    <glyph glyph-name="cid1052" unicode="&#x42f;" 
 />
    <glyph glyph-name="cid1053" unicode="&#x430;" 
 />
    <glyph glyph-name="cid1054" unicode="&#x431;" 
 />
    <glyph glyph-name="cid1055" unicode="&#x432;" 
 />
    <glyph glyph-name="cid1056" unicode="&#x433;" 
 />
    <glyph glyph-name="cid1057" unicode="&#x434;" 
 />
    <glyph glyph-name="cid1058" unicode="&#x435;" 
 />
    <glyph glyph-name="cid1060" unicode="&#x436;" 
 />
    <glyph glyph-name="cid1061" unicode="&#x437;" 
 />
    <glyph glyph-name="cid1062" unicode="&#x438;" 
 />
    <glyph glyph-name="cid1063" unicode="&#x439;" 
 />
    <glyph glyph-name="cid1064" unicode="&#x43a;" 
 />
    <glyph glyph-name="cid1065" unicode="&#x43b;" 
 />
    <glyph glyph-name="cid1066" unicode="&#x43c;" 
 />
    <glyph glyph-name="cid1067" unicode="&#x43d;" 
 />
    <glyph glyph-name="cid1068" unicode="&#x43e;" 
 />
    <glyph glyph-name="cid1069" unicode="&#x43f;" 
 />
    <glyph glyph-name="cid1070" unicode="&#x440;" 
 />
    <glyph glyph-name="cid1071" unicode="&#x441;" 
 />
    <glyph glyph-name="cid1072" unicode="&#x442;" 
 />
    <glyph glyph-name="cid1073" unicode="&#x443;" 
 />
    <glyph glyph-name="cid1074" unicode="&#x444;" 
 />
    <glyph glyph-name="cid1075" unicode="&#x445;" 
 />
    <glyph glyph-name="cid1076" unicode="&#x446;" 
 />
    <glyph glyph-name="cid1077" unicode="&#x447;" 
 />
    <glyph glyph-name="cid1078" unicode="&#x448;" 
 />
    <glyph glyph-name="cid1079" unicode="&#x449;" 
 />
    <glyph glyph-name="cid1080" unicode="&#x44a;" 
 />
    <glyph glyph-name="cid1081" unicode="&#x44b;" 
 />
    <glyph glyph-name="cid1082" unicode="&#x44c;" 
 />
    <glyph glyph-name="cid1083" unicode="&#x44d;" 
 />
    <glyph glyph-name="cid1084" unicode="&#x44e;" 
 />
    <glyph glyph-name="cid1085" unicode="&#x44f;" 
 />
    <glyph glyph-name="cid1059" unicode="&#x451;" 
 />
    <glyph glyph-name="uni0E3F" unicode="&#xe3f;" horiz-adv-x="643" 
d="M270 639q0 32 19 45.5t45 13.5t44.5 -13.5t18.5 -45.5v-28q42 -3 79 -13.5t64.5 -30t44 -50.5t16.5 -74q0 -48 -20 -82t-53 -54q18 -7 34.5 -18t29.5 -26.5t20.5 -37t7.5 -49.5v-15q0 -51 -17 -87t-47 -58.5t-71 -33.5t-88 -12v-17q0 -38 -18.5 -52t-44.5 -14t-45 14
t-19 52v17h-124q-33 0 -51.5 16.5t-18.5 42.5v541q0 20 14.5 31t40.5 11h139v27zM482 164v6q0 37 -22 58t-63 26v-178q41 4 63 24t22 64zM221 76h49v179h-49v-179zM221 351h49v157h-49v-157zM462 440q0 29 -17 45t-48 21v-152q32 8 48.5 31t16.5 55z" />
    <glyph glyph-name="cid97" unicode="&#x2010;" 
 />
    <glyph glyph-name="cid110" unicode="&#x2014;" 
 />
    <glyph glyph-name="cid110" unicode="&#x2015;" 
 />
    <glyph glyph-name="cid111" unicode="&#x2016;" 
 />
    <glyph glyph-name="quoteleft" unicode="&#x2018;" horiz-adv-x="293" 
d="M154 467q-47 0 -74 24.5t-27 65.5q0 12 0.5 28t5.5 34.5t16.5 38.5t32.5 40q10 9 23 15.5t26 8.5t25.5 0t21.5 -10q12 -11 11.5 -25t-9.5 -22q-10 -8 -17 -21.5t-9 -31.5q13 0 25.5 -5t23 -14t17 -21.5t6.5 -27.5q0 -30 -22 -53.5t-76 -23.5z" />
    <glyph glyph-name="quoteright" unicode="&#x2019;" horiz-adv-x="293" 
d="M141 723q47 0 74 -24.5t27 -65.5q0 -12 -0.5 -28t-5.5 -34.5t-16.5 -38.5t-32.5 -40q-10 -9 -23 -15.5t-26 -9t-25.5 0t-21.5 10.5q-12 11 -11.5 25t9.5 22q10 8 17 21.5t9 31.5q-13 0 -25.5 5t-23 14t-17 21.5t-6.5 27.5q0 30 22 53.5t76 23.5z" />
    <glyph glyph-name="cid8238" unicode="&#x201b;" 
 />
    <glyph glyph-name="quotedblleft" unicode="&#x201c;" horiz-adv-x="540" 
d="M147 467q-47 0 -74 24.5t-27 65.5q0 12 0.5 28t5.5 34.5t16.5 38.5t32.5 40q10 9 23 15.5t26 8.5t25.5 0t21.5 -10q12 -11 11.5 -25t-9.5 -22q-10 -8 -17 -21.5t-9 -31.5q13 0 25.5 -5t23 -14t17 -21.5t6.5 -27.5q0 -30 -22 -53.5t-76 -23.5zM397 467q-47 0 -74 24.5
t-27 65.5q0 12 0.5 28t5.5 34.5t16.5 38.5t32.5 40q10 9 23 15.5t26 8.5t25.5 0t21.5 -10q12 -11 11.5 -25t-9.5 -22q-10 -8 -17 -21.5t-9 -31.5q13 0 25.5 -5t23 -14t17 -21.5t6.5 -27.5q0 -30 -22 -53.5t-76 -23.5z" />
    <glyph glyph-name="quotedblright" unicode="&#x201d;" horiz-adv-x="540" 
d="M393 723q47 0 74 -24.5t27 -65.5q0 -12 -0.5 -28t-5.5 -34.5t-16.5 -38.5t-32.5 -40q-10 -9 -23 -15.5t-26 -9t-25.5 0t-21.5 10.5q-12 11 -11.5 25t9.5 22q10 8 17 21.5t9 31.5q-13 0 -25.5 5t-23 14t-17 21.5t-6.5 27.5q0 30 22 53.5t76 23.5zM143 723q47 0 74 -24.5
t27 -65.5q0 -12 -0.5 -28t-5.5 -34.5t-16.5 -38.5t-32.5 -40q-10 -9 -23 -15.5t-26 -9t-25.5 0t-21.5 10.5q-12 11 -11.5 25t9.5 22q10 8 17 21.5t9 31.5q-13 0 -25.5 5t-23 14t-17 21.5t-6.5 27.5q0 30 22 53.5t76 23.5z" />
    <glyph glyph-name="cid8237" unicode="&#x201f;" 
 />
    <glyph glyph-name="cid245" unicode="&#x2020;" 
 />
    <glyph glyph-name="cid246" unicode="&#x2021;" 
 />
    <glyph glyph-name="cid8607" unicode="&#x2022;" 
 />
    <glyph glyph-name="twodotenleader" unicode="&#x2025;" horiz-adv-x="586" 
d="M58 350q0 42 28.5 64t70.5 22t71 -22t29 -64t-29 -63.5t-71 -21.5t-70.5 21.5t-28.5 63.5zM330 350q0 42 28.5 64t70.5 22t71 -22t29 -64t-29 -63.5t-71 -21.5t-70.5 21.5t-28.5 63.5z" />
    <glyph glyph-name="ellipsis" unicode="&#x2026;" horiz-adv-x="880" 
d="M58 350q0 42 28.5 64t70.5 22t71 -22t29 -64t-29 -63.5t-71 -21.5t-70.5 21.5t-28.5 63.5zM337 350q0 42 28.5 64t70.5 22t71 -22t29 -64t-29 -63.5t-71 -21.5t-70.5 21.5t-28.5 63.5zM621 350q0 42 28.5 64t70.5 22t71 -22t29 -64t-29 -63.5t-71 -21.5t-70.5 21.5
t-28.5 63.5z" />
    <glyph glyph-name="cid216" unicode="&#x2030;" 
 />
    <glyph glyph-name="cid139" unicode="&#x2032;" 
 />
    <glyph glyph-name="cid140" unicode="&#x2033;" 
 />
    <glyph glyph-name="cid8582" unicode="&#x2034;" 
 />
    <glyph glyph-name="cid9326" unicode="&#x2035;" 
 />
    <glyph glyph-name="cid9324" unicode="&#x2036;" 
 />
    <glyph glyph-name="cid8612" unicode="&#x2039;" 
 />
    <glyph glyph-name="cid8613" unicode="&#x203a;" 
 />
    <glyph glyph-name="cid156" unicode="&#x203b;" 
 />
    <glyph glyph-name="cid8763" unicode="&#x203c;" 
 />
    <glyph glyph-name="cid357" unicode="&#x203e;" 
 />
    <glyph glyph-name="cid8599" unicode="&#x2042;" 
 />
    <glyph glyph-name="cid845" unicode="&#x2074;" 
 />
    <glyph glyph-name="cid8239" unicode="&#x207a;" 
 />
    <glyph glyph-name="cid8240" unicode="&#x207b;" 
 />
    <glyph glyph-name="cid8248" unicode="&#x207c;" 
 />
    <glyph glyph-name="cid8250" unicode="&#x207d;" 
 />
    <glyph glyph-name="cid8251" unicode="&#x207e;" 
 />
    <glyph glyph-name="cid846" unicode="&#x207f;" 
 />
    <glyph glyph-name="cid847" unicode="&#x2081;" 
 />
    <glyph glyph-name="cid848" unicode="&#x2082;" 
 />
    <glyph glyph-name="cid849" unicode="&#x2083;" 
 />
    <glyph glyph-name="cid850" unicode="&#x2084;" 
 />
    <glyph glyph-name="dong" unicode="&#x20ab;" horiz-adv-x="677" 
d="M203 474q-44 0 -61 17.5t-17 43.5q0 22 15.5 41t62.5 19h191v21q0 38 23 55.5t51 17.5q29 0 52.5 -17.5t23.5 -55.5v-21h21q44 0 60 -18.5t16 -43.5q0 -23 -14.5 -41t-61.5 -18h-21v-389q0 -32 -20.5 -49.5t-53.5 -17.5q-25 0 -42 8.5t-28 28.5q-21 -20 -47 -31.5
t-58 -11.5q-54 0 -98.5 15t-76.5 42t-50 65t-19 85v8q4 51 24 89.5t52 65t74.5 39.5t93.5 13q29 0 53.5 -6t45.5 -15v61h-191zM143 -140q-44 0 -61 17.5t-17 43.5q0 22 15.5 41t62.5 19h382q44 0 60 -18.5t16 -43.5q0 -23 -14.5 -41t-61.5 -18h-382zM201 218
q4 -42 29.5 -64.5t64.5 -22.5q42 0 69.5 22.5t27.5 64.5v11q0 41 -27.5 62.5t-69.5 21.5q-39 0 -64.5 -17.5t-29.5 -57.5v-20z" />
    <glyph glyph-name="Euro" unicode="&#x20ac;" horiz-adv-x="721" 
d="M88 151q-38 0 -52 15t-14 37q0 10 3 19.5t10.5 17t20 12t32.5 4.5h66v69h-66q-38 0 -52 15.5t-14 36.5q0 10 3 19.5t10.5 17t20 12t32.5 4.5h67q0 2 0.5 5t0.5 6q1 61 23 105t57 72t81 41t97 13q57 0 96.5 -10t67 -27.5t44.5 -41t28 -51.5q13 -34 4.5 -58t-43.5 -36
q-28 -9 -50 -0.5t-32 33.5q-7 17 -15.5 30t-21 22t-30.5 13.5t-44 4.5q-105 0 -108 -113q0 -2 -0.5 -4t-0.5 -4h128q38 0 51.5 -16.5t13.5 -37.5q0 -9 -2.5 -18.5t-10 -16.5t-20 -11.5t-32.5 -4.5h-130v-34.5t1 -34.5h135q38 0 51.5 -16.5t13.5 -37.5q0 -20 -12.5 -35.5
t-52.5 -15.5h-133q2 -56 31 -81.5t82 -25.5q27 0 46.5 7t33.5 18t22.5 25t12.5 29q6 23 28.5 34t49.5 5q34 -10 43.5 -33t0.5 -59q-8 -31 -25 -57.5t-45 -46.5t-69 -31.5t-98 -11.5q-54 0 -102 12.5t-84 39.5t-57.5 70.5t-23.5 105.5h-68z" />
    <glyph glyph-name="uni20AD" unicode="&#x20ad;" horiz-adv-x="697" 
d="M97 220q-44 0 -61 17.5t-17 43.5q0 22 15.5 41t62.5 19h36v200q0 35 25 52t55 17q29 0 52.5 -17t23.5 -52v-165l206 201q10 10 24 15t28.5 5.5t28 -3.5t22.5 -13q20 -18 21 -44.5t-19 -46.5l-165 -149h154q44 0 60 -18.5t16 -43.5q0 -23 -14.5 -41t-61.5 -18h-146
l169 -167q27 -26 27.5 -57t-24.5 -50q-26 -18 -54 -14.5t-48 23.5l-224 231v-190q0 -37 -23.5 -53.5t-52.5 -16.5q-30 0 -55 16.5t-25 53.5v224h-36z" />
    <glyph glyph-name="uni20B1" unicode="&#x20b1;" horiz-adv-x="720" 
d="M91 243q-22 0 -35.5 4t-20.5 10.5t-9.5 15.5t-2.5 20q0 9 2 18t8.5 16t20 11.5t37.5 4.5h41v50h-41q-22 0 -35.5 4t-20.5 10.5t-9.5 15.5t-2.5 20q0 9 2 18t8.5 16t20 11.5t37.5 4.5h41v120q0 26 20 39.5t52 13.5h126q109 0 179 -39.5t87 -133.5h38q22 0 35 -4t20 -11
t9 -16.5t2 -19.5q0 -9 -1.5 -18t-8 -16t-19.5 -11t-37 -4h-32v-50h32q22 0 35 -4t20 -11t9 -16.5t2 -19.5q0 -9 -1.5 -18t-8 -16t-19.5 -11t-37 -4h-41q-20 -84 -85.5 -120t-169.5 -36h-52v-102q0 -41 -21.5 -59t-53.5 -18q-35 0 -57 18t-22 59v258h-41zM286 343h163v50
h-163v-50zM286 553v-60h155q-12 32 -41 46t-77 14h-37zM338 191q79 0 101 52h-153v-52h52z" />
    <glyph glyph-name="uni20B9" unicode="&#x20b9;" horiz-adv-x="720" 
d="M140 346q-22 0 -35.5 4t-20.5 11.5t-9.5 16.5t-2.5 20q0 9 2 18t8.5 16.5t20 12t37.5 4.5h221q-14 37 -43 61t-71 24h-110q-32 0 -46 14.5t-14 37.5t14 36.5t46 13.5h2q5 0 10 0.5t11 0.5h443q22 0 35 -4t20 -11t9 -16.5t2 -19.5q0 -9 -1.5 -18t-8 -16t-19.5 -11t-37 -4
h-126q27 -37 38 -88h79q22 0 35 -4.5t20 -11.5t9 -16.5t2 -19.5q0 -9 -1.5 -18.5t-8 -16.5t-19.5 -11.5t-37 -4.5h-78q-7 -35 -24 -67.5t-44.5 -57.5t-65.5 -40.5t-87 -17.5l162 -120q13 -10 23.5 -22.5t15.5 -26t3 -28t-14 -29.5q-13 -17 -28.5 -21.5t-31.5 -1.5t-31 11.5
t-27 17.5l-229 178q-26 20 -40 39.5t-14 42.5t14.5 40.5t41.5 17.5h107q44 0 74.5 23.5t42.5 61.5h-224z" />
    <glyph glyph-name="uni20BA" unicode="&#x20ba;" horiz-adv-x="704" 
d="M112 155q-21 -8 -35 -7t-23.5 7t-15 15.5t-9.5 19.5q-3 8 -4.5 19.5t2 23.5t14.5 23.5t33 19.5l55 17v55l-25 -8q-21 -8 -35 -7t-23.5 7t-15 15.5t-9.5 19.5q-3 8 -4.5 19.5t2 23.5t14.5 23.5t33 19.5l63 20v106q0 37 26 54t58 17t57 -17t25 -54v-53l75 24q21 7 36 4.5
t25 -11t16 -20.5t8 -24q2 -9 2 -19t-5.5 -19t-18 -18t-34.5 -17l-104 -33v-55l83 27q21 7 36 4.5t25 -11t16 -20.5t8 -24q2 -9 2 -19t-5.5 -19t-18 -18t-34.5 -17l-112 -36v-170h75q62 0 95 25.5t33 81.5v79q0 37 26 54t58 17q31 0 56 -17t25 -54v-79q0 -62 -22.5 -105.5
t-62 -70.5t-93 -39t-115.5 -12h-166q-37 0 -56 18.5t-19 50.5v168z" />
    <glyph glyph-name="cid141" unicode="&#x2103;" 
 />
    <glyph glyph-name="cid215" unicode="&#x2109;" 
 />
    <glyph glyph-name="cid590" unicode="&#x2113;" 
 />
    <glyph glyph-name="cid258" unicode="&#x2116;" 
 />
    <glyph glyph-name="cid263" unicode="&#x2121;" 
 />
    <glyph glyph-name="cid260" unicode="&#x2122;" 
 />
    <glyph glyph-name="cid643" unicode="&#x2126;" 
 />
    <glyph glyph-name="cid142" unicode="&#x212b;" 
 />
    <glyph glyph-name="cid749" unicode="&#x2153;" 
 />
    <glyph glyph-name="cid750" unicode="&#x2154;" 
 />
    <glyph glyph-name="cid753" unicode="&#x215b;" 
 />
    <glyph glyph-name="cid754" unicode="&#x215c;" 
 />
    <glyph glyph-name="cid755" unicode="&#x215d;" 
 />
    <glyph glyph-name="cid756" unicode="&#x215e;" 
 />
    <glyph glyph-name="cid461" unicode="&#x2160;" 
 />
    <glyph glyph-name="cid462" unicode="&#x2161;" 
 />
    <glyph glyph-name="cid463" unicode="&#x2162;" 
 />
    <glyph glyph-name="cid464" unicode="&#x2163;" 
 />
    <glyph glyph-name="cid465" unicode="&#x2164;" 
 />
    <glyph glyph-name="cid466" unicode="&#x2165;" 
 />
    <glyph glyph-name="cid467" unicode="&#x2166;" 
 />
    <glyph glyph-name="cid468" unicode="&#x2167;" 
 />
    <glyph glyph-name="cid469" unicode="&#x2168;" 
 />
    <glyph glyph-name="cid470" unicode="&#x2169;" 
 />
    <glyph glyph-name="cid451" unicode="&#x2170;" 
 />
    <glyph glyph-name="cid452" unicode="&#x2171;" 
 />
    <glyph glyph-name="cid453" unicode="&#x2172;" 
 />
    <glyph glyph-name="cid454" unicode="&#x2173;" 
 />
    <glyph glyph-name="cid455" unicode="&#x2174;" 
 />
    <glyph glyph-name="cid456" unicode="&#x2175;" 
 />
    <glyph glyph-name="cid457" unicode="&#x2176;" 
 />
    <glyph glyph-name="cid458" unicode="&#x2177;" 
 />
    <glyph glyph-name="cid459" unicode="&#x2178;" 
 />
    <glyph glyph-name="cid460" unicode="&#x2179;" 
 />
    <glyph glyph-name="cid171" unicode="&#x2190;" 
 />
    <glyph glyph-name="cid172" unicode="&#x2191;" 
 />
    <glyph glyph-name="cid170" unicode="&#x2192;" 
 />
    <glyph glyph-name="cid173" unicode="&#x2193;" 
 />
    <glyph glyph-name="cid174" unicode="&#x2194;" 
 />
    <glyph glyph-name="cid247" unicode="&#x2195;" 
 />
    <glyph glyph-name="cid250" unicode="&#x2196;" 
 />
    <glyph glyph-name="cid248" unicode="&#x2197;" 
 />
    <glyph glyph-name="cid251" unicode="&#x2198;" 
 />
    <glyph glyph-name="cid249" unicode="&#x2199;" 
 />
    <glyph glyph-name="cid8868" unicode="&#x21b0;" 
 />
    <glyph glyph-name="cid8865" unicode="&#x21b1;" 
 />
    <glyph glyph-name="cid8864" unicode="&#x21b2;" 
 />
    <glyph glyph-name="cid8869" unicode="&#x21b3;" 
 />
    <glyph glyph-name="cid8867" unicode="&#x21b4;" 
 />
    <glyph glyph-name="cid8884" unicode="&#x21bc;" 
 />
    <glyph glyph-name="cid8885" unicode="&#x21c0;" 
 />
    <glyph glyph-name="cid8896" unicode="&#x21c4;" 
 />
    <glyph glyph-name="cid8897" unicode="&#x21c5;" 
 />
    <glyph glyph-name="cid8816" unicode="&#x21cd;" 
 />
    <glyph glyph-name="cid8815" unicode="&#x21cf;" 
 />
    <glyph glyph-name="cid8814" unicode="&#x21d0;" 
 />
    <glyph glyph-name="cid8854" unicode="&#x21d1;" 
 />
    <glyph glyph-name="cid8854" unicode="&#x2963;" 
 />
    <glyph glyph-name="cid195" unicode="&#x21d2;" 
 />
    <glyph glyph-name="cid8855" unicode="&#x21d3;" 
 />
    <glyph glyph-name="cid8855" unicode="&#x2965;" 
 />
    <glyph glyph-name="cid196" unicode="&#x21d4;" 
 />
    <glyph glyph-name="cid9190" unicode="&#x21e0;" 
 />
    <glyph glyph-name="cid9192" unicode="&#x21e1;" 
 />
    <glyph glyph-name="cid9191" unicode="&#x21e2;" 
 />
    <glyph glyph-name="cid9193" unicode="&#x21e3;" 
 />
    <glyph glyph-name="cid9198" unicode="&#x21e6;" 
 />
    <glyph glyph-name="cid9200" unicode="&#x21e7;" 
 />
    <glyph glyph-name="cid9199" unicode="&#x21e8;" 
 />
    <glyph glyph-name="cid9201" unicode="&#x21e9;" 
 />
    <glyph glyph-name="cid197" unicode="&#x2200;" 
 />
    <glyph glyph-name="cid151" unicode="&#x2202;" 
 />
    <glyph glyph-name="cid198" unicode="&#x2203;" 
 />
    <glyph glyph-name="cid8715" unicode="&#x2206;" 
 />
    <glyph glyph-name="cid152" unicode="&#x2207;" 
 />
    <glyph glyph-name="cid184" unicode="&#x2208;" 
 />
    <glyph glyph-name="cid8749" unicode="&#x2209;" 
 />
    <glyph glyph-name="cid185" unicode="&#x220b;" 
 />
    <glyph glyph-name="cid8750" unicode="&#x220c;" 
 />
    <glyph glyph-name="cid213" unicode="&#x220f;" 
 />
    <glyph glyph-name="cid212" unicode="&#x2211;" 
 />
    <glyph glyph-name="cid8726" unicode="&#x2213;" 
 />
    <glyph glyph-name="cid178" unicode="&#x221a;" 
 />
    <glyph glyph-name="cid180" unicode="&#x221d;" 
 />
    <glyph glyph-name="cid136" unicode="&#x221e;" 
 />
    <glyph glyph-name="cid8717" unicode="&#x221f;" 
 />
    <glyph glyph-name="cid148" unicode="&#x2220;" 
 />
    <glyph glyph-name="cid8738" unicode="&#x2222;" 
 />
    <glyph glyph-name="cid8719" unicode="&#x2225;" 
 />
    <glyph glyph-name="cid8720" unicode="&#x2226;" 
 />
    <glyph glyph-name="cid192" unicode="&#x2227;" 
 />
    <glyph glyph-name="cid193" unicode="&#x2228;" 
 />
    <glyph glyph-name="cid191" unicode="&#x2229;" 
 />
    <glyph glyph-name="cid190" unicode="&#x222a;" 
 />
    <glyph glyph-name="cid182" unicode="&#x222b;" 
 />
    <glyph glyph-name="cid183" unicode="&#x222c;" 
 />
    <glyph glyph-name="cid211" unicode="&#x222e;" 
 />
    <glyph glyph-name="cid137" unicode="&#x2234;" 
 />
    <glyph glyph-name="cid181" unicode="&#x2235;" 
 />
    <glyph glyph-name="cid8321" unicode="&#x2237;" 
 />
    <glyph glyph-name="cid113" unicode="&#x223c;" 
d="M496 252q-24 0 -44.5 -8t-34.5 -15q-23 -13 -50 -16.5t-44 12.5q-20 19 -22.5 44t15.5 43q13 12 32.5 20.5t41.5 14.5t43 9t37 3q33 0 58 -6.5t47 -14.5t45 -14.5t52 -6.5q25 0 43 7t41 18q32 14 52 9t34 -19q16 -16 16.5 -38.5t-14.5 -39.5q-13 -14 -33 -23.5t-42 -14.5
t-42 -7t-33 -2q-28 0 -52.5 7t-48 15.5t-47 15.5t-50.5 7z" />
    <glyph glyph-name="cid113" unicode="&#xff5e;" 
d="M496 252q-24 0 -44.5 -8t-34.5 -15q-23 -13 -50 -16.5t-44 12.5q-20 19 -22.5 44t15.5 43q13 12 32.5 20.5t41.5 14.5t43 9t37 3q33 0 58 -6.5t47 -14.5t45 -14.5t52 -6.5q25 0 43 7t41 18q32 14 52 9t34 -19q16 -16 16.5 -38.5t-14.5 -39.5q-13 -14 -33 -23.5t-42 -14.5
t-42 -7t-33 -2q-28 0 -52.5 7t-48 15.5t-47 15.5t-50.5 7z" />
    <glyph glyph-name="cid113" unicode="&#x301c;" 
d="M496 252q-24 0 -44.5 -8t-34.5 -15q-23 -13 -50 -16.5t-44 12.5q-20 19 -22.5 44t15.5 43q13 12 32.5 20.5t41.5 14.5t43 9t37 3q33 0 58 -6.5t47 -14.5t45 -14.5t52 -6.5q25 0 43 7t41 18q32 14 52 9t34 -19q16 -16 16.5 -38.5t-14.5 -39.5q-13 -14 -33 -23.5t-42 -14.5
t-42 -7t-33 -2q-28 0 -52.5 7t-48 15.5t-47 15.5t-50.5 7z" />
    <glyph glyph-name="cid179" unicode="&#x223d;" 
 />
    <glyph glyph-name="cid8500" unicode="&#x2243;" 
 />
    <glyph glyph-name="cid8499" unicode="&#x2245;" 
 />
    <glyph glyph-name="cid8501" unicode="&#x2248;" 
 />
    <glyph glyph-name="cid8739" unicode="&#x2250;" 
 />
    <glyph glyph-name="cid8723" unicode="&#x2251;" 
 />
    <glyph glyph-name="cid154" unicode="&#x2252;" 
 />
    <glyph glyph-name="cid8722" unicode="&#x2253;" 
 />
    <glyph glyph-name="cid8753" unicode="&#x225a;" 
 />
    <glyph glyph-name="cid133" unicode="&#x2260;" 
 />
    <glyph glyph-name="cid153" unicode="&#x2261;" 
 />
    <glyph glyph-name="cid8734" unicode="&#x2262;" 
 />
    <glyph glyph-name="cid134" unicode="&#x2264;" 
 />
    <glyph glyph-name="cid135" unicode="&#x2265;" 
 />
    <glyph glyph-name="cid8724" unicode="&#x2266;" 
 />
    <glyph glyph-name="cid8725" unicode="&#x2267;" 
 />
    <glyph glyph-name="cid8745" unicode="&#x226e;" 
 />
    <glyph glyph-name="cid8746" unicode="&#x226f;" 
 />
    <glyph glyph-name="cid8481" unicode="&#x2270;" 
 />
    <glyph glyph-name="cid8482" unicode="&#x2271;" 
 />
    <glyph glyph-name="cid8483" unicode="&#x2272;" 
 />
    <glyph glyph-name="cid8484" unicode="&#x2273;" 
 />
    <glyph glyph-name="cid8489" unicode="&#x2276;" 
 />
    <glyph glyph-name="cid8490" unicode="&#x2277;" 
 />
    <glyph glyph-name="cid8491" unicode="&#x2279;" 
 />
    <glyph glyph-name="cid8475" unicode="&#x227a;" 
 />
    <glyph glyph-name="cid8476" unicode="&#x227b;" 
 />
    <glyph glyph-name="cid8479" unicode="&#x2280;" 
 />
    <glyph glyph-name="cid8480" unicode="&#x2281;" 
 />
    <glyph glyph-name="cid188" unicode="&#x2282;" 
 />
    <glyph glyph-name="cid189" unicode="&#x2283;" 
 />
    <glyph glyph-name="cid8748" unicode="&#x2284;" 
 />
    <glyph glyph-name="cid8747" unicode="&#x2285;" 
 />
    <glyph glyph-name="cid186" unicode="&#x2286;" 
 />
    <glyph glyph-name="cid187" unicode="&#x2287;" 
 />
    <glyph glyph-name="cid8486" unicode="&#x228a;" 
 />
    <glyph glyph-name="cid8486" unicode="&#x2acb;" 
 />
    <glyph glyph-name="cid8488" unicode="&#x228b;" 
 />
    <glyph glyph-name="cid8488" unicode="&#x2acc;" 
 />
    <glyph glyph-name="cid8727" unicode="&#x2295;" 
 />
    <glyph glyph-name="cid8728" unicode="&#x2296;" 
 />
    <glyph glyph-name="cid8729" unicode="&#x2297;" 
 />
    <glyph glyph-name="cid227" unicode="&#x2299;" 
 />
    <glyph glyph-name="cid227" unicode="&#x25c9;" 
 />
    <glyph glyph-name="cid8742" unicode="&#x22a3;" 
 />
    <glyph glyph-name="cid8503" unicode="&#x22a4;" 
 />
    <glyph glyph-name="cid149" unicode="&#x22a5;" 
 />
    <glyph glyph-name="cid8751" unicode="&#x22bb;" 
 />
    <glyph glyph-name="cid8752" unicode="&#x22bc;" 
 />
    <glyph glyph-name="cid8477" unicode="&#x22ce;" 
 />
    <glyph glyph-name="cid8478" unicode="&#x22cf;" 
 />
    <glyph glyph-name="cid8492" unicode="&#x22da;" 
 />
    <glyph glyph-name="cid8493" unicode="&#x22db;" 
 />
    <glyph glyph-name="cid8320" unicode="&#x22ee;" 
 />
    <glyph glyph-name="cid8754" unicode="&#x2306;" 
 />
    <glyph glyph-name="cid150" unicode="&#x2312;" 
 />
    <glyph glyph-name="cid8731" unicode="&#x2314;" 
 />
    <glyph glyph-name="cid733" unicode="&#x2460;" 
 />
    <glyph glyph-name="cid734" unicode="&#x2461;" 
 />
    <glyph glyph-name="cid735" unicode="&#x2462;" 
 />
    <glyph glyph-name="cid736" unicode="&#x2463;" 
 />
    <glyph glyph-name="cid737" unicode="&#x2464;" 
 />
    <glyph glyph-name="cid738" unicode="&#x2465;" 
 />
    <glyph glyph-name="cid739" unicode="&#x2466;" 
 />
    <glyph glyph-name="cid740" unicode="&#x2467;" 
 />
    <glyph glyph-name="cid741" unicode="&#x2468;" 
 />
    <glyph glyph-name="cid742" unicode="&#x2469;" 
 />
    <glyph glyph-name="cid743" unicode="&#x246a;" 
 />
    <glyph glyph-name="cid744" unicode="&#x246b;" 
 />
    <glyph glyph-name="cid745" unicode="&#x246c;" 
 />
    <glyph glyph-name="cid746" unicode="&#x246d;" 
 />
    <glyph glyph-name="cid747" unicode="&#x246e;" 
 />
    <glyph glyph-name="cid8791" unicode="&#x246f;" 
 />
    <glyph glyph-name="cid8792" unicode="&#x2470;" 
 />
    <glyph glyph-name="cid8793" unicode="&#x2471;" 
 />
    <glyph glyph-name="cid8794" unicode="&#x2472;" 
 />
    <glyph glyph-name="cid8795" unicode="&#x2473;" 
 />
    <glyph glyph-name="cid827" unicode="&#x2474;" 
 />
    <glyph glyph-name="cid828" unicode="&#x2475;" 
 />
    <glyph glyph-name="cid829" unicode="&#x2476;" 
 />
    <glyph glyph-name="cid830" unicode="&#x2477;" 
 />
    <glyph glyph-name="cid831" unicode="&#x2478;" 
 />
    <glyph glyph-name="cid832" unicode="&#x2479;" 
 />
    <glyph glyph-name="cid833" unicode="&#x247a;" 
 />
    <glyph glyph-name="cid834" unicode="&#x247b;" 
 />
    <glyph glyph-name="cid835" unicode="&#x247c;" 
 />
    <glyph glyph-name="cid836" unicode="&#x247d;" 
 />
    <glyph glyph-name="cid837" unicode="&#x247e;" 
 />
    <glyph glyph-name="cid838" unicode="&#x247f;" 
 />
    <glyph glyph-name="cid839" unicode="&#x2480;" 
 />
    <glyph glyph-name="cid840" unicode="&#x2481;" 
 />
    <glyph glyph-name="cid841" unicode="&#x2482;" 
 />
    <glyph glyph-name="cid9042" unicode="&#x2483;" 
 />
    <glyph glyph-name="cid9043" unicode="&#x2484;" 
 />
    <glyph glyph-name="cid9044" unicode="&#x2485;" 
 />
    <glyph glyph-name="cid9045" unicode="&#x2486;" 
 />
    <glyph glyph-name="cid9046" unicode="&#x2487;" 
 />
    <glyph glyph-name="cid801" unicode="&#x249c;" 
 />
    <glyph glyph-name="cid802" unicode="&#x249d;" 
 />
    <glyph glyph-name="cid803" unicode="&#x249e;" 
 />
    <glyph glyph-name="cid804" unicode="&#x249f;" 
 />
    <glyph glyph-name="cid805" unicode="&#x24a0;" 
 />
    <glyph glyph-name="cid806" unicode="&#x24a1;" 
 />
    <glyph glyph-name="cid807" unicode="&#x24a2;" 
 />
    <glyph glyph-name="cid808" unicode="&#x24a3;" 
 />
    <glyph glyph-name="cid809" unicode="&#x24a4;" 
 />
    <glyph glyph-name="cid810" unicode="&#x24a5;" 
 />
    <glyph glyph-name="cid811" unicode="&#x24a6;" 
 />
    <glyph glyph-name="cid812" unicode="&#x24a7;" 
 />
    <glyph glyph-name="cid813" unicode="&#x24a8;" 
 />
    <glyph glyph-name="cid814" unicode="&#x24a9;" 
 />
    <glyph glyph-name="cid815" unicode="&#x24aa;" 
 />
    <glyph glyph-name="cid816" unicode="&#x24ab;" 
 />
    <glyph glyph-name="cid817" unicode="&#x24ac;" 
 />
    <glyph glyph-name="cid818" unicode="&#x24ad;" 
 />
    <glyph glyph-name="cid819" unicode="&#x24ae;" 
 />
    <glyph glyph-name="cid820" unicode="&#x24af;" 
 />
    <glyph glyph-name="cid821" unicode="&#x24b0;" 
 />
    <glyph glyph-name="cid822" unicode="&#x24b1;" 
 />
    <glyph glyph-name="cid823" unicode="&#x24b2;" 
 />
    <glyph glyph-name="cid824" unicode="&#x24b3;" 
 />
    <glyph glyph-name="cid825" unicode="&#x24b4;" 
 />
    <glyph glyph-name="cid826" unicode="&#x24b5;" 
 />
    <glyph glyph-name="cid8388" unicode="&#x24b6;" 
 />
    <glyph glyph-name="cid8389" unicode="&#x24b7;" 
 />
    <glyph glyph-name="cid8390" unicode="&#x24b8;" 
 />
    <glyph glyph-name="cid8391" unicode="&#x24b9;" 
 />
    <glyph glyph-name="cid8392" unicode="&#x24ba;" 
 />
    <glyph glyph-name="cid8393" unicode="&#x24bb;" 
 />
    <glyph glyph-name="cid8394" unicode="&#x24bc;" 
 />
    <glyph glyph-name="cid8395" unicode="&#x24bd;" 
 />
    <glyph glyph-name="cid8396" unicode="&#x24be;" 
 />
    <glyph glyph-name="cid8397" unicode="&#x24bf;" 
 />
    <glyph glyph-name="cid8398" unicode="&#x24c0;" 
 />
    <glyph glyph-name="cid8399" unicode="&#x24c1;" 
 />
    <glyph glyph-name="cid8400" unicode="&#x24c2;" 
 />
    <glyph glyph-name="cid8401" unicode="&#x24c3;" 
 />
    <glyph glyph-name="cid8402" unicode="&#x24c4;" 
 />
    <glyph glyph-name="cid8403" unicode="&#x24c5;" 
 />
    <glyph glyph-name="cid8404" unicode="&#x24c6;" 
 />
    <glyph glyph-name="cid8405" unicode="&#x24c7;" 
 />
    <glyph glyph-name="cid8406" unicode="&#x24c8;" 
 />
    <glyph glyph-name="cid8407" unicode="&#x24c9;" 
 />
    <glyph glyph-name="cid8408" unicode="&#x24ca;" 
 />
    <glyph glyph-name="cid8409" unicode="&#x24cb;" 
 />
    <glyph glyph-name="cid8410" unicode="&#x24cc;" 
 />
    <glyph glyph-name="cid8411" unicode="&#x24cd;" 
 />
    <glyph glyph-name="cid8412" unicode="&#x24ce;" 
 />
    <glyph glyph-name="cid8413" unicode="&#x24cf;" 
 />
    <glyph glyph-name="cid707" unicode="&#x24d0;" 
 />
    <glyph glyph-name="cid708" unicode="&#x24d1;" 
 />
    <glyph glyph-name="cid709" unicode="&#x24d2;" 
 />
    <glyph glyph-name="cid710" unicode="&#x24d3;" 
 />
    <glyph glyph-name="cid711" unicode="&#x24d4;" 
 />
    <glyph glyph-name="cid712" unicode="&#x24d5;" 
 />
    <glyph glyph-name="cid713" unicode="&#x24d6;" 
 />
    <glyph glyph-name="cid714" unicode="&#x24d7;" 
 />
    <glyph glyph-name="cid715" unicode="&#x24d8;" 
 />
    <glyph glyph-name="cid716" unicode="&#x24d9;" 
 />
    <glyph glyph-name="cid717" unicode="&#x24da;" 
 />
    <glyph glyph-name="cid718" unicode="&#x24db;" 
 />
    <glyph glyph-name="cid719" unicode="&#x24dc;" 
 />
    <glyph glyph-name="cid720" unicode="&#x24dd;" 
 />
    <glyph glyph-name="cid721" unicode="&#x24de;" 
 />
    <glyph glyph-name="cid722" unicode="&#x24df;" 
 />
    <glyph glyph-name="cid723" unicode="&#x24e0;" 
 />
    <glyph glyph-name="cid724" unicode="&#x24e1;" 
 />
    <glyph glyph-name="cid725" unicode="&#x24e2;" 
 />
    <glyph glyph-name="cid726" unicode="&#x24e3;" 
 />
    <glyph glyph-name="cid727" unicode="&#x24e4;" 
 />
    <glyph glyph-name="cid728" unicode="&#x24e5;" 
 />
    <glyph glyph-name="cid729" unicode="&#x24e6;" 
 />
    <glyph glyph-name="cid730" unicode="&#x24e7;" 
 />
    <glyph glyph-name="cid731" unicode="&#x24e8;" 
 />
    <glyph glyph-name="cid732" unicode="&#x24e9;" 
 />
    <glyph glyph-name="cid8683" unicode="&#x24eb;" 
 />
    <glyph glyph-name="cid8684" unicode="&#x24ec;" 
 />
    <glyph glyph-name="cid8685" unicode="&#x24ed;" 
 />
    <glyph glyph-name="cid8686" unicode="&#x24ee;" 
 />
    <glyph glyph-name="cid8687" unicode="&#x24ef;" 
 />
    <glyph glyph-name="cid8688" unicode="&#x24f0;" 
 />
    <glyph glyph-name="cid8689" unicode="&#x24f1;" 
 />
    <glyph glyph-name="cid8690" unicode="&#x24f2;" 
 />
    <glyph glyph-name="cid8691" unicode="&#x24f3;" 
 />
    <glyph glyph-name="cid8692" unicode="&#x24f4;" 
 />
    <glyph glyph-name="cid519" unicode="&#x2500;" 
 />
    <glyph glyph-name="cid530" unicode="&#x2501;" 
 />
    <glyph glyph-name="cid520" unicode="&#x2502;" 
 />
    <glyph glyph-name="cid531" unicode="&#x2503;" 
 />
    <glyph glyph-name="cid521" unicode="&#x250c;" 
 />
    <glyph glyph-name="cid558" unicode="&#x250d;" 
 />
    <glyph glyph-name="cid557" unicode="&#x250e;" 
 />
    <glyph glyph-name="cid532" unicode="&#x250f;" 
 />
    <glyph glyph-name="cid522" unicode="&#x2510;" 
 />
    <glyph glyph-name="cid552" unicode="&#x2511;" 
 />
    <glyph glyph-name="cid551" unicode="&#x2512;" 
 />
    <glyph glyph-name="cid533" unicode="&#x2513;" 
 />
    <glyph glyph-name="cid524" unicode="&#x2514;" 
 />
    <glyph glyph-name="cid556" unicode="&#x2515;" 
 />
    <glyph glyph-name="cid555" unicode="&#x2516;" 
 />
    <glyph glyph-name="cid535" unicode="&#x2517;" 
 />
    <glyph glyph-name="cid523" unicode="&#x2518;" 
 />
    <glyph glyph-name="cid554" unicode="&#x2519;" 
 />
    <glyph glyph-name="cid553" unicode="&#x251a;" 
 />
    <glyph glyph-name="cid534" unicode="&#x251b;" 
 />
    <glyph glyph-name="cid525" unicode="&#x251c;" 
 />
    <glyph glyph-name="cid546" unicode="&#x251d;" 
 />
    <glyph glyph-name="cid559" unicode="&#x251e;" 
 />
    <glyph glyph-name="cid560" unicode="&#x251f;" 
 />
    <glyph glyph-name="cid541" unicode="&#x2520;" 
 />
    <glyph glyph-name="cid561" unicode="&#x2521;" 
 />
    <glyph glyph-name="cid562" unicode="&#x2522;" 
 />
    <glyph glyph-name="cid536" unicode="&#x2523;" 
 />
    <glyph glyph-name="cid527" unicode="&#x2524;" 
 />
    <glyph glyph-name="cid548" unicode="&#x2525;" 
 />
    <glyph glyph-name="cid563" unicode="&#x2526;" 
 />
    <glyph glyph-name="cid564" unicode="&#x2527;" 
 />
    <glyph glyph-name="cid543" unicode="&#x2528;" 
 />
    <glyph glyph-name="cid565" unicode="&#x2529;" 
 />
    <glyph glyph-name="cid566" unicode="&#x252a;" 
 />
    <glyph glyph-name="cid538" unicode="&#x252b;" 
 />
    <glyph glyph-name="cid526" unicode="&#x252c;" 
 />
    <glyph glyph-name="cid567" unicode="&#x252d;" 
 />
    <glyph glyph-name="cid568" unicode="&#x252e;" 
 />
    <glyph glyph-name="cid542" unicode="&#x252f;" 
 />
    <glyph glyph-name="cid547" unicode="&#x2530;" 
 />
    <glyph glyph-name="cid569" unicode="&#x2531;" 
 />
    <glyph glyph-name="cid570" unicode="&#x2532;" 
 />
    <glyph glyph-name="cid537" unicode="&#x2533;" 
 />
    <glyph glyph-name="cid528" unicode="&#x2534;" 
 />
    <glyph glyph-name="cid571" unicode="&#x2535;" 
 />
    <glyph glyph-name="cid572" unicode="&#x2536;" 
 />
    <glyph glyph-name="cid544" unicode="&#x2537;" 
 />
    <glyph glyph-name="cid549" unicode="&#x2538;" 
 />
    <glyph glyph-name="cid573" unicode="&#x2539;" 
 />
    <glyph glyph-name="cid574" unicode="&#x253a;" 
 />
    <glyph glyph-name="cid539" unicode="&#x253b;" 
 />
    <glyph glyph-name="cid529" unicode="&#x253c;" 
 />
    <glyph glyph-name="cid575" unicode="&#x253d;" 
 />
    <glyph glyph-name="cid576" unicode="&#x253e;" 
 />
    <glyph glyph-name="cid545" unicode="&#x253f;" 
 />
    <glyph glyph-name="cid577" unicode="&#x2540;" 
 />
    <glyph glyph-name="cid578" unicode="&#x2541;" 
 />
    <glyph glyph-name="cid550" unicode="&#x2542;" 
 />
    <glyph glyph-name="cid579" unicode="&#x2543;" 
 />
    <glyph glyph-name="cid580" unicode="&#x2544;" 
 />
    <glyph glyph-name="cid581" unicode="&#x2545;" 
 />
    <glyph glyph-name="cid582" unicode="&#x2546;" 
 />
    <glyph glyph-name="cid583" unicode="&#x2547;" 
 />
    <glyph glyph-name="cid584" unicode="&#x2548;" 
 />
    <glyph glyph-name="cid585" unicode="&#x2549;" 
 />
    <glyph glyph-name="cid586" unicode="&#x254a;" 
 />
    <glyph glyph-name="cid540" unicode="&#x254b;" 
 />
    <glyph glyph-name="cid232" unicode="&#x2592;" 
 />
    <glyph glyph-name="cid165" unicode="&#x25a0;" 
 />
    <glyph glyph-name="cid164" unicode="&#x25a1;" 
 />
    <glyph glyph-name="cid229" unicode="&#x25a3;" 
 />
    <glyph glyph-name="cid233" unicode="&#x25a4;" 
 />
    <glyph glyph-name="cid234" unicode="&#x25a5;" 
 />
    <glyph glyph-name="cid237" unicode="&#x25a6;" 
 />
    <glyph glyph-name="cid236" unicode="&#x25a7;" 
 />
    <glyph glyph-name="cid235" unicode="&#x25a8;" 
 />
    <glyph glyph-name="cid238" unicode="&#x25a9;" 
 />
    <glyph glyph-name="cid8736" unicode="&#x25b1;" 
 />
    <glyph glyph-name="cid167" unicode="&#x25b2;" 
 />
    <glyph glyph-name="cid166" unicode="&#x25b3;" 
 />
    <glyph glyph-name="cid8780" unicode="&#x25b5;" 
 />
    <glyph glyph-name="cid220" unicode="&#x25b6;" 
 />
    <glyph glyph-name="cid219" unicode="&#x25b7;" 
 />
    <glyph glyph-name="cid8781" unicode="&#x25b9;" 
 />
    <glyph glyph-name="cid169" unicode="&#x25bc;" 
 />
    <glyph glyph-name="cid168" unicode="&#x25bd;" 
 />
    <glyph glyph-name="cid8779" unicode="&#x25bf;" 
 />
    <glyph glyph-name="cid218" unicode="&#x25c0;" 
 />
    <glyph glyph-name="cid217" unicode="&#x25c1;" 
 />
    <glyph glyph-name="cid8782" unicode="&#x25c3;" 
 />
    <glyph glyph-name="cid163" unicode="&#x25c6;" 
 />
    <glyph glyph-name="cid162" unicode="&#x25c7;" 
 />
    <glyph glyph-name="cid228" unicode="&#x25c8;" 
 />
    <glyph glyph-name="cid8787" unicode="&#x25ca;" 
 />
    <glyph glyph-name="cid159" unicode="&#x25cb;" horiz-adv-x="940" 
d="M65 288q0 85 31 160.5t85.5 131.5t128 88.5t159.5 32.5q85 0 159 -32.5t129 -88.5t86 -131.5t31 -160.5q0 -86 -31 -161t-86 -130.5t-129 -88t-159 -32.5q-86 0 -159.5 32.5t-128 88t-85.5 130.5t-31 161zM174 288q0 -63 22.5 -118t62 -96.5t93.5 -65t117 -23.5t117 23.5
t94 65t62.5 96.5t22.5 118t-22.5 118.5t-62.5 96.5t-94 65t-117 24t-117 -24t-93.5 -65t-62 -96.5t-22.5 -118.5z" />
    <glyph glyph-name="cid8639" unicode="&#x25cc;" 
 />
    <glyph glyph-name="cid161" unicode="&#x25ce;" 
 />
    <glyph glyph-name="cid160" unicode="&#x25cf;" 
 />
    <glyph glyph-name="cid230" unicode="&#x25d0;" 
 />
    <glyph glyph-name="cid231" unicode="&#x25d1;" 
 />
    <glyph glyph-name="cid8775" unicode="&#x25e6;" 
 />
    <glyph glyph-name="cid8633" unicode="&#x25ef;" 
 />
    <glyph glyph-name="cid158" unicode="&#x2605;" horiz-adv-x="950" 
d="M299 226l-207 142q-20 13 -26 25.5t0 21.5q8 14 45 13l254 -10l75 261q2 6 8.5 11.5t18.5 5.5q21 0 26 -17l80 -261l281 13q28 0 31 -17t-17 -32l-234 -162l95 -247q5 -14 2.5 -22.5t-9.5 -13.5q-8 -6 -19 -6t-21 8l-216 167l-211 -171q-10 -8 -20.5 -8.5t-18.5 4.5
t-11.5 15.5t1.5 24.5z" />
    <glyph glyph-name="cid157" unicode="&#x2606;" horiz-adv-x="950" 
d="M292 224q-48 31 -95 62.5t-95 63.5q-24 16 -30 35t2 34q5 9 19 16.5t37 6.5l232 -13l68 240h-1q2 9 13.5 18t28.5 9q14 0 24 -7t13 -15l74 -245q64 3 127.5 7t128.5 7q19 0 32.5 -8.5t15.5 -20.5q5 -26 -22 -45l-216 -150q22 -57 44 -113t43 -113q6 -17 1.5 -30
t-12.5 -21q-12 -8 -27 -8t-29 10l-197 153q-48 -39 -94 -77.5t-93 -78.5q-14 -11 -32.5 -12t-29.5 6q-11 8 -16 23t1 33zM325 85l146 121l151 -126l-72 178l174 108l-202 -14l-50 178q0 -3 -1.5 -8.5t-6 -23t-14 -51.5t-26.5 -95q-68 4 -106.5 6.5t-57.5 4t-24 2t-8 0.5
l163 -104z" />
    <glyph glyph-name="cid241" unicode="&#x260e;" 
 />
    <glyph glyph-name="cid240" unicode="&#x260f;" 
 />
    <glyph glyph-name="cid242" unicode="&#x261c;" 
 />
    <glyph glyph-name="cid9222" unicode="&#x261d;" 
 />
    <glyph glyph-name="cid243" unicode="&#x261e;" 
 />
    <glyph glyph-name="cid9223" unicode="&#x261f;" 
 />
    <glyph glyph-name="cid8664" unicode="&#x262f;" 
 />
    <glyph glyph-name="cid147" unicode="&#x2640;" 
 />
    <glyph glyph-name="cid146" unicode="&#x2642;" 
 />
    <glyph glyph-name="cid222" unicode="&#x2660;" 
 />
    <glyph glyph-name="cid223" unicode="&#x2661;" horiz-adv-x="950" 
d="M473 -51q-30 1 -44 16t-30 44q-21 31 -39.5 54.5t-36.5 42t-34.5 33t-32.5 28.5q-69 58 -112 124t-43 150q0 38 12 73t35.5 62t59 43t83.5 16q56 0 107 -27.5t78 -80.5q29 51 79 79.5t105 28.5q49 0 85 -17t59 -45t34 -62.5t11 -69.5q0 -49 -12.5 -88.5t-34 -73t-51 -63
t-63.5 -57.5q-16 -12 -32.5 -25.5t-33 -31t-34 -41t-36.5 -54.5q-16 -30 -30.5 -45t-48.5 -13zM474 55q7 0 21 26q12 19 35 50.5t77 76.5q27 22 54 46t48 50.5t34.5 57t13.5 66.5q0 25 -4.5 46.5t-16 37t-31 23.5t-49.5 6q-33 -2 -62 -22.5t-52 -51.5t-39 -68.5t-25 -72.5
q-10 31 -29 68.5t-43.5 70t-52.5 54.5t-56 23q-30 0 -50 -8.5t-31.5 -24t-16.5 -36.5t-5 -45q0 -33 11 -61.5t29 -53t40.5 -46.5t44.5 -41q39 -34 73.5 -69.5t63.5 -77.5q16 -24 18 -24z" />
    <glyph glyph-name="cid226" unicode="&#x2663;" 
 />
    <glyph glyph-name="cid221" unicode="&#x2664;" 
 />
    <glyph glyph-name="cid224" unicode="&#x2665;" horiz-adv-x="950" 
d="M474 -53q-16 0 -26 5.5t-18.5 16t-17.5 26t-22 35.5q-29 45 -63 77.5t-68 61t-64 57.5t-52 67q-20 35 -32 73.5t-11 78.5q0 36 11.5 70t34 60t57 41.5t80.5 15.5q30 0 59.5 -9.5t55.5 -27t46.5 -41.5t31.5 -54q12 29 32.5 53t46 41.5t55 27.5t58.5 10q48 0 82 -16.5
t56.5 -43t33 -60t10.5 -67.5q0 -40 -12 -78.5t-31 -73.5q-23 -42 -54.5 -71.5t-65.5 -57t-67 -58.5t-60 -74q-13 -21 -21 -37t-16.5 -27t-19.5 -16.5t-29 -4.5z" />
    <glyph glyph-name="cid225" unicode="&#x2667;" 
 />
    <glyph glyph-name="cid239" unicode="&#x2668;" 
 />
    <glyph glyph-name="cid253" unicode="&#x2669;" 
 />
    <glyph glyph-name="cid254" unicode="&#x266a;" 
 />
    <glyph glyph-name="cid255" unicode="&#x266c;" 
 />
    <glyph glyph-name="cid252" unicode="&#x266d;" 
 />
    <glyph glyph-name="cid8594" unicode="&#x266f;" 
 />
    <glyph glyph-name="cid8631" unicode="&#x2716;" 
 />
    <glyph glyph-name="cid8630" unicode="&#x271a;" 
 />
    <glyph glyph-name="cid8604" unicode="&#x273d;" 
 />
    <glyph glyph-name="cid8637" unicode="&#x2756;" 
 />
    <glyph glyph-name="cid8673" unicode="&#x2776;" 
 />
    <glyph glyph-name="cid8674" unicode="&#x2777;" 
 />
    <glyph glyph-name="cid8675" unicode="&#x2778;" 
 />
    <glyph glyph-name="cid8676" unicode="&#x2779;" 
 />
    <glyph glyph-name="cid8677" unicode="&#x277a;" 
 />
    <glyph glyph-name="cid8678" unicode="&#x277b;" 
 />
    <glyph glyph-name="cid8679" unicode="&#x277c;" 
 />
    <glyph glyph-name="cid8680" unicode="&#x277d;" 
 />
    <glyph glyph-name="cid8681" unicode="&#x277e;" 
 />
    <glyph glyph-name="cid8682" unicode="&#x277f;" 
 />
    <glyph glyph-name="cid8342" unicode="&#x278a;" 
 />
    <glyph glyph-name="cid8343" unicode="&#x278b;" 
 />
    <glyph glyph-name="cid8344" unicode="&#x278c;" 
 />
    <glyph glyph-name="cid8345" unicode="&#x278d;" 
 />
    <glyph glyph-name="cid8346" unicode="&#x278e;" 
 />
    <glyph glyph-name="cid8347" unicode="&#x278f;" 
 />
    <glyph glyph-name="cid8348" unicode="&#x2790;" 
 />
    <glyph glyph-name="cid8349" unicode="&#x2791;" 
 />
    <glyph glyph-name="cid8350" unicode="&#x2792;" 
 />
    <glyph glyph-name="cid8351" unicode="&#x2793;" 
 />
    <glyph glyph-name="cid8485" unicode="&#x2ac5;" 
 />
    <glyph glyph-name="cid8487" unicode="&#x2ac6;" 
 />
    <glyph glyph-name="cid6460" unicode="&#x2f00;" 
 />
    <glyph glyph-name="cid6460" unicode="&#x4e00;" 
 />
    <glyph glyph-name="cid6380" unicode="&#x2f04;" 
 />
    <glyph glyph-name="cid6380" unicode="&#x4e59;" 
 />
    <glyph glyph-name="cid6413" unicode="&#x2f06;" 
 />
    <glyph glyph-name="cid6413" unicode="&#x4e8c;" 
 />
    <glyph glyph-name="cid6443" unicode="&#x2f08;" 
 />
    <glyph glyph-name="cid6443" unicode="&#x4eba;" 
 />
    <glyph glyph-name="cid6477" unicode="&#x2f0a;" 
 />
    <glyph glyph-name="cid6477" unicode="&#x5165;" 
 />
    <glyph glyph-name="cid7499" unicode="&#x2f0b;" 
 />
    <glyph glyph-name="cid7499" unicode="&#x516b;" 
 />
    <glyph glyph-name="cid4270" unicode="&#x2f11;" 
 />
    <glyph glyph-name="cid4270" unicode="&#x5200;" 
 />
    <glyph glyph-name="cid4458" unicode="&#x2f12;" 
 />
    <glyph glyph-name="cid4458" unicode="&#xf98a;" 
 />
    <glyph glyph-name="cid4458" unicode="&#x529b;" 
 />
    <glyph glyph-name="cid5183" unicode="&#x2f14;" 
 />
    <glyph glyph-name="cid5183" unicode="&#x5315;" 
 />
    <glyph glyph-name="cid5772" unicode="&#x2f17;" 
 />
    <glyph glyph-name="cid5772" unicode="&#x5341;" 
 />
    <glyph glyph-name="cid5077" unicode="&#x2f18;" 
 />
    <glyph glyph-name="cid5077" unicode="&#x535c;" 
 />
    <glyph glyph-name="cid6201" unicode="&#x2f1c;" 
 />
    <glyph glyph-name="cid6201" unicode="&#x53c8;" 
 />
    <glyph glyph-name="cid3901" unicode="&#x2f1d;" 
 />
    <glyph glyph-name="cid3901" unicode="&#x53e3;" 
 />
    <glyph glyph-name="cid7451" unicode="&#x2f1f;" 
 />
    <glyph glyph-name="cid7451" unicode="&#x571f;" 
 />
    <glyph glyph-name="cid5255" unicode="&#x2f20;" 
 />
    <glyph glyph-name="cid5255" unicode="&#x58eb;" 
 />
    <glyph glyph-name="cid5403" unicode="&#x2f23;" 
 />
    <glyph glyph-name="cid5403" unicode="&#x5915;" 
 />
    <glyph glyph-name="cid4253" unicode="&#x2f24;" 
 />
    <glyph glyph-name="cid4253" unicode="&#x5927;" 
 />
    <glyph glyph-name="cid4159" unicode="&#x2f25;" 
 />
    <glyph glyph-name="cid4159" unicode="&#xf981;" 
 />
    <glyph glyph-name="cid4159" unicode="&#x5973;" 
 />
    <glyph glyph-name="cid6488" unicode="&#x2f26;" 
 />
    <glyph glyph-name="cid6488" unicode="&#x5b50;" 
 />
    <glyph glyph-name="cid7247" unicode="&#x2f28;" 
 />
    <glyph glyph-name="cid7247" unicode="&#x5bf8;" 
 />
    <glyph glyph-name="cid5504" unicode="&#x2f29;" 
 />
    <glyph glyph-name="cid5504" unicode="&#x5c0f;" 
 />
    <glyph glyph-name="cid5697" unicode="&#x2f2b;" 
 />
    <glyph glyph-name="cid5697" unicode="&#x5c38;" 
 />
    <glyph glyph-name="cid5305" unicode="&#x2f2d;" 
 />
    <glyph glyph-name="cid5305" unicode="&#x5c71;" 
 />
    <glyph glyph-name="cid3791" unicode="&#x2f2f;" 
 />
    <glyph glyph-name="cid3791" unicode="&#x5de5;" 
 />
    <glyph glyph-name="cid4077" unicode="&#x2f30;" 
 />
    <glyph glyph-name="cid4077" unicode="&#x5df1;" 
 />
    <glyph glyph-name="cid3604" unicode="&#x2f31;" 
 />
    <glyph glyph-name="cid3604" unicode="&#x5dfe;" 
 />
    <glyph glyph-name="cid3481" unicode="&#x2f32;" 
 />
    <glyph glyph-name="cid3481" unicode="&#x5e72;" 
 />
    <glyph glyph-name="cid3964" unicode="&#x2f38;" 
 />
    <glyph glyph-name="cid3964" unicode="&#x5f13;" 
 />
    <glyph glyph-name="cid5764" unicode="&#x2f3c;" 
 />
    <glyph glyph-name="cid5764" unicode="&#x5fc3;" 
 />
    <glyph glyph-name="cid3804" unicode="&#x2f3d;" 
 />
    <glyph glyph-name="cid3804" unicode="&#x6208;" 
 />
    <glyph glyph-name="cid7808" unicode="&#x2f3e;" 
 />
    <glyph glyph-name="cid7808" unicode="&#x6236;" 
 />
    <glyph glyph-name="cid5580" unicode="&#x2f3f;" 
 />
    <glyph glyph-name="cid5580" unicode="&#x624b;" 
 />
    <glyph glyph-name="cid6951" unicode="&#x2f40;" 
 />
    <glyph glyph-name="cid6951" unicode="&#x652f;" 
 />
    <glyph glyph-name="cid4840" unicode="&#x2f42;" 
 />
    <glyph glyph-name="cid4840" unicode="&#x6587;" 
 />
    <glyph glyph-name="cid4349" unicode="&#x2f43;" 
 />
    <glyph glyph-name="cid4349" unicode="&#x6597;" 
 />
    <glyph glyph-name="cid4027" unicode="&#x2f44;" 
 />
    <glyph glyph-name="cid4027" unicode="&#x65a4;" 
 />
    <glyph glyph-name="cid4950" unicode="&#x2f45;" 
 />
    <glyph glyph-name="cid4950" unicode="&#x65b9;" 
 />
    <glyph glyph-name="cid4819" unicode="&#x2f46;" 
 />
    <glyph glyph-name="cid4819" unicode="&#x65e0;" 
 />
    <glyph glyph-name="cid6464" unicode="&#x2f47;" 
 />
    <glyph glyph-name="cid6464" unicode="&#x65e5;" 
 />
    <glyph glyph-name="cid6125" unicode="&#x2f48;" 
 />
    <glyph glyph-name="cid6125" unicode="&#x66f0;" 
 />
    <glyph glyph-name="cid6281" unicode="&#x2f49;" 
 />
    <glyph glyph-name="cid6281" unicode="&#x6708;" 
 />
    <glyph glyph-name="cid4788" unicode="&#x2f4a;" 
 />
    <glyph glyph-name="cid4788" unicode="&#x6728;" 
 />
    <glyph glyph-name="cid8027" unicode="&#x2f4b;" 
 />
    <glyph glyph-name="cid8027" unicode="&#x6b20;" 
 />
    <glyph glyph-name="cid6956" unicode="&#x2f4c;" 
 />
    <glyph glyph-name="cid6956" unicode="&#x6b62;" 
 />
    <glyph glyph-name="cid4822" unicode="&#x2f4f;" 
 />
    <glyph glyph-name="cid4822" unicode="&#x6bcb;" 
 />
    <glyph glyph-name="cid5196" unicode="&#x2f50;" 
 />
    <glyph glyph-name="cid5196" unicode="&#x6bd4;" 
 />
    <glyph glyph-name="cid4776" unicode="&#x2f51;" 
 />
    <glyph glyph-name="cid4776" unicode="&#x6bdb;" 
 />
    <glyph glyph-name="cid5774" unicode="&#x2f52;" 
 />
    <glyph glyph-name="cid5774" unicode="&#x6c0f;" 
 />
    <glyph glyph-name="cid5587" unicode="&#x2f54;" 
 />
    <glyph glyph-name="cid5587" unicode="&#x6c34;" 
 />
    <glyph glyph-name="cid7867" unicode="&#x2f55;" 
 />
    <glyph glyph-name="cid7867" unicode="&#x706b;" 
 />
    <glyph glyph-name="cid6803" unicode="&#x2f56;" 
 />
    <glyph glyph-name="cid6803" unicode="&#x722a;" 
 />
    <glyph glyph-name="cid5129" unicode="&#x2f57;" 
 />
    <glyph glyph-name="cid5129" unicode="&#x7236;" 
 />
    <glyph glyph-name="cid7962" unicode="&#x2f58;" 
 />
    <glyph glyph-name="cid7962" unicode="&#x723b;" 
 />
    <glyph glyph-name="cid7521" unicode="&#x2f5a;" 
 />
    <glyph glyph-name="cid7521" unicode="&#x7247;" 
 />
    <glyph glyph-name="cid5782" unicode="&#x2f5b;" 
 />
    <glyph glyph-name="cid5782" unicode="&#x7259;" 
 />
    <glyph glyph-name="cid6210" unicode="&#x2f5c;" 
 />
    <glyph glyph-name="cid6210" unicode="&#x725b;" 
 />
    <glyph glyph-name="cid3639" unicode="&#x2f5d;" 
 />
    <glyph glyph-name="cid3639" unicode="&#x72ac;" 
 />
    <glyph glyph-name="cid7741" unicode="&#x2f5e;" 
 />
    <glyph glyph-name="cid7741" unicode="&#x7384;" 
 />
    <glyph glyph-name="cid6081" unicode="&#x2f5f;" 
 />
    <glyph glyph-name="cid6081" unicode="&#x7389;" 
 />
    <glyph glyph-name="cid3806" unicode="&#x2f60;" 
 />
    <glyph glyph-name="cid3806" unicode="&#x74dc;" 
 />
    <glyph glyph-name="cid6100" unicode="&#x2f61;" 
 />
    <glyph glyph-name="cid6100" unicode="&#x74e6;" 
 />
    <glyph glyph-name="cid3521" unicode="&#x2f62;" 
 />
    <glyph glyph-name="cid3521" unicode="&#x7518;" 
 />
    <glyph glyph-name="cid5370" unicode="&#x2f63;" 
 />
    <glyph glyph-name="cid5370" unicode="&#x751f;" 
 />
    <glyph glyph-name="cid6189" unicode="&#x2f64;" 
 />
    <glyph glyph-name="cid6189" unicode="&#x7528;" 
 />
    <glyph glyph-name="cid6664" unicode="&#x2f65;" 
 />
    <glyph glyph-name="cid6664" unicode="&#x7530;" 
 />
    <glyph glyph-name="cid7610" unicode="&#x2f66;" 
 />
    <glyph glyph-name="cid7610" unicode="&#x758b;" 
 />
    <glyph glyph-name="cid4993" unicode="&#x2f69;" 
 />
    <glyph glyph-name="cid4993" unicode="&#x767d;" 
 />
    <glyph glyph-name="cid7600" unicode="&#x2f6a;" 
 />
    <glyph glyph-name="cid7600" unicode="&#x76ae;" 
 />
    <glyph glyph-name="cid4755" unicode="&#x2f6b;" 
 />
    <glyph glyph-name="cid4755" unicode="&#x76bf;" 
 />
    <glyph glyph-name="cid4791" unicode="&#x2f6c;" 
 />
    <glyph glyph-name="cid4791" unicode="&#x76ee;" 
 />
    <glyph glyph-name="cid4781" unicode="&#x2f6d;" 
 />
    <glyph glyph-name="cid4781" unicode="&#x77db;" 
 />
    <glyph glyph-name="cid5709" unicode="&#x2f6e;" 
 />
    <glyph glyph-name="cid5709" unicode="&#x77e2;" 
 />
    <glyph glyph-name="cid5413" unicode="&#x2f6f;" 
 />
    <glyph glyph-name="cid5413" unicode="&#x77f3;" 
 />
    <glyph glyph-name="cid5710" unicode="&#x2f70;" 
 />
    <glyph glyph-name="cid5710" unicode="&#x793a;" 
 />
    <glyph glyph-name="cid7870" unicode="&#x2f72;" 
 />
    <glyph glyph-name="cid7870" unicode="&#x79be;" 
 />
    <glyph glyph-name="cid7755" unicode="&#x2f73;" 
 />
    <glyph glyph-name="cid7755" unicode="&#x7a74;" 
 />
    <glyph glyph-name="cid4653" unicode="&#x2f74;" 
 />
    <glyph glyph-name="cid4653" unicode="&#xf9f7;" 
 />
    <glyph glyph-name="cid4653" unicode="&#x7acb;" 
 />
    <glyph glyph-name="cid6900" unicode="&#x2f75;" 
 />
    <glyph glyph-name="cid6900" unicode="&#x7af9;" 
 />
    <glyph glyph-name="cid4863" unicode="&#x2f76;" 
 />
    <glyph glyph-name="cid4863" unicode="&#x7c73;" 
 />
    <glyph glyph-name="cid5132" unicode="&#x2f78;" 
 />
    <glyph glyph-name="cid5132" unicode="&#x7f36;" 
 />
    <glyph glyph-name="cid5896" unicode="&#x2f7a;" 
 />
    <glyph glyph-name="cid5896" unicode="&#x7f8a;" 
 />
    <glyph glyph-name="cid6218" unicode="&#x2f7b;" 
 />
    <glyph glyph-name="cid6218" unicode="&#x7fbd;" 
 />
    <glyph glyph-name="cid4519" unicode="&#x2f7c;" 
 />
    <glyph glyph-name="cid4519" unicode="&#xf934;" 
 />
    <glyph glyph-name="cid4519" unicode="&#x8001;" 
 />
    <glyph glyph-name="cid6427" unicode="&#x2f7d;" 
 />
    <glyph glyph-name="cid6427" unicode="&#x800c;" 
 />
    <glyph glyph-name="cid6428" unicode="&#x2f7f;" 
 />
    <glyph glyph-name="cid6428" unicode="&#x8033;" 
 />
    <glyph glyph-name="cid6368" unicode="&#x2f80;" 
 />
    <glyph glyph-name="cid6368" unicode="&#x807f;" 
 />
    <glyph glyph-name="cid6357" unicode="&#x2f81;" 
 />
    <glyph glyph-name="cid6357" unicode="&#x8089;" 
 />
    <glyph glyph-name="cid5749" unicode="&#x2f82;" 
 />
    <glyph glyph-name="cid5749" unicode="&#x81e3;" 
 />
    <glyph glyph-name="cid6502" unicode="&#x2f83;" 
 />
    <glyph glyph-name="cid6502" unicode="&#x81ea;" 
 />
    <glyph glyph-name="cid6967" unicode="&#x2f84;" 
 />
    <glyph glyph-name="cid6967" unicode="&#x81f3;" 
 />
    <glyph glyph-name="cid3930" unicode="&#x2f85;" 
 />
    <glyph glyph-name="cid3930" unicode="&#x81fc;" 
 />
    <glyph glyph-name="cid5456" unicode="&#x2f86;" 
 />
    <glyph glyph-name="cid5456" unicode="&#x820c;" 
 />
    <glyph glyph-name="cid7158" unicode="&#x2f87;" 
 />
    <glyph glyph-name="cid7158" unicode="&#x821b;" 
 />
    <glyph glyph-name="cid6888" unicode="&#x2f88;" 
 />
    <glyph glyph-name="cid6888" unicode="&#x821f;" 
 />
    <glyph glyph-name="cid3496" unicode="&#x2f89;" 
 />
    <glyph glyph-name="cid3496" unicode="&#x826e;" 
 />
    <glyph glyph-name="cid5368" unicode="&#x2f8a;" 
 />
    <glyph glyph-name="cid5368" unicode="&#x8272;" 
 />
    <glyph glyph-name="cid7232" unicode="&#x2f8b;" 
 />
    <glyph glyph-name="cid7232" unicode="&#x8278;" 
 />
    <glyph glyph-name="cid7756" unicode="&#x2f8e;" 
 />
    <glyph glyph-name="cid7756" unicode="&#x8840;" 
 />
    <glyph glyph-name="cid7709" unicode="&#x2f8f;" 
 />
    <glyph glyph-name="cid7709" unicode="&#xfa08;" 
 />
    <glyph glyph-name="cid7709" unicode="&#x884c;" 
 />
    <glyph glyph-name="cid6409" unicode="&#x2f90;" 
 />
    <glyph glyph-name="cid6409" unicode="&#x8863;" 
 />
    <glyph glyph-name="cid3644" unicode="&#x2f92;" 
 />
    <glyph glyph-name="cid3644" unicode="&#xfa0a;" 
 />
    <glyph glyph-name="cid3644" unicode="&#x898b;" 
 />
    <glyph glyph-name="cid3474" unicode="&#x2f93;" 
 />
    <glyph glyph-name="cid3474" unicode="&#x89d2;" 
 />
    <glyph glyph-name="cid5921" unicode="&#x2f94;" 
 />
    <glyph glyph-name="cid5921" unicode="&#x8a00;" 
 />
    <glyph glyph-name="cid3772" unicode="&#x2f95;" 
 />
    <glyph glyph-name="cid3772" unicode="&#x8c37;" 
 />
    <glyph glyph-name="cid4355" unicode="&#x2f96;" 
 />
    <glyph glyph-name="cid4355" unicode="&#x8c46;" 
 />
    <glyph glyph-name="cid5718" unicode="&#x2f97;" 
 />
    <glyph glyph-name="cid5718" unicode="&#x8c55;" 
 />
    <glyph glyph-name="cid7512" unicode="&#x2f99;" 
 />
    <glyph glyph-name="cid7512" unicode="&#x8c9d;" 
 />
    <glyph glyph-name="cid6636" unicode="&#x2f9a;" 
 />
    <glyph glyph-name="cid6636" unicode="&#x8d64;" 
 />
    <glyph glyph-name="cid6892" unicode="&#x2f9b;" 
 />
    <glyph glyph-name="cid6892" unicode="&#x8d70;" 
 />
    <glyph glyph-name="cid6830" unicode="&#x2f9c;" 
 />
    <glyph glyph-name="cid6830" unicode="&#x8db3;" 
 />
    <glyph glyph-name="cid5755" unicode="&#x2f9d;" 
 />
    <glyph glyph-name="cid5755" unicode="&#x8eab;" 
 />
    <glyph glyph-name="cid7053" unicode="&#x2f9e;" 
 />
    <glyph glyph-name="cid7053" unicode="&#xf902;" 
 />
    <glyph glyph-name="cid7053" unicode="&#x8eca;" 
 />
    <glyph glyph-name="cid5756" unicode="&#x2f9f;" 
 />
    <glyph glyph-name="cid5756" unicode="&#x8f9b;" 
 />
    <glyph glyph-name="cid7009" unicode="&#x2fa0;" 
 />
    <glyph glyph-name="cid7009" unicode="&#xf971;" 
 />
    <glyph glyph-name="cid7009" unicode="&#x8fb0;" 
 />
    <glyph glyph-name="cid6389" unicode="&#x2fa2;" 
 />
    <glyph glyph-name="cid6389" unicode="&#x9091;" 
 />
    <glyph glyph-name="cid6352" unicode="&#x2fa3;" 
 />
    <glyph glyph-name="cid6352" unicode="&#x9149;" 
 />
    <glyph glyph-name="cid4634" unicode="&#x2fa5;" 
 />
    <glyph glyph-name="cid4634" unicode="&#xf9e9;" 
 />
    <glyph glyph-name="cid4634" unicode="&#x91cc;" 
 />
    <glyph glyph-name="cid4131" unicode="&#x2fa6;" 
 />
    <glyph glyph-name="cid4131" unicode="&#xf90a;" 
 />
    <glyph glyph-name="cid4131" unicode="&#x91d1;" 
 />
    <glyph glyph-name="cid6568" unicode="&#x2fa7;" 
 />
    <glyph glyph-name="cid6568" unicode="&#x9577;" 
 />
    <glyph glyph-name="cid4846" unicode="&#x2fa8;" 
 />
    <glyph glyph-name="cid4846" unicode="&#x9580;" 
 />
    <glyph glyph-name="cid5147" unicode="&#x2fa9;" 
 />
    <glyph glyph-name="cid5147" unicode="&#x961c;" 
 />
    <glyph glyph-name="cid6227" unicode="&#x2fac;" 
 />
    <glyph glyph-name="cid6227" unicode="&#x96e8;" 
 />
    <glyph glyph-name="cid7203" unicode="&#x2fad;" 
 />
    <glyph glyph-name="cid7203" unicode="&#x9751;" 
 />
    <glyph glyph-name="cid5220" unicode="&#x2fae;" 
 />
    <glyph glyph-name="cid5220" unicode="&#x975e;" 
 />
    <glyph glyph-name="cid4744" unicode="&#x2faf;" 
 />
    <glyph glyph-name="cid4744" unicode="&#x9762;" 
 />
    <glyph glyph-name="cid7733" unicode="&#x2fb0;" 
 />
    <glyph glyph-name="cid7733" unicode="&#x9769;" 
 />
    <glyph glyph-name="cid6307" unicode="&#x2fb1;" 
 />
    <glyph glyph-name="cid6307" unicode="&#x97cb;" 
 />
    <glyph glyph-name="cid6385" unicode="&#x2fb3;" 
 />
    <glyph glyph-name="cid6385" unicode="&#x97f3;" 
 />
    <glyph glyph-name="cid7757" unicode="&#x2fb4;" 
 />
    <glyph glyph-name="cid7757" unicode="&#x9801;" 
 />
    <glyph glyph-name="cid7595" unicode="&#x2fb5;" 
 />
    <glyph glyph-name="cid7595" unicode="&#x98a8;" 
 />
    <glyph glyph-name="cid5221" unicode="&#x2fb6;" 
 />
    <glyph glyph-name="cid5221" unicode="&#x98db;" 
 />
    <glyph glyph-name="cid5733" unicode="&#x2fb7;" 
 />
    <glyph glyph-name="cid5733" unicode="&#x98df;" 
 />
    <glyph glyph-name="cid5625" unicode="&#x2fb8;" 
 />
    <glyph glyph-name="cid5625" unicode="&#x9996;" 
 />
    <glyph glyph-name="cid7718" unicode="&#x2fb9;" 
 />
    <glyph glyph-name="cid7718" unicode="&#x9999;" 
 />
    <glyph glyph-name="cid4661" unicode="&#x2fba;" 
 />
    <glyph glyph-name="cid4661" unicode="&#x99ac;" 
 />
    <glyph glyph-name="cid3785" unicode="&#x2fbb;" 
 />
    <glyph glyph-name="cid3785" unicode="&#x9aa8;" 
 />
    <glyph glyph-name="cid3765" unicode="&#x2fbc;" 
 />
    <glyph glyph-name="cid3765" unicode="&#x9ad8;" 
 />
    <glyph glyph-name="cid3993" unicode="&#x2fc1;" 
 />
    <glyph glyph-name="cid3993" unicode="&#x9b3c;" 
 />
    <glyph glyph-name="cid5910" unicode="&#x2fc2;" 
 />
    <glyph glyph-name="cid5910" unicode="&#x9b5a;" 
 />
    <glyph glyph-name="cid6827" unicode="&#x2fc3;" 
 />
    <glyph glyph-name="cid6827" unicode="&#x9ce5;" 
 />
    <glyph glyph-name="cid4527" unicode="&#x2fc4;" 
 />
    <glyph glyph-name="cid4527" unicode="&#x9e75;" 
 />
    <glyph glyph-name="cid4533" unicode="&#x2fc5;" 
 />
    <glyph glyph-name="cid4533" unicode="&#xf940;" 
 />
    <glyph glyph-name="cid4533" unicode="&#x9e7f;" 
 />
    <glyph glyph-name="cid4726" unicode="&#x2fc6;" 
 />
    <glyph glyph-name="cid4726" unicode="&#x9ea5;" 
 />
    <glyph glyph-name="cid4663" unicode="&#x2fc7;" 
 />
    <glyph glyph-name="cid4663" unicode="&#x9ebb;" 
 />
    <glyph glyph-name="cid7927" unicode="&#x2fc8;" 
 />
    <glyph glyph-name="cid7927" unicode="&#x9ec3;" 
 />
    <glyph glyph-name="cid5401" unicode="&#x2fc9;" 
 />
    <glyph glyph-name="cid5401" unicode="&#x9ecd;" 
 />
    <glyph glyph-name="cid8018" unicode="&#x2fca;" 
 />
    <glyph glyph-name="cid8018" unicode="&#x9ed1;" 
 />
    <glyph glyph-name="cid6758" unicode="&#x2fcd;" 
 />
    <glyph glyph-name="cid6758" unicode="&#x9f0e;" 
 />
    <glyph glyph-name="cid3766" unicode="&#x2fce;" 
 />
    <glyph glyph-name="cid3766" unicode="&#x9f13;" 
 />
    <glyph glyph-name="cid5402" unicode="&#x2fcf;" 
 />
    <glyph glyph-name="cid5402" unicode="&#x9f20;" 
 />
    <glyph glyph-name="cid5222" unicode="&#x2fd0;" 
 />
    <glyph glyph-name="cid5222" unicode="&#x9f3b;" 
 />
    <glyph glyph-name="cid6781" unicode="&#x2fd1;" 
 />
    <glyph glyph-name="cid6781" unicode="&#x9f4a;" 
 />
    <glyph glyph-name="cid7359" unicode="&#x2fd2;" 
 />
    <glyph glyph-name="cid7359" unicode="&#x9f52;" 
 />
    <glyph glyph-name="cid4563" unicode="&#x2fd3;" 
 />
    <glyph glyph-name="cid4563" unicode="&#xf9c4;" 
 />
    <glyph glyph-name="cid4563" unicode="&#x9f8d;" 
 />
    <glyph glyph-name="cid3946" unicode="&#x2fd4;" 
 />
    <glyph glyph-name="cid3946" unicode="&#xf908;" 
 />
    <glyph glyph-name="cid3946" unicode="&#xf907;" 
 />
    <glyph glyph-name="cid3946" unicode="&#x9f9c;" 
 />
    <glyph glyph-name="cid101" unicode="&#x3000;" 
 />
    <glyph glyph-name="cid101" unicode="&#x3164;" 
 />
    <glyph glyph-name="cid102" unicode="&#x3001;" 
 />
    <glyph glyph-name="cid103" unicode="&#x3002;" 
 />
    <glyph glyph-name="cid108" unicode="&#x3003;" 
 />
    <glyph glyph-name="cid120" unicode="&#x3008;" 
 />
    <glyph glyph-name="cid121" unicode="&#x3009;" 
 />
    <glyph glyph-name="cid122" unicode="&#x300a;" 
 />
    <glyph glyph-name="cid123" unicode="&#x300b;" 
 />
    <glyph glyph-name="cid124" unicode="&#x300c;" 
 />
    <glyph glyph-name="cid125" unicode="&#x300d;" 
 />
    <glyph glyph-name="cid126" unicode="&#x300e;" 
 />
    <glyph glyph-name="cid127" unicode="&#x300f;" 
 />
    <glyph glyph-name="cid128" unicode="&#x3010;" 
 />
    <glyph glyph-name="cid129" unicode="&#x3011;" 
 />
    <glyph glyph-name="cid8700" unicode="&#x3012;" 
 />
    <glyph glyph-name="cid175" unicode="&#x3013;" 
 />
    <glyph glyph-name="cid119" unicode="&#x3015;" 
 />
    <glyph glyph-name="cid8219" unicode="&#x3016;" 
 />
    <glyph glyph-name="cid8220" unicode="&#x3017;" 
 />
    <glyph glyph-name="cid8221" unicode="&#x3018;" 
 />
    <glyph glyph-name="cid8222" unicode="&#x3019;" 
 />
    <glyph glyph-name="cid9322" unicode="&#x301e;" 
 />
    <glyph glyph-name="cid9323" unicode="&#x301f;" 
 />
    <glyph glyph-name="cid8671" unicode="&#x3020;" 
 />
    <glyph glyph-name="cid8701" unicode="&#x3036;" 
 />
    <glyph glyph-name="cid851" unicode="&#x3041;" 
 />
    <glyph glyph-name="cid852" unicode="&#x3042;" 
 />
    <glyph glyph-name="cid853" unicode="&#x3043;" 
 />
    <glyph glyph-name="cid854" unicode="&#x3044;" 
 />
    <glyph glyph-name="cid855" unicode="&#x3045;" 
 />
    <glyph glyph-name="cid856" unicode="&#x3046;" 
 />
    <glyph glyph-name="cid857" unicode="&#x3047;" 
 />
    <glyph glyph-name="cid858" unicode="&#x3048;" 
 />
    <glyph glyph-name="cid859" unicode="&#x3049;" 
 />
    <glyph glyph-name="cid860" unicode="&#x304a;" 
 />
    <glyph glyph-name="cid861" unicode="&#x304b;" 
 />
    <glyph glyph-name="cid862" unicode="&#x304c;" 
 />
    <glyph glyph-name="cid863" unicode="&#x304d;" 
 />
    <glyph glyph-name="cid864" unicode="&#x304e;" 
 />
    <glyph glyph-name="cid865" unicode="&#x304f;" 
 />
    <glyph glyph-name="cid866" unicode="&#x3050;" 
 />
    <glyph glyph-name="cid867" unicode="&#x3051;" 
 />
    <glyph glyph-name="cid868" unicode="&#x3052;" 
 />
    <glyph glyph-name="cid869" unicode="&#x3053;" 
 />
    <glyph glyph-name="cid870" unicode="&#x3054;" 
 />
    <glyph glyph-name="cid871" unicode="&#x3055;" 
 />
    <glyph glyph-name="cid872" unicode="&#x3056;" 
 />
    <glyph glyph-name="cid873" unicode="&#x3057;" 
 />
    <glyph glyph-name="cid874" unicode="&#x3058;" 
 />
    <glyph glyph-name="cid875" unicode="&#x3059;" 
 />
    <glyph glyph-name="cid876" unicode="&#x305a;" 
 />
    <glyph glyph-name="cid877" unicode="&#x305b;" 
 />
    <glyph glyph-name="cid878" unicode="&#x305c;" 
 />
    <glyph glyph-name="cid879" unicode="&#x305d;" 
 />
    <glyph glyph-name="cid880" unicode="&#x305e;" 
 />
    <glyph glyph-name="cid881" unicode="&#x305f;" 
 />
    <glyph glyph-name="cid882" unicode="&#x3060;" 
 />
    <glyph glyph-name="cid883" unicode="&#x3061;" 
 />
    <glyph glyph-name="cid884" unicode="&#x3062;" 
 />
    <glyph glyph-name="cid885" unicode="&#x3063;" 
 />
    <glyph glyph-name="cid886" unicode="&#x3064;" 
 />
    <glyph glyph-name="cid887" unicode="&#x3065;" 
 />
    <glyph glyph-name="cid888" unicode="&#x3066;" 
 />
    <glyph glyph-name="cid889" unicode="&#x3067;" 
 />
    <glyph glyph-name="cid890" unicode="&#x3068;" 
 />
    <glyph glyph-name="cid891" unicode="&#x3069;" 
 />
    <glyph glyph-name="cid892" unicode="&#x306a;" 
 />
    <glyph glyph-name="cid893" unicode="&#x306b;" 
 />
    <glyph glyph-name="cid894" unicode="&#x306c;" 
 />
    <glyph glyph-name="cid895" unicode="&#x306d;" 
 />
    <glyph glyph-name="cid896" unicode="&#x306e;" 
 />
    <glyph glyph-name="cid897" unicode="&#x306f;" 
 />
    <glyph glyph-name="cid898" unicode="&#x3070;" 
 />
    <glyph glyph-name="cid899" unicode="&#x3071;" 
 />
    <glyph glyph-name="cid900" unicode="&#x3072;" 
 />
    <glyph glyph-name="cid901" unicode="&#x3073;" 
 />
    <glyph glyph-name="cid902" unicode="&#x3074;" 
 />
    <glyph glyph-name="cid903" unicode="&#x3075;" 
 />
    <glyph glyph-name="cid904" unicode="&#x3076;" 
 />
    <glyph glyph-name="cid905" unicode="&#x3077;" 
 />
    <glyph glyph-name="cid906" unicode="&#x3078;" 
 />
    <glyph glyph-name="cid907" unicode="&#x3079;" 
 />
    <glyph glyph-name="cid908" unicode="&#x307a;" 
 />
    <glyph glyph-name="cid909" unicode="&#x307b;" 
 />
    <glyph glyph-name="cid910" unicode="&#x307c;" 
 />
    <glyph glyph-name="cid911" unicode="&#x307d;" 
 />
    <glyph glyph-name="cid912" unicode="&#x307e;" 
 />
    <glyph glyph-name="cid913" unicode="&#x307f;" 
 />
    <glyph glyph-name="cid914" unicode="&#x3080;" 
 />
    <glyph glyph-name="cid915" unicode="&#x3081;" 
 />
    <glyph glyph-name="cid916" unicode="&#x3082;" 
 />
    <glyph glyph-name="cid917" unicode="&#x3083;" 
 />
    <glyph glyph-name="cid918" unicode="&#x3084;" 
 />
    <glyph glyph-name="cid919" unicode="&#x3085;" 
 />
    <glyph glyph-name="cid920" unicode="&#x3086;" 
 />
    <glyph glyph-name="cid921" unicode="&#x3087;" 
 />
    <glyph glyph-name="cid922" unicode="&#x3088;" 
 />
    <glyph glyph-name="cid923" unicode="&#x3089;" 
 />
    <glyph glyph-name="cid924" unicode="&#x308a;" 
 />
    <glyph glyph-name="cid925" unicode="&#x308b;" 
 />
    <glyph glyph-name="cid926" unicode="&#x308c;" 
 />
    <glyph glyph-name="cid927" unicode="&#x308d;" 
 />
    <glyph glyph-name="cid928" unicode="&#x308e;" 
 />
    <glyph glyph-name="cid929" unicode="&#x308f;" 
 />
    <glyph glyph-name="cid930" unicode="&#x3090;" 
 />
    <glyph glyph-name="cid931" unicode="&#x3091;" 
 />
    <glyph glyph-name="cid932" unicode="&#x3092;" 
 />
    <glyph glyph-name="cid933" unicode="&#x3093;" 
 />
    <glyph glyph-name="cid934" unicode="&#x30a1;" 
 />
    <glyph glyph-name="cid935" unicode="&#x30a2;" 
 />
    <glyph glyph-name="cid936" unicode="&#x30a3;" 
 />
    <glyph glyph-name="cid937" unicode="&#x30a4;" 
 />
    <glyph glyph-name="cid938" unicode="&#x30a5;" 
 />
    <glyph glyph-name="cid939" unicode="&#x30a6;" 
 />
    <glyph glyph-name="cid940" unicode="&#x30a7;" 
 />
    <glyph glyph-name="cid941" unicode="&#x30a8;" 
 />
    <glyph glyph-name="cid942" unicode="&#x30a9;" 
 />
    <glyph glyph-name="cid943" unicode="&#x30aa;" 
 />
    <glyph glyph-name="cid944" unicode="&#x30ab;" 
 />
    <glyph glyph-name="cid945" unicode="&#x30ac;" 
 />
    <glyph glyph-name="cid946" unicode="&#x30ad;" 
 />
    <glyph glyph-name="cid947" unicode="&#x30ae;" 
 />
    <glyph glyph-name="cid948" unicode="&#x30af;" 
 />
    <glyph glyph-name="cid949" unicode="&#x30b0;" 
 />
    <glyph glyph-name="cid950" unicode="&#x30b1;" 
 />
    <glyph glyph-name="cid951" unicode="&#x30b2;" 
 />
    <glyph glyph-name="cid952" unicode="&#x30b3;" 
 />
    <glyph glyph-name="cid953" unicode="&#x30b4;" 
 />
    <glyph glyph-name="cid954" unicode="&#x30b5;" 
 />
    <glyph glyph-name="cid955" unicode="&#x30b6;" 
 />
    <glyph glyph-name="cid956" unicode="&#x30b7;" 
 />
    <glyph glyph-name="cid957" unicode="&#x30b8;" 
 />
    <glyph glyph-name="cid958" unicode="&#x30b9;" 
 />
    <glyph glyph-name="cid959" unicode="&#x30ba;" 
 />
    <glyph glyph-name="cid960" unicode="&#x30bb;" 
 />
    <glyph glyph-name="cid961" unicode="&#x30bc;" 
 />
    <glyph glyph-name="cid962" unicode="&#x30bd;" 
 />
    <glyph glyph-name="cid963" unicode="&#x30be;" 
 />
    <glyph glyph-name="cid964" unicode="&#x30bf;" 
 />
    <glyph glyph-name="cid965" unicode="&#x30c0;" 
 />
    <glyph glyph-name="cid966" unicode="&#x30c1;" 
 />
    <glyph glyph-name="cid967" unicode="&#x30c2;" 
 />
    <glyph glyph-name="cid968" unicode="&#x30c3;" 
 />
    <glyph glyph-name="cid969" unicode="&#x30c4;" 
 />
    <glyph glyph-name="cid970" unicode="&#x30c5;" 
 />
    <glyph glyph-name="cid971" unicode="&#x30c6;" 
 />
    <glyph glyph-name="cid972" unicode="&#x30c7;" 
 />
    <glyph glyph-name="cid973" unicode="&#x30c8;" 
 />
    <glyph glyph-name="cid974" unicode="&#x30c9;" 
 />
    <glyph glyph-name="cid975" unicode="&#x30ca;" 
 />
    <glyph glyph-name="cid976" unicode="&#x30cb;" 
 />
    <glyph glyph-name="cid977" unicode="&#x30cc;" 
 />
    <glyph glyph-name="cid978" unicode="&#x30cd;" 
 />
    <glyph glyph-name="cid979" unicode="&#x30ce;" 
 />
    <glyph glyph-name="cid980" unicode="&#x30cf;" 
 />
    <glyph glyph-name="cid981" unicode="&#x30d0;" 
 />
    <glyph glyph-name="cid982" unicode="&#x30d1;" 
 />
    <glyph glyph-name="cid983" unicode="&#x30d2;" 
 />
    <glyph glyph-name="cid984" unicode="&#x30d3;" 
 />
    <glyph glyph-name="cid985" unicode="&#x30d4;" 
 />
    <glyph glyph-name="cid986" unicode="&#x30d5;" 
 />
    <glyph glyph-name="cid987" unicode="&#x30d6;" 
 />
    <glyph glyph-name="cid988" unicode="&#x30d7;" 
 />
    <glyph glyph-name="cid989" unicode="&#x30d8;" 
 />
    <glyph glyph-name="cid990" unicode="&#x30d9;" 
 />
    <glyph glyph-name="cid991" unicode="&#x30da;" 
 />
    <glyph glyph-name="cid992" unicode="&#x30db;" 
 />
    <glyph glyph-name="cid993" unicode="&#x30dc;" 
 />
    <glyph glyph-name="cid994" unicode="&#x30dd;" 
 />
    <glyph glyph-name="cid995" unicode="&#x30de;" 
 />
    <glyph glyph-name="cid996" unicode="&#x30df;" 
 />
    <glyph glyph-name="cid997" unicode="&#x30e0;" 
 />
    <glyph glyph-name="cid998" unicode="&#x30e1;" 
 />
    <glyph glyph-name="cid999" unicode="&#x30e2;" 
 />
    <glyph glyph-name="cid1000" unicode="&#x30e3;" 
 />
    <glyph glyph-name="cid1001" unicode="&#x30e4;" 
 />
    <glyph glyph-name="cid1002" unicode="&#x30e5;" 
 />
    <glyph glyph-name="cid1003" unicode="&#x30e6;" 
 />
    <glyph glyph-name="cid1004" unicode="&#x30e7;" 
 />
    <glyph glyph-name="cid1005" unicode="&#x30e8;" 
 />
    <glyph glyph-name="cid1006" unicode="&#x30e9;" 
 />
    <glyph glyph-name="cid1007" unicode="&#x30ea;" 
 />
    <glyph glyph-name="cid1008" unicode="&#x30eb;" 
 />
    <glyph glyph-name="cid1009" unicode="&#x30ec;" 
 />
    <glyph glyph-name="cid1010" unicode="&#x30ed;" 
 />
    <glyph glyph-name="cid1011" unicode="&#x30ee;" 
 />
    <glyph glyph-name="cid1012" unicode="&#x30ef;" 
 />
    <glyph glyph-name="cid1013" unicode="&#x30f0;" 
 />
    <glyph glyph-name="cid1014" unicode="&#x30f1;" 
 />
    <glyph glyph-name="cid1015" unicode="&#x30f2;" 
 />
    <glyph glyph-name="cid1016" unicode="&#x30f3;" 
 />
    <glyph glyph-name="cid1017" unicode="&#x30f4;" 
 />
    <glyph glyph-name="cid1018" unicode="&#x30f5;" 
 />
    <glyph glyph-name="cid1019" unicode="&#x30f6;" 
 />
    <glyph glyph-name="cid9330" unicode="&#x30fc;" 
 />
    <glyph glyph-name="uni3131" unicode="&#x3131;" horiz-adv-x="950" 
d="M684 612q27 0 42 -5.5t23 -15t10 -23.5t2 -32v-110q0 -48 -1.5 -92.5t-7 -83t-16 -71.5t-29.5 -58q-10 -14 -23 -20.5t-27 -8.5t-27.5 0.5t-24.5 7.5q-24 11 -35.5 31.5t-1.5 50.5q10 34 16 63t8 56t2.5 55t0.5 61v57h-366q-28 0 -46 5.5t-28 15t-13.5 22t-3.5 27.5
q0 12 3.5 24.5t13.5 22t28 15.5t46 6h455v0z" />
    <glyph glyph-name="uni3132" unicode="&#x3132;" horiz-adv-x="950" 
d="M770 615q27 0 42 -5.5t23 -15t10 -23.5t2 -32v-198q0 -62 -4.5 -111t-15.5 -84q-9 -29 -28 -45.5t-54 -16.5q-17 0 -33 5t-27.5 15t-17.5 25.5t-4 36.5q2 18 5 34t6 34t5 41.5t2 56.5v145h-81q-28 0 -46 5.5t-28 15t-13.5 22t-3.5 27.5q0 12 3.5 24.5t13.5 22t28 15.5
t46 6h170zM365 615q27 0 42 -5.5t23 -15t10 -23.5t2 -32v-140q0 -48 -2 -86t-6.5 -70t-12.5 -60t-20 -56q-9 -23 -28 -32t-39 -9q-22 0 -40.5 5.5t-30.5 16.5t-16 28t2 40q7 28 12.5 51t8.5 46t4.5 48.5t1.5 58.5v97h-89q-28 0 -46 5.5t-28 15t-13.5 22t-3.5 27.5
q0 12 3.5 24.5t13.5 22t28 15.5t46 6h178z" />
    <glyph glyph-name="uni3133" unicode="&#x3133;" horiz-adv-x="950" 
d="M591 548q0 12 3 24.5t11 22.5t23 16.5t38 6.5q49 0 68.5 -22t19.5 -48v-178q0 -23 8 -44t21 -40.5t29.5 -37.5t33.5 -34q12 -11 16.5 -25.5t3 -28.5t-9 -26.5t-18.5 -20.5q-18 -14 -40 -19.5t-50 14.5q-9 6 -19.5 18t-21 25t-20 26.5t-16.5 22.5q-8 -9 -17.5 -22.5
t-20 -26.5t-21 -25t-19.5 -18q-28 -20 -49.5 -14.5t-39.5 19.5q-11 8 -18.5 20.5t-9 26.5t3 28.5t16.5 25.5q17 16 34 34t30.5 37.5t22 40.5t8.5 44v178zM365 615q27 0 42 -5.5t23 -15t10 -23.5t2 -32v-130q0 -48 -2 -86t-6.5 -70t-12.5 -60t-20 -56q-9 -23 -28 -32t-39 -9
q-22 0 -40.5 5.5t-30.5 16.5t-16 28t2 40q7 28 12.5 51t8.5 46t4.5 48.5t1.5 58.5v87h-89q-28 0 -46 5.5t-28 15t-13.5 22t-3.5 27.5q0 12 3.5 24.5t13.5 22t28 15.5t46 6h178z" />
    <glyph glyph-name="uni3134" unicode="&#x3134;" horiz-adv-x="950" 
d="M212 128q-28 0 -44 6t-24.5 16.5t-10.5 24t-2 28.5v320q0 50 24.5 68.5t56.5 18.5q16 0 30.5 -4t25.5 -14t18 -27t7 -42v-256h413q25 0 40 -7t23 -17t10.5 -22.5t2.5 -22.5q0 -13 -2.5 -25.5t-10.5 -22.5t-23 -16t-40 -6h-494z" />
    <glyph glyph-name="uni3135" unicode="&#x3135;" horiz-adv-x="950" 
d="M543 476h-42q-38 0 -54 17t-16 43q0 31 16 46.5t54 15.5h244q38 0 54 -15.5t16 -46.5q0 -26 -16 -43t-54 -17h-39v-94q0 -23 8 -44t21 -40.5t29.5 -37.5t33.5 -34q12 -11 16.5 -25.5t3 -28.5t-9 -26.5t-18.5 -20.5q-18 -14 -40 -19.5t-50 14.5q-9 6 -19.5 18t-21 25
t-20 26.5t-16.5 22.5q-8 -9 -17.5 -22.5t-20 -26.5t-21 -25t-19.5 -18q-28 -20 -49.5 -14.5t-39.5 19.5q-11 8 -18.5 20.5t-9 26.5t3 28.5t16.5 25.5q17 16 34 34t30.5 37.5t22 40.5t8.5 44v94zM251 252h60q28 0 46 -5.5t28 -15t13.5 -21.5t3.5 -24q0 -15 -3.5 -27.5
t-13.5 -21.5t-28 -14t-46 -5h-141q-28 0 -44 5.5t-24.5 15t-10.5 22t-2 27.5v328q0 25 6.5 41.5t18 26t26 13t30.5 3.5t30.5 -3.5t25.5 -13t18 -26t7 -41.5v-264z" />
    <glyph glyph-name="uni3136" unicode="&#x3136;" horiz-adv-x="950" 
d="M268 252h60q28 0 46 -5.5t28 -15t13.5 -21.5t3.5 -24q0 -15 -3.5 -27.5t-13.5 -21.5t-28 -14t-46 -5h-141q-28 0 -44 5.5t-24.5 15t-10.5 22t-2 27.5v328q0 25 6.5 41.5t18 26t26 13t30.5 3.5t30.5 -3.5t25.5 -13t18 -26t7 -41.5v-264zM394 442q0 23 14.5 36.5t52.5 13.5
h307q38 0 51.5 -13.5t13.5 -36.5q0 -20 -13.5 -34t-51.5 -14h-307q-38 0 -52.5 14t-14.5 34zM465 574q0 23 11.5 35.5t48.5 12.5h167q37 0 48.5 -12.5t11.5 -35.5q0 -20 -11 -32.5t-48 -12.5h-168q-37 0 -48.5 12.5t-11.5 32.5zM567 122q-26 1 -48.5 9t-39 23t-26.5 37.5
t-10 54.5q0 51 29.5 83.5t86.5 34.5q26 0 38.5 0.5t21.5 0.5t21.5 -0.5t38.5 -0.5q57 0 86.5 -33.5t29.5 -84.5q0 -32 -10 -54.5t-27 -37.5t-39.5 -23t-48.5 -9t-35.5 -1.5t-15.5 -0.5t-15.5 0.5t-36.5 1.5zM639 221q33 0 33 27q0 28 -33 28h-40q-32 0 -32 -28q0 -27 32 -27
h40z" />
    <glyph glyph-name="uni3137" unicode="&#x3137;" horiz-adv-x="950" 
d="M217 136q-28 0 -44 6t-24.5 16.5t-10.5 24t-2 28.5v314q0 50 24.5 68.5t56.5 18.5h517q25 0 40 -6t23 -16t10.5 -22.5t2.5 -25.5q0 -11 -2.5 -23t-10.5 -22t-23 -17t-40 -7h-436v-198h446q25 0 40 -7t23 -17t10.5 -22.5t2.5 -22.5q0 -13 -2.5 -25.5t-10.5 -22.5t-23 -16
t-40 -6h-527z" />
    <glyph glyph-name="uni3138" unicode="&#x3138;" horiz-adv-x="950" 
d="M197 106q-28 0 -44 6t-24.5 16.5t-10.5 24t-2 28.5v344q0 50 24.5 68.5t56.5 18.5h172q25 0 40 -6t23 -16t10.5 -22.5t2.5 -25.5q0 -11 -2.5 -23t-10.5 -22t-23 -17t-40 -7h-91v-228h95q25 0 40 -7t23 -17t10.5 -22.5t2.5 -22.5q0 -13 -2.5 -25.5t-10.5 -22.5t-23 -16
t-40 -6h-176zM596 106q-28 0 -44 6t-24.5 16.5t-10.5 24t-2 28.5v344q0 50 24.5 68.5t56.5 18.5h180q25 0 40 -6t23 -16t10.5 -22.5t2.5 -25.5q0 -11 -2.5 -23t-10.5 -22t-23 -17t-40 -7h-99v-228h109q25 0 40 -7t23 -17t10.5 -22.5t2.5 -22.5q0 -13 -2.5 -25.5t-10.5 -22.5
t-23 -16t-40 -6h-190z" />
    <glyph glyph-name="uni3139" unicode="&#x3139;" horiz-adv-x="950" 
d="M214 95q-28 0 -44 6t-24.5 16.5t-10.5 24t-2 28.5v171q0 25 6.5 41.5t18 26.5t26 14t30.5 4h425v55h-430q-25 0 -40 6.5t-23 17t-10.5 22t-2.5 22.5q0 13 2.5 25t10.5 22t23 16t40 6h511q28 0 44 -6.5t24.5 -17.5t10.5 -25t2 -29v-166q0 -37 -19.5 -60.5t-58.5 -23.5
h-428v-59h446q25 0 40 -6.5t23 -17t10.5 -22.5t2.5 -22q0 -13 -2.5 -25.5t-10.5 -22t-23 -15.5t-40 -6h-527z" />
    <glyph glyph-name="uni313A" unicode="&#x313a;" horiz-adv-x="950" 
d="M269 296v-82h166q49 0 65 -16.5t16 -41.5q0 -29 -16 -44t-65 -15h-247q-28 0 -44 4.5t-24.5 13t-10.5 20.5t-2 27v186q0 10 2.5 20t10.5 18t23 12.5t40 4.5h135v88h-138q-25 0 -40 4t-23 11.5t-10.5 17.5t-2.5 23q0 10 2.5 20.5t10.5 19t23 13.5t40 5h224q24 0 39 -5
t23.5 -13.5t11 -18.5t2.5 -20v-199q0 -12 -3 -22t-11.5 -17t-23 -10.5t-38.5 -3.5h-135zM678 469h-77q-28 0 -45 6t-26 15.5t-12 21.5t-3 24q0 15 3 27.5t12 21.5t26 14.5t45 5.5h158q28 0 44 -5.5t24.5 -14.5t10.5 -21.5t2 -27.5v-354q0 -25 -7 -41.5t-18 -26.5t-25.5 -14
t-30.5 -4t-30.5 4t-26 14t-18 26.5t-6.5 41.5v287z" />
    <glyph glyph-name="uni313B" unicode="&#x313b;" horiz-adv-x="950" 
d="M856 175q0 -15 -2 -27.5t-10.5 -22t-24.5 -15t-44 -5.5h-177q-28 0 -44 5.5t-24.5 15t-10.5 22t-2 27.5v361q0 15 2 27.5t10.5 22t24.5 15t44 5.5h177q28 0 44 -5.5t24.5 -15t10.5 -22t2 -27.5v-361zM654 480v-249h65v249h-65zM260 296v-82h132q49 0 65 -16.5t16 -41.5
q0 -29 -16 -44t-65 -15h-213q-28 0 -44 4.5t-24.5 13t-10.5 20.5t-2 27v186q0 10 2.5 20t10.5 18t23 12.5t40 4.5h121v88h-124q-25 0 -40 4t-23 11.5t-10.5 17.5t-2.5 23q0 10 2.5 20.5t10.5 19t23 13.5t40 5h210q24 0 39 -5t23.5 -13.5t11 -18.5t2.5 -20v-199q0 -12 -3 -22
t-11.5 -17t-23 -10.5t-38.5 -3.5h-121z" />
    <glyph glyph-name="uni313C" unicode="&#x313c;" horiz-adv-x="950" 
d="M634 442h70v76q0 50 22 68.5t54 18.5q31 0 52 -18.5t21 -68.5v-347q0 -15 -2 -27.5t-10.5 -22t-24.5 -15t-44 -5.5h-206q-28 0 -44 5.5t-24.5 15t-10.5 22t-2 27.5v347q0 50 20.5 68.5t52.5 18.5q16 0 29.5 -4t24 -14t16.5 -27t6 -42v-76zM232 296v-82h132q49 0 65 -16.5
t16 -41.5q0 -29 -16 -44t-65 -15h-213q-28 0 -44 4.5t-24.5 13t-10.5 20.5t-2 27v186q0 10 2.5 20t10.5 18t23 12.5t40 4.5h121v88h-124q-25 0 -40 4t-23 11.5t-10.5 17.5t-2.5 23q0 10 2.5 20.5t10.5 19t23 13.5t40 5h210q24 0 39 -5t23.5 -13.5t11 -18.5t2.5 -20v-199
q0 -12 -3 -22t-11.5 -17t-23 -10.5t-38.5 -3.5h-121zM704 324h-70v-111h70v111z" />
    <glyph glyph-name="uni313D" unicode="&#x313d;" horiz-adv-x="950" 
d="M232 296v-82h132q49 0 65 -16.5t16 -41.5q0 -29 -16 -44t-65 -15h-213q-28 0 -44 4.5t-24.5 13t-10.5 20.5t-2 27v186q0 10 2.5 20t10.5 18t23 12.5t40 4.5h121v88h-124q-25 0 -40 4t-23 11.5t-10.5 17.5t-2.5 23q0 10 2.5 20.5t10.5 19t23 13.5t40 5h210q24 0 39 -5
t23.5 -13.5t11 -18.5t2.5 -20v-199q0 -12 -3 -22t-11.5 -17t-23 -10.5t-38.5 -3.5h-121zM591 548q0 12 3 24.5t11 22.5t23 16.5t38 6.5q49 0 68.5 -22t19.5 -48v-178q0 -23 8 -44t21 -40.5t29.5 -37.5t33.5 -34q12 -11 16.5 -25.5t3 -28.5t-9 -26.5t-18.5 -20.5
q-18 -14 -40 -19.5t-50 14.5q-9 6 -19.5 18t-21 25t-20 26.5t-16.5 22.5q-8 -9 -17.5 -22.5t-20 -26.5t-21 -25t-19.5 -18q-28 -20 -49.5 -14.5t-39.5 19.5q-11 8 -18.5 20.5t-9 26.5t3 28.5t16.5 25.5q17 16 34 34t30.5 37.5t22 40.5t8.5 44v178z" />
    <glyph glyph-name="uni313E" unicode="&#x313e;" horiz-adv-x="950" 
d="M730 214q49 0 65 -16.5t16 -41.5q0 -29 -16 -44t-65 -15h-183q-28 0 -44 4.5t-24.5 13t-10.5 20.5t-2 27v378q0 15 2 27t10.5 20.5t24.5 13t44 4.5h183q49 0 65 -15t16 -44q0 -25 -16 -41.5t-65 -16.5h-102v-74h92q49 0 65 -15t16 -44q0 -25 -16 -41.5t-65 -16.5h-92v-83
h102zM232 304v-90h112q49 0 65 -16.5t16 -41.5q0 -29 -16 -44t-65 -15h-193q-28 0 -44 4.5t-24.5 13t-10.5 20.5t-2 27v194q0 10 2.5 20t10.5 18t23 12.5t40 4.5h101v80h-104q-25 0 -40 4t-23 11.5t-10.5 17.5t-2.5 23q0 10 2.5 20.5t10.5 19t23 13.5t40 5h190q24 0 39 -5
t23.5 -13.5t11 -18.5t2.5 -20v-191q0 -12 -3 -22t-11.5 -17t-23 -10.5t-38.5 -3.5h-101z" />
    <glyph glyph-name="uni313F" unicode="&#x313f;" horiz-adv-x="950" 
d="M519 101q-35 0 -50.5 12t-15.5 39q0 21 15 35t48 15v302q-33 0 -48 12.5t-15 38.5q0 22 15.5 36t50.5 14h271q35 0 50.5 -14t15.5 -36q0 -50 -62 -51v-302q32 -1 47 -15t15 -35q0 -27 -15.5 -39t-50.5 -12h-271zM232 304v-90h112q49 0 65 -16.5t16 -41.5q0 -29 -16 -44
t-65 -15h-193q-28 0 -44 4.5t-24.5 13t-10.5 20.5t-2 27v194q0 10 2.5 20t10.5 18t23 12.5t40 4.5h101v80h-104q-25 0 -40 4t-23 11.5t-10.5 17.5t-2.5 23q0 10 2.5 20.5t10.5 19t23 13.5t40 5h190q24 0 39 -5t23.5 -13.5t11 -18.5t2.5 -20v-191q0 -12 -3 -22t-11.5 -17
t-23 -10.5t-38.5 -3.5h-101zM633 202h44v302h-44v-302z" />
    <glyph glyph-name="uni3140" unicode="&#x3140;" horiz-adv-x="950" 
d="M232 304v-90h112q49 0 65 -16.5t16 -41.5q0 -29 -16 -44t-65 -15h-193q-28 0 -44 4.5t-24.5 13t-10.5 20.5t-2 27v194q0 10 2.5 20t10.5 18t23 12.5t40 4.5h101v80h-104q-25 0 -40 4t-23 11.5t-10.5 17.5t-2.5 23q0 10 2.5 20.5t10.5 19t23 13.5t40 5h190q24 0 39 -5
t23.5 -13.5t11 -18.5t2.5 -20v-191q0 -12 -3 -22t-11.5 -17t-23 -10.5t-38.5 -3.5h-101zM424 422q0 23 14.5 36.5t52.5 13.5h297q38 0 51.5 -13.5t13.5 -36.5q0 -20 -13.5 -34t-51.5 -14h-297q-38 0 -52.5 14t-14.5 34zM495 554q0 23 11.5 35.5t48.5 12.5h157
q37 0 48.5 -12.5t11.5 -35.5q0 -20 -11 -32.5t-48 -12.5h-158q-37 0 -48.5 12.5t-11.5 32.5zM597 102q-26 1 -48.5 9t-39 23t-26.5 37.5t-10 54.5q0 51 29.5 83.5t86.5 34.5q26 0 36.5 0.5t18 0.5t18.5 -0.5t37 -0.5q57 0 86.5 -33.5t29.5 -84.5q0 -32 -10 -54.5t-27 -37.5
t-39.5 -23t-48.5 -9t-34 -1.5t-12 -0.5t-12 0.5t-35 1.5zM659 201q33 0 33 27q0 28 -33 28h-30q-32 0 -32 -28q0 -27 32 -27h30z" />
    <glyph glyph-name="uni3141" unicode="&#x3141;" horiz-adv-x="950" 
d="M201 107q-27 0 -42 6.5t-22.5 17t-9.5 24t-2 27.5v324q0 50 24.5 68.5t56.5 18.5h537q16 0 30.5 -4t25.5 -14t18 -27t7 -42v-324q0 -14 -2 -27.5t-9.5 -24t-23 -17t-41.5 -6.5h-547zM287 246h375v208h-375v-208z" />
    <glyph glyph-name="uni3142" unicode="&#x3142;" horiz-adv-x="950" 
d="M288 469h372v61q0 25 7 42t19 27t27 14t31 4t30 -4t25 -14t17.5 -27t6.5 -42v-355q0 -15 -2 -27.5t-10.5 -22t-24.5 -15t-44 -5.5h-536q-28 0 -44 5.5t-24.5 15t-10.5 22t-2 27.5v355q0 50 23.5 68.5t55.5 18.5q16 0 31 -4t27 -14t19 -27t7 -42v-61zM660 337h-372v-100
h372v100z" />
    <glyph glyph-name="uni3143" unicode="&#x3143;" horiz-adv-x="950" 
d="M235 460h68v64q0 50 21.5 68.5t53.5 18.5q31 0 50.5 -18.5t19.5 -68.5v-348q0 -15 -2 -27.5t-10.5 -22t-24.5 -15t-44 -5.5h-196q-28 0 -44 5.5t-24.5 15t-10.5 22t-2 27.5v348q0 50 19 68.5t51 18.5q16 0 29.5 -4t23.5 -14t16 -27t6 -42v-64zM645 460h68v64
q0 50 21.5 68.5t53.5 18.5q31 0 50.5 -18.5t19.5 -68.5v-348q0 -15 -2 -27.5t-10.5 -22t-24.5 -15t-44 -5.5h-196q-28 0 -44 5.5t-24.5 15t-10.5 22t-2 27.5v348q0 50 19 68.5t51 18.5q16 0 29.5 -4t23.5 -14t16 -27t6 -42v-64zM713 328h-68v-90h68v90zM303 328h-68v-90h68
v90z" />
    <glyph glyph-name="uni3144" unicode="&#x3144;" horiz-adv-x="950" 
d="M235 460h68v64q0 50 21.5 68.5t53.5 18.5q31 0 50.5 -18.5t19.5 -68.5v-348q0 -15 -2 -27.5t-10.5 -22t-24.5 -15t-44 -5.5h-196q-28 0 -44 5.5t-24.5 15t-10.5 22t-2 27.5v348q0 50 19 68.5t51 18.5q16 0 29.5 -4t23.5 -14t16 -27t6 -42v-64zM591 548q0 12 3 24.5
t11 22.5t23 16.5t38 6.5q49 0 68.5 -22t19.5 -48v-178q0 -23 8 -44t21 -40.5t29.5 -37.5t33.5 -34q12 -11 16.5 -25.5t3 -28.5t-9 -26.5t-18.5 -20.5q-18 -14 -40 -19.5t-50 14.5q-9 6 -19.5 18t-21 25t-20 26.5t-16.5 22.5q-8 -9 -17.5 -22.5t-20 -26.5t-21 -25t-19.5 -18
q-28 -20 -49.5 -14.5t-39.5 19.5q-11 8 -18.5 20.5t-9 26.5t3 28.5t16.5 25.5q17 16 34 34t30.5 37.5t22 40.5t8.5 44v178zM303 328h-68v-90h68v90z" />
    <glyph glyph-name="uni3145" unicode="&#x3145;" horiz-adv-x="950" 
d="M394 539q0 25 7.5 42t19.5 27t27.5 14t31.5 4t31.5 -4t27.5 -14t19.5 -27t7.5 -42v-29q0 -38 16.5 -74.5t45.5 -68t68 -56t84 -37.5q38 -11 57.5 -35t11.5 -61q-9 -39 -46 -52q-11 -4 -23 -5t-24 2q-45 10 -84 30t-73.5 45.5t-64.5 56t-56 62.5q-54 -63 -118.5 -115
t-139.5 -72q-14 -4 -30.5 -5.5t-32.5 1.5q-17 4 -32 15t-22 34q-11 36 6 61.5t54 39.5q43 16 85 41t74 55.5t52 66t20 73.5v27z" />
    <glyph glyph-name="uni3146" unicode="&#x3146;" horiz-adv-x="950" 
d="M241 528q0 25 8 42t20.5 27t28 14t31.5 4t31.5 -4t28 -14t20.5 -27t8 -42v-75q0 -39 -11.5 -81.5t-37 -84.5t-67 -82.5t-100.5 -76.5q-14 -9 -32 -12.5t-36 -1t-33.5 11.5t-24.5 26q-17 34 -4.5 62t46.5 48q40 24 64 47t37.5 48t18 53t4.5 62v56zM498 122
q-29 -18 -61 -12.5t-49 32.5q-17 29 -11.5 56.5t38.5 50.5q37 26 57.5 53t30.5 55.5t12.5 60t3.5 67.5v43q0 25 8 42t20.5 27t28.5 14t32 4t31.5 -4t28 -14t20 -27t7.5 -42v-57q0 -39 7.5 -67.5t23.5 -53.5t41.5 -48.5t62.5 -51.5q32 -24 42.5 -52.5t-9.5 -60.5
q-12 -20 -29 -27t-34 -6q-16 1 -32 5.5t-28 13.5q-38 26 -69.5 59.5t-49.5 62.5q-10 -18 -24.5 -35.5t-31.5 -34t-34.5 -30.5t-32.5 -23z" />
    <glyph glyph-name="uni3147" unicode="&#x3147;" horiz-adv-x="950" 
d="M105 391q0 40 15 79t43.5 69.5t68 49.5t89.5 19h306q49 0 89 -19t68.5 -49.5t43.5 -69.5t15 -79v-83q0 -41 -13 -77.5t-39.5 -65t-66 -45.5t-92.5 -17h-315q-53 0 -92.5 17t-66 45.5t-40 65t-13.5 77.5v83zM267 333q0 -37 20.5 -63t63.5 -28h246q43 2 63.5 28t20.5 63v45
q0 38 -20.5 64.5t-66.5 26.5h-240q-46 0 -66.5 -26.5t-20.5 -64.5v-45z" />
    <glyph glyph-name="uni3148" unicode="&#x3148;" horiz-adv-x="950" 
d="M134 536q0 15 3.5 27.5t13.5 22t28 15t46 5.5h496q28 0 46 -5.5t28 -15t13.5 -22t3.5 -27.5q0 -12 -3.5 -24.5t-13.5 -22t-28 -15.5t-46 -6h-155q0 -38 18 -73t49 -64.5t71.5 -52.5t85.5 -36q38 -11 57.5 -35t11.5 -61q-9 -39 -46 -52q-11 -4 -23 -5t-24 2
q-90 21 -162.5 70.5t-125.5 114.5q-54 -63 -123.5 -110.5t-144.5 -67.5q-14 -4 -30.5 -5.5t-32.5 1.5q-17 4 -32 15t-22 34q-11 36 6 61.5t54 39.5q43 16 86.5 39t77.5 51.5t55.5 62t21.5 71.5h-169q-28 0 -46 6t-28 15.5t-13.5 22t-3.5 24.5z" />
    <glyph glyph-name="uni3149" unicode="&#x3149;" horiz-adv-x="950" 
d="M501 108q-12 -8 -28.5 -12t-33 -2.5t-31.5 10.5t-24 26q-31 58 31 108q38 31 58.5 58.5t30 55.5t12 58t3.5 66v3h-98v-35q0 -39 -10.5 -81.5t-35 -84.5t-65 -82.5t-99.5 -76.5q-14 -9 -32 -12.5t-36 -1t-33.5 11.5t-24.5 26q-17 34 -4.5 62t46.5 48q40 24 63.5 47
t35.5 48t15.5 53t3.5 62v16h-33q-28 0 -46 5.5t-28 14.5t-13.5 21t-3.5 24q0 15 3.5 27t13.5 20.5t28 13.5t46 5h522q28 0 46 -5t28 -13.5t13.5 -20.5t3.5 -27q0 -12 -3.5 -24t-13.5 -21t-28 -14.5t-46 -5.5h-39v-17q0 -39 5.5 -67t20 -51.5t38.5 -46.5t61 -51
q32 -24 42.5 -52.5t-9.5 -60.5q-9 -15 -24 -23t-32.5 -9.5t-35 3t-31.5 15.5q-38 26 -64.5 57.5t-44.5 60.5q-10 -18 -25 -36.5t-31.5 -36t-33.5 -32.5t-30 -24z" />
    <glyph glyph-name="uni314A" unicode="&#x314a;" horiz-adv-x="950" 
d="M134 404q0 15 3.5 27t13.5 20.5t28 13t46 4.5h496q28 0 46 -4.5t28 -13t13.5 -20.5t3.5 -27q0 -12 -3.5 -23.5t-13.5 -20.5t-28 -14t-46 -5h-154q7 -29 26.5 -48.5t47.5 -33t63.5 -24t75.5 -20.5q38 -11 56 -32t13 -59q-3 -19 -11 -30.5t-20.5 -18t-27.5 -7.5t-31 1
q-31 4 -69 16t-77 29t-74.5 40t-61.5 50q-53 -48 -119.5 -78t-141.5 -50q-16 -4 -33.5 -5t-33 3.5t-28 15.5t-18.5 31q-11 36 5.5 61t54.5 35q41 10 78 22.5t67 27.5t51.5 33t30.5 41h-165q-28 0 -46 5t-28 14t-13.5 20.5t-3.5 23.5zM252 575q0 24 10.5 41t45.5 17h310
q35 0 45.5 -17t10.5 -41q0 -10 -2.5 -20t-8.5 -18t-17 -13t-28 -5h-310q-17 0 -28 5t-17 13t-8.5 18t-2.5 20z" />
    <glyph glyph-name="uni314B" unicode="&#x314b;" horiz-adv-x="950" 
d="M733 608q27 0 42 -5.5t23 -15t10 -23.5t2 -32v-160q0 -48 -1.5 -91t-7 -79.5t-16 -68t-29.5 -56.5q-10 -14 -23 -20.5t-27 -8.5t-27.5 0.5t-24.5 7.5q-24 11 -35.5 34t-1.5 53q8 26 13 46t8 38h-429q-28 0 -46 5.5t-28 15t-13.5 22t-3.5 27.5q0 12 3.5 24.5t13.5 22
t28 15.5t46 6h435v105h-418q-28 0 -46 5.5t-28 15t-13.5 22t-3.5 27.5q0 12 3.5 24.5t13.5 22t28 15.5t46 6h507v0z" />
    <glyph glyph-name="uni314C" unicode="&#x314c;" horiz-adv-x="950" 
d="M197 71q-28 0 -44 6t-24.5 16.5t-10.5 24t-2 28.5v385q0 25 6.5 40.5t18 24t26 11.5t30.5 3h547q25 0 40 -6t23 -16t10.5 -22t2.5 -25q0 -11 -2.5 -22.5t-10.5 -22t-23 -17t-40 -6.5h-466v-63h466q25 0 40 -6t23 -16t10.5 -22t2.5 -25q0 -11 -2.5 -22.5t-10.5 -22
t-23 -17t-40 -6.5h-466v-65h476q25 0 40 -6.5t23 -17t10.5 -22.5t2.5 -22q0 -13 -2.5 -25.5t-10.5 -22t-23 -15.5t-40 -6h-557z" />
    <glyph glyph-name="uni314D" unicode="&#x314d;" horiz-adv-x="950" 
d="M101 193q0 15 3.5 27.5t13.5 22t28 15t46 5.5h43v212h-38q-28 0 -46 6t-28 15.5t-13.5 22t-3.5 24.5q0 15 3.5 27.5t13.5 22t28 15t46 5.5h565q28 0 46 -5.5t28 -15t13.5 -22t3.5 -27.5q0 -12 -3.5 -24.5t-13.5 -22t-28 -15.5t-46 -6h-38v-212h43q28 0 46 -5.5t28 -15
t13.5 -22t3.5 -27.5q0 -12 -3.5 -24.5t-13.5 -22t-28 -15.5t-46 -6h-575q-28 0 -46 6t-28 15.5t-13.5 22t-3.5 24.5zM397 263h165v212h-165v-212z" />
    <glyph glyph-name="uni314E" unicode="&#x314e;" horiz-adv-x="950" 
d="M149 211q0 40 15 67t43.5 43.5t68 23.5t89.5 7h226q49 0 89 -7t68.5 -23.5t43.5 -43.5t15 -67v-35q0 -63 -52.5 -99t-158.5 -37h-235q-212 2 -212 136v35zM311 191q0 -23 20.5 -30t63.5 -8h166q43 1 63.5 8t20.5 30v10q0 24 -20.5 30t-66.5 6h-160q-46 0 -66.5 -6
t-20.5 -30v-10zM108 453q0 15 3.5 26.5t13.5 19.5t28 12t46 4h556q28 0 46 -4t28 -12t13.5 -19.5t3.5 -26.5q0 -12 -3.5 -23t-13.5 -19.5t-28 -13t-46 -4.5h-556q-28 0 -46 4.5t-28 13t-13.5 19.5t-3.5 23zM236 609q0 24 10.5 39t45.5 15h350q35 0 45.5 -15t10.5 -39
q0 -20 -10.5 -36t-45.5 -16h-350q-35 0 -45.5 16t-10.5 36z" />
    <glyph glyph-name="uni314F" unicode="&#x314f;" horiz-adv-x="950" 
d="M397 623q0 50 24.5 68.5t56.5 18.5q16 0 30.5 -4t25.5 -14t18 -27t7 -42v-240h79q28 0 46 -6.5t28 -16.5t13.5 -22.5t3.5 -24.5q0 -15 -3.5 -28t-13.5 -22.5t-28 -15.5t-46 -6h-79v-301q0 -26 -7 -43t-18 -27t-25.5 -14t-30.5 -4t-30.5 4t-26 14t-18 27t-6.5 43v683z" />
    <glyph glyph-name="uni3150" unicode="&#x3150;" horiz-adv-x="950" 
d="M298 623q0 50 21.5 68.5t49.5 18.5q27 0 48.5 -18.5t21.5 -68.5v-230h84v230q0 50 21.5 68.5t49.5 18.5q27 0 48.5 -18.5t21.5 -68.5v-683q0 -26 -6 -43t-15.5 -27t-22.5 -14t-26 -4q-14 0 -27 4t-22.5 14t-15.5 27t-6 43v315h-84v-315q0 -26 -6 -43t-15.5 -27t-22.5 -14
t-26 -4q-14 0 -27 4t-22.5 14t-15.5 27t-6 43v683z" />
    <glyph glyph-name="uni3151" unicode="&#x3151;" horiz-adv-x="950" 
d="M400 623q0 50 24.5 68.5t56.5 18.5q16 0 30.5 -4t25.5 -14t18 -27t7 -42v-96h69q28 0 46 -6t28 -15.5t13.5 -22t3.5 -24.5q0 -15 -3.5 -27.5t-13.5 -22t-28 -15t-46 -5.5h-69v-173h69q28 0 46 -6t28 -15.5t13.5 -22t3.5 -24.5q0 -15 -3.5 -27.5t-13.5 -22t-28 -15
t-46 -5.5h-69v-138q0 -26 -7 -43t-18 -27t-25.5 -14t-30.5 -4t-30.5 4t-26 14t-18 27t-6.5 43v683z" />
    <glyph glyph-name="uni3152" unicode="&#x3152;" horiz-adv-x="950" 
d="M299 623q0 50 21.5 68.5t49.5 18.5q27 0 48.5 -18.5t21.5 -68.5v-91h84v91q0 50 21.5 68.5t49.5 18.5q27 0 48.5 -18.5t21.5 -68.5v-683q0 -26 -6 -43t-15.5 -27t-22.5 -14t-26 -4q-14 0 -27 4t-22.5 14t-15.5 27t-6 43v142h-84v-142q0 -26 -6 -43t-15.5 -27t-22.5 -14
t-26 -4q-14 0 -27 4t-22.5 14t-15.5 27t-6 43v683zM440 220h84v174h-84v-174z" />
    <glyph glyph-name="uni3153" unicode="&#x3153;" horiz-adv-x="950" 
d="M453 246h-116q-28 0 -45 5.5t-26.5 15.5t-12.5 22.5t-3 27.5q0 12 3 24.5t12.5 22.5t26.5 16t45 6h116v237q0 50 24.5 68.5t56.5 18.5q16 0 30.5 -4t25.5 -14t18 -27t7 -42v-683q0 -26 -7 -43t-18 -27t-25.5 -14t-30.5 -4t-30.5 4t-26 14t-18 27t-6.5 43v306z" />
    <glyph glyph-name="uni3154" unicode="&#x3154;" horiz-adv-x="950" 
d="M358 237h-108q-28 0 -45 5.5t-26.5 15t-12.5 22t-3 27.5q0 12 3 24.5t12.5 22t26.5 15.5t45 6h108v248q0 50 21.5 68.5t49.5 18.5q27 0 48.5 -18.5t21.5 -68.5v-683q0 -26 -6 -43t-15.5 -27t-22.5 -14t-26 -4q-14 0 -27 4t-22.5 14t-15.5 27t-6 43v297zM586 623
q0 50 21.5 68.5t49.5 18.5q27 0 48.5 -18.5t21.5 -68.5v-683q0 -26 -6 -43t-15.5 -27t-22.5 -14t-26 -4q-14 0 -27 4t-22.5 14t-15.5 27t-6 43v683z" />
    <glyph glyph-name="uni3155" unicode="&#x3155;" horiz-adv-x="950" 
d="M473 89h-140q-28 0 -45 5.5t-26.5 15.5t-12.5 22.5t-3 27.5q0 12 3 24.5t12.5 22.5t26.5 16t45 6h140v123h-140q-28 0 -45 5.5t-26.5 15.5t-12.5 22.5t-3 27.5q0 12 3 24.5t12.5 22.5t26.5 16t45 6h140v131q0 50 24.5 68.5t56.5 18.5q16 0 30.5 -4t25.5 -14t18 -27t7 -42
v-683q0 -26 -7 -43t-18 -27t-25.5 -14t-30.5 -4t-30.5 4t-26 14t-18 27t-6.5 43v149z" />
    <glyph glyph-name="uni3156" unicode="&#x3156;" horiz-adv-x="950" 
d="M377 94h-88q-28 0 -45 5.5t-26.5 15t-12.5 22t-3 27.5q0 12 3 24.5t12.5 22t26.5 15.5t45 6h88v114h-88q-28 0 -45 5.5t-26.5 15t-12.5 22t-3 27.5q0 12 3 24.5t12.5 22t26.5 15.5t45 6h88v139q0 50 21.5 68.5t49.5 18.5q27 0 48.5 -18.5t21.5 -68.5v-683q0 -26 -6 -43
t-15.5 -27t-22.5 -14t-26 -4q-14 0 -27 4t-22.5 14t-15.5 27t-6 43v154zM605 623q0 50 21.5 68.5t49.5 18.5q27 0 48.5 -18.5t21.5 -68.5v-683q0 -26 -6 -43t-15.5 -27t-22.5 -14t-26 -4q-14 0 -27 4t-22.5 14t-15.5 27t-6 43v683z" />
    <glyph glyph-name="uni3157" unicode="&#x3157;" horiz-adv-x="950" 
d="M36 160q0 15 3.5 27.5t13.5 22t28 15t46 5.5h267v162q0 50 24.5 68.5t56.5 18.5q16 0 30.5 -4t25.5 -14t18 -27t7 -42v-162h266q28 0 46 -5.5t28 -15t13.5 -22t3.5 -27.5q0 -12 -3.5 -24.5t-13.5 -22t-28 -15.5t-46 -6h-695q-28 0 -46 6t-28 15.5t-13.5 22t-3.5 24.5z
" />
    <glyph glyph-name="uni3158" unicode="&#x3158;" horiz-adv-x="950" 
d="M630 623q0 50 24.5 68.5t56.5 18.5q16 0 30.5 -4t25.5 -14t18 -27t7 -42v-240h51q28 0 46 -6.5t28 -16.5t13.5 -22.5t3.5 -24.5q0 -15 -3.5 -28t-13.5 -22.5t-28 -15.5t-46 -6h-51v-301q0 -26 -7 -43t-18 -27t-25.5 -14t-30.5 -4t-30.5 4t-26 14t-18 27t-6.5 43v683z
M16 -68q0 15 3.5 27.5t13.5 22t28 15t46 5.5h107v133q0 50 24.5 68.5t56.5 18.5q16 0 30.5 -4t25.5 -14t18 -27t7 -42v-133h115q28 0 46 -5.5t28 -15t13.5 -22t3.5 -27.5q0 -12 -3.5 -24.5t-13.5 -22t-28 -15.5t-46 -6h-384q-28 0 -46 6t-28 15.5t-13.5 22t-3.5 24.5z" />
    <glyph glyph-name="uni3159" unicode="&#x3159;" horiz-adv-x="950" 
d="M738 231h-75v-291q0 -26 -6 -43t-16.5 -27t-24 -14t-29.5 -4t-29.5 4t-24 14t-16.5 27t-6 43v683q0 50 22 68.5t54 18.5q16 0 29.5 -4t24 -14t16.5 -27t6 -42v-250h75v250q0 50 22 68.5t54 18.5q16 0 29.5 -4t24 -14t16.5 -27t6 -42v-683q0 -26 -6 -43t-16.5 -27t-24 -14
t-29.5 -4t-29.5 4t-24 14t-16.5 27t-6 43v291zM26 -68q0 15 4 27.5t14.5 22t28.5 15t46 5.5h58v133q0 50 23 68.5t55 18.5q31 0 52.5 -18.5t21.5 -68.5v-133h52q28 0 46 -5.5t28 -15t13.5 -22t3.5 -27.5q0 -12 -3.5 -24.5t-13.5 -22t-28 -15.5t-46 -6h-264q-28 0 -46 6
t-28 15.5t-13.5 22t-3.5 24.5z" />
    <glyph glyph-name="uni315A" unicode="&#x315a;" horiz-adv-x="950" 
d="M691 623q0 50 24.5 68.5t56.5 18.5q16 0 30.5 -4t25.5 -14t18 -27t7 -42v-683q0 -26 -7 -43t-18 -27t-25.5 -14t-30.5 -4t-30.5 4t-26 14t-18 27t-6.5 43v683zM36 -68q0 15 3.5 27.5t13.5 22t28 15t46 5.5h121v133q0 50 24.5 68.5t56.5 18.5q16 0 30.5 -4t25.5 -14
t18 -27t7 -42v-133h117q28 0 46 -5.5t28 -15t13.5 -22t3.5 -27.5q0 -12 -3.5 -24.5t-13.5 -22t-28 -15.5t-46 -6h-400q-28 0 -46 6t-28 15.5t-13.5 22t-3.5 24.5z" />
    <glyph glyph-name="uni315B" unicode="&#x315b;" horiz-adv-x="950" 
d="M36 160q0 15 3.5 27.5t13.5 22t28 15t46 5.5h115v126q0 50 24.5 68.5t56.5 18.5q16 0 30.5 -4t25.5 -14t18 -27t7 -42v-126h142v126q0 50 24.5 68.5t56.5 18.5q16 0 30.5 -4t25.5 -14t18 -27t7 -42v-126h114q28 0 46 -5.5t28 -15t13.5 -22t3.5 -27.5q0 -12 -3.5 -24.5
t-13.5 -22t-28 -15.5t-46 -6h-695q-28 0 -46 6t-28 15.5t-13.5 22t-3.5 24.5z" />
    <glyph glyph-name="uni315C" unicode="&#x315c;" horiz-adv-x="950" 
d="M36 306q0 15 3.5 27.5t13.5 22t28 15t46 5.5h695q28 0 46 -5.5t28 -15t13.5 -22t3.5 -27.5q0 -12 -3.5 -24.5t-13.5 -22t-28 -15.5t-46 -6h-266v-128q0 -26 -7 -43t-18 -27t-25.5 -14t-30.5 -4t-30.5 4t-26 14t-18 27t-6.5 43v128h-267q-28 0 -46 6t-28 15.5t-13.5 22
t-3.5 24.5z" />
    <glyph glyph-name="uni315D" unicode="&#x315d;" horiz-adv-x="950" 
d="M691 -21h-111q-28 0 -45 5.5t-26.5 15t-12.5 22t-3 27.5q0 12 3 24.5t12.5 22t26.5 15.5t45 6h111v506q0 50 24.5 68.5t56.5 18.5q16 0 30.5 -4t25.5 -14t18 -27t7 -42v-683q0 -26 -7 -43t-18 -27t-25.5 -14t-30.5 -4t-30.5 4t-26 14t-18 27t-6.5 43v39zM36 264
q0 15 3.5 27.5t13.5 22t28 15t46 5.5h406q28 0 46 -5.5t28 -15t13.5 -22t3.5 -27.5q0 -12 -3.5 -24.5t-13.5 -22t-28 -15.5t-46 -6h-131v-256q0 -26 -7 -43t-18 -27t-25.5 -14t-30.5 -4t-30.5 4t-26 14t-18 27t-6.5 43v256h-113q-28 0 -46 6t-28 15.5t-13.5 22t-3.5 24.5z
" />
    <glyph glyph-name="uni315E" unicode="&#x315e;" horiz-adv-x="950" 
d="M524 9h-71q-28 0 -45 5.5t-26.5 15t-12.5 22t-3 27.5q0 12 3 24.5t12.5 22t26.5 15.5t45 6h71v476q0 50 22 68.5t54 18.5q16 0 29.5 -4t24 -14t16.5 -27t6 -42v-683q0 -26 -6 -43t-16.5 -27t-24 -14t-29.5 -4t-29.5 4t-24 14t-16.5 27t-6 43v69zM738 623q0 50 22 68.5
t54 18.5q16 0 29.5 -4t24 -14t16.5 -27t6 -42v-683q0 -26 -6 -43t-16.5 -27t-24 -14t-29.5 -4t-29.5 4t-24 14t-16.5 27t-6 43v683zM26 288q0 15 3.5 27.5t13.5 22t28 15t46 5.5h280q28 0 45.5 -5.5t27 -15t12.5 -22t3 -27.5q0 -12 -3 -24.5t-12.5 -22t-27 -15.5t-45.5 -6
h-78v-280q0 -26 -7 -43t-18 -27t-25.5 -14t-30.5 -4t-30.5 4t-26 14t-18 27t-6.5 43v280h-40q-28 0 -46 6t-28 15.5t-13.5 22t-3.5 24.5z" />
    <glyph glyph-name="uni315F" unicode="&#x315f;" horiz-adv-x="950" 
d="M691 623q0 50 24.5 68.5t56.5 18.5q16 0 30.5 -4t25.5 -14t18 -27t7 -42v-683q0 -26 -7 -43t-18 -27t-25.5 -14t-30.5 -4t-30.5 4t-26 14t-18 27t-6.5 43v683zM36 254q0 15 3.5 27.5t13.5 22t28 15t46 5.5h403q28 0 46 -5.5t28 -15t13.5 -22t3.5 -27.5q0 -12 -3.5 -24.5
t-13.5 -22t-28 -15.5t-46 -6h-124v-246q0 -26 -7 -43t-18 -27t-25.5 -14t-30.5 -4t-30.5 4t-26 14t-18 27t-6.5 43v246h-117q-28 0 -46 6t-28 15.5t-13.5 22t-3.5 24.5z" />
    <glyph glyph-name="uni3160" unicode="&#x3160;" horiz-adv-x="950" 
d="M36 297q0 15 3.5 27.5t13.5 22t28 15t46 5.5h695q28 0 46 -5.5t28 -15t13.5 -22t3.5 -27.5q0 -12 -3.5 -24.5t-13.5 -22t-28 -15.5t-46 -6h-99v-128q0 -26 -7 -43t-18 -27t-25.5 -14t-30.5 -4t-30.5 4t-26 14t-18 27t-6.5 43v128h-172v-128q0 -26 -7 -43t-18 -27
t-25.5 -14t-30.5 -4t-30.5 4t-26 14t-18 27t-6.5 43v128h-100q-28 0 -46 6t-28 15.5t-13.5 22t-3.5 24.5z" />
    <glyph glyph-name="uni3161" unicode="&#x3161;" horiz-adv-x="950" 
d="M36 232q0 15 3.5 27.5t13.5 22t28 15t46 5.5h695q28 0 46 -5.5t28 -15t13.5 -22t3.5 -27.5q0 -12 -3.5 -24.5t-13.5 -22t-28 -15.5t-46 -6h-695q-28 0 -46 6t-28 15.5t-13.5 22t-3.5 24.5z" />
    <glyph glyph-name="uni3162" unicode="&#x3162;" horiz-adv-x="950" 
d="M36 -58q0 15 3.5 27.5t13.5 22t28 15t46 5.5h400q28 0 46 -5.5t28 -15t13.5 -22t3.5 -27.5q0 -12 -3.5 -24.5t-13.5 -22t-28 -15.5t-46 -6h-400q-28 0 -46 6t-28 15.5t-13.5 22t-3.5 24.5zM691 623q0 50 24.5 68.5t56.5 18.5q16 0 30.5 -4t25.5 -14t18 -27t7 -42v-683
q0 -26 -7 -43t-18 -27t-25.5 -14t-30.5 -4t-30.5 4t-26 14t-18 27t-6.5 43v683z" />
    <glyph glyph-name="uni3163" unicode="&#x3163;" horiz-adv-x="950" 
d="M386 623q0 50 24.5 68.5t56.5 18.5q16 0 30.5 -4t25.5 -14t18 -27t7 -42v-683q0 -26 -7 -43t-18 -27t-25.5 -14t-30.5 -4t-30.5 4t-26 14t-18 27t-6.5 43v683z" />
    <glyph glyph-name="cid409" unicode="&#x3165;" 
 />
    <glyph glyph-name="cid410" unicode="&#x3166;" 
 />
    <glyph glyph-name="cid411" unicode="&#x3167;" 
 />
    <glyph glyph-name="cid412" unicode="&#x3168;" 
 />
    <glyph glyph-name="cid413" unicode="&#x3169;" 
 />
    <glyph glyph-name="cid414" unicode="&#x316a;" 
 />
    <glyph glyph-name="cid415" unicode="&#x316b;" 
 />
    <glyph glyph-name="cid416" unicode="&#x316c;" 
 />
    <glyph glyph-name="cid417" unicode="&#x316d;" 
 />
    <glyph glyph-name="cid418" unicode="&#x316e;" 
 />
    <glyph glyph-name="cid419" unicode="&#x316f;" 
 />
    <glyph glyph-name="cid420" unicode="&#x3170;" 
 />
    <glyph glyph-name="cid421" unicode="&#x3171;" 
 />
    <glyph glyph-name="cid422" unicode="&#x3172;" 
 />
    <glyph glyph-name="cid423" unicode="&#x3173;" 
 />
    <glyph glyph-name="cid424" unicode="&#x3174;" 
 />
    <glyph glyph-name="cid425" unicode="&#x3175;" 
 />
    <glyph glyph-name="cid426" unicode="&#x3176;" 
 />
    <glyph glyph-name="cid427" unicode="&#x3177;" 
 />
    <glyph glyph-name="cid428" unicode="&#x3178;" 
 />
    <glyph glyph-name="cid429" unicode="&#x3179;" 
 />
    <glyph glyph-name="cid430" unicode="&#x317a;" 
 />
    <glyph glyph-name="cid431" unicode="&#x317b;" 
 />
    <glyph glyph-name="cid432" unicode="&#x317c;" 
 />
    <glyph glyph-name="cid433" unicode="&#x317d;" 
 />
    <glyph glyph-name="cid434" unicode="&#x317e;" 
 />
    <glyph glyph-name="cid435" unicode="&#x317f;" 
 />
    <glyph glyph-name="cid436" unicode="&#x3180;" 
 />
    <glyph glyph-name="cid437" unicode="&#x3181;" 
 />
    <glyph glyph-name="cid438" unicode="&#x3182;" 
 />
    <glyph glyph-name="cid439" unicode="&#x3183;" 
 />
    <glyph glyph-name="cid440" unicode="&#x3184;" 
 />
    <glyph glyph-name="cid441" unicode="&#x3185;" 
 />
    <glyph glyph-name="cid442" unicode="&#x3186;" 
 />
    <glyph glyph-name="cid443" unicode="&#x3187;" 
 />
    <glyph glyph-name="cid444" unicode="&#x3188;" 
 />
    <glyph glyph-name="cid445" unicode="&#x3189;" 
 />
    <glyph glyph-name="cid446" unicode="&#x318a;" 
 />
    <glyph glyph-name="cid447" unicode="&#x318b;" 
 />
    <glyph glyph-name="cid448" unicode="&#x318c;" 
 />
    <glyph glyph-name="cid449" unicode="&#x318d;" 
 />
    <glyph glyph-name="cid450" unicode="&#x318e;" 
 />
    <glyph glyph-name="cid773" unicode="&#x3200;" 
 />
    <glyph glyph-name="cid774" unicode="&#x3201;" 
 />
    <glyph glyph-name="cid775" unicode="&#x3202;" 
 />
    <glyph glyph-name="cid776" unicode="&#x3203;" 
 />
    <glyph glyph-name="cid777" unicode="&#x3204;" 
 />
    <glyph glyph-name="cid778" unicode="&#x3205;" 
 />
    <glyph glyph-name="cid779" unicode="&#x3206;" 
 />
    <glyph glyph-name="cid780" unicode="&#x3207;" 
 />
    <glyph glyph-name="cid781" unicode="&#x3208;" 
 />
    <glyph glyph-name="cid782" unicode="&#x3209;" 
 />
    <glyph glyph-name="cid783" unicode="&#x320a;" 
 />
    <glyph glyph-name="cid784" unicode="&#x320b;" 
 />
    <glyph glyph-name="cid785" unicode="&#x320c;" 
 />
    <glyph glyph-name="cid786" unicode="&#x320d;" 
 />
    <glyph glyph-name="cid787" unicode="&#x320e;" 
 />
    <glyph glyph-name="cid788" unicode="&#x320f;" 
 />
    <glyph glyph-name="cid789" unicode="&#x3210;" 
 />
    <glyph glyph-name="cid790" unicode="&#x3211;" 
 />
    <glyph glyph-name="cid791" unicode="&#x3212;" 
 />
    <glyph glyph-name="cid792" unicode="&#x3213;" 
 />
    <glyph glyph-name="cid793" unicode="&#x3214;" 
 />
    <glyph glyph-name="cid794" unicode="&#x3215;" 
 />
    <glyph glyph-name="cid795" unicode="&#x3216;" 
 />
    <glyph glyph-name="cid796" unicode="&#x3217;" 
 />
    <glyph glyph-name="cid797" unicode="&#x3218;" 
 />
    <glyph glyph-name="cid798" unicode="&#x3219;" 
 />
    <glyph glyph-name="cid799" unicode="&#x321a;" 
 />
    <glyph glyph-name="cid800" unicode="&#x321b;" 
 />
    <glyph glyph-name="cid257" unicode="&#x321c;" 
 />
    <glyph glyph-name="cid8788" unicode="&#x3231;" 
 />
    <glyph glyph-name="cid8789" unicode="&#x3239;" 
 />
    <glyph glyph-name="cid8796" unicode="&#x3251;" 
 />
    <glyph glyph-name="cid8797" unicode="&#x3252;" 
 />
    <glyph glyph-name="cid8798" unicode="&#x3253;" 
 />
    <glyph glyph-name="cid8799" unicode="&#x3254;" 
 />
    <glyph glyph-name="cid8800" unicode="&#x3255;" 
 />
    <glyph glyph-name="cid8801" unicode="&#x3256;" 
 />
    <glyph glyph-name="cid8802" unicode="&#x3257;" 
 />
    <glyph glyph-name="cid8803" unicode="&#x3258;" 
 />
    <glyph glyph-name="cid8804" unicode="&#x3259;" 
 />
    <glyph glyph-name="cid8805" unicode="&#x325a;" 
 />
    <glyph glyph-name="cid679" unicode="&#x3260;" 
 />
    <glyph glyph-name="cid680" unicode="&#x3261;" 
 />
    <glyph glyph-name="cid681" unicode="&#x3262;" 
 />
    <glyph glyph-name="cid682" unicode="&#x3263;" 
 />
    <glyph glyph-name="cid683" unicode="&#x3264;" 
 />
    <glyph glyph-name="cid684" unicode="&#x3265;" 
 />
    <glyph glyph-name="cid685" unicode="&#x3266;" 
 />
    <glyph glyph-name="cid686" unicode="&#x3267;" 
 />
    <glyph glyph-name="cid687" unicode="&#x3268;" 
 />
    <glyph glyph-name="cid688" unicode="&#x3269;" 
 />
    <glyph glyph-name="cid689" unicode="&#x326a;" 
 />
    <glyph glyph-name="cid690" unicode="&#x326b;" 
 />
    <glyph glyph-name="cid691" unicode="&#x326c;" 
 />
    <glyph glyph-name="cid692" unicode="&#x326d;" 
 />
    <glyph glyph-name="cid693" unicode="&#x326e;" 
 />
    <glyph glyph-name="cid694" unicode="&#x326f;" 
 />
    <glyph glyph-name="cid695" unicode="&#x3270;" 
 />
    <glyph glyph-name="cid696" unicode="&#x3271;" 
 />
    <glyph glyph-name="cid697" unicode="&#x3272;" 
 />
    <glyph glyph-name="cid698" unicode="&#x3273;" 
 />
    <glyph glyph-name="cid699" unicode="&#x3274;" 
 />
    <glyph glyph-name="cid700" unicode="&#x3275;" 
 />
    <glyph glyph-name="cid701" unicode="&#x3276;" 
 />
    <glyph glyph-name="cid702" unicode="&#x3277;" 
 />
    <glyph glyph-name="cid703" unicode="&#x3278;" 
 />
    <glyph glyph-name="cid704" unicode="&#x3279;" 
 />
    <glyph glyph-name="cid705" unicode="&#x327a;" 
 />
    <glyph glyph-name="cid706" unicode="&#x327b;" 
 />
    <glyph glyph-name="cid256" unicode="&#x327f;" 
 />
    <glyph glyph-name="cid9301" unicode="&#x328a;" 
 />
    <glyph glyph-name="cid9302" unicode="&#x328b;" 
 />
    <glyph glyph-name="cid9303" unicode="&#x328c;" 
 />
    <glyph glyph-name="cid9304" unicode="&#x328d;" 
 />
    <glyph glyph-name="cid9305" unicode="&#x328e;" 
 />
    <glyph glyph-name="cid9306" unicode="&#x328f;" 
 />
    <glyph glyph-name="cid9300" unicode="&#x3290;" 
 />
    <glyph glyph-name="cid9080" unicode="&#x3294;" 
 />
    <glyph glyph-name="cid8761" unicode="&#x329e;" 
 />
    <glyph glyph-name="cid9096" unicode="&#x32a5;" 
 />
    <glyph glyph-name="cid627" unicode="&#x3380;" 
 />
    <glyph glyph-name="cid628" unicode="&#x3381;" 
 />
    <glyph glyph-name="cid629" unicode="&#x3382;" 
 />
    <glyph glyph-name="cid630" unicode="&#x3383;" 
 />
    <glyph glyph-name="cid631" unicode="&#x3384;" 
 />
    <glyph glyph-name="cid612" unicode="&#x3388;" 
 />
    <glyph glyph-name="cid613" unicode="&#x3389;" 
 />
    <glyph glyph-name="cid646" unicode="&#x338a;" 
 />
    <glyph glyph-name="cid647" unicode="&#x338b;" 
 />
    <glyph glyph-name="cid648" unicode="&#x338c;" 
 />
    <glyph glyph-name="cid608" unicode="&#x338d;" 
 />
    <glyph glyph-name="cid609" unicode="&#x338e;" 
 />
    <glyph glyph-name="cid610" unicode="&#x338f;" 
 />
    <glyph glyph-name="cid638" unicode="&#x3390;" 
 />
    <glyph glyph-name="cid639" unicode="&#x3391;" 
 />
    <glyph glyph-name="cid640" unicode="&#x3392;" 
 />
    <glyph glyph-name="cid641" unicode="&#x3393;" 
 />
    <glyph glyph-name="cid642" unicode="&#x3394;" 
 />
    <glyph glyph-name="cid587" unicode="&#x3395;" 
 />
    <glyph glyph-name="cid588" unicode="&#x3396;" 
 />
    <glyph glyph-name="cid589" unicode="&#x3397;" 
 />
    <glyph glyph-name="cid591" unicode="&#x3398;" 
 />
    <glyph glyph-name="cid597" unicode="&#x3399;" 
 />
    <glyph glyph-name="cid598" unicode="&#x339a;" 
 />
    <glyph glyph-name="cid599" unicode="&#x339b;" 
 />
    <glyph glyph-name="cid600" unicode="&#x339c;" 
 />
    <glyph glyph-name="cid601" unicode="&#x339d;" 
 />
    <glyph glyph-name="cid602" unicode="&#x339e;" 
 />
    <glyph glyph-name="cid603" unicode="&#x339f;" 
 />
    <glyph glyph-name="cid604" unicode="&#x33a0;" 
 />
    <glyph glyph-name="cid605" unicode="&#x33a1;" 
 />
    <glyph glyph-name="cid606" unicode="&#x33a2;" 
 />
    <glyph glyph-name="cid593" unicode="&#x33a3;" 
 />
    <glyph glyph-name="cid594" unicode="&#x33a4;" 
 />
    <glyph glyph-name="cid595" unicode="&#x33a5;" 
 />
    <glyph glyph-name="cid596" unicode="&#x33a6;" 
 />
    <glyph glyph-name="cid615" unicode="&#x33a7;" 
 />
    <glyph glyph-name="cid616" unicode="&#x33a8;" 
 />
    <glyph glyph-name="cid655" unicode="&#x33a9;" 
 />
    <glyph glyph-name="cid656" unicode="&#x33aa;" 
 />
    <glyph glyph-name="cid657" unicode="&#x33ab;" 
 />
    <glyph glyph-name="cid658" unicode="&#x33ac;" 
 />
    <glyph glyph-name="cid651" unicode="&#x33ad;" 
 />
    <glyph glyph-name="cid652" unicode="&#x33ae;" 
 />
    <glyph glyph-name="cid653" unicode="&#x33af;" 
 />
    <glyph glyph-name="cid617" unicode="&#x33b0;" 
 />
    <glyph glyph-name="cid618" unicode="&#x33b1;" 
 />
    <glyph glyph-name="cid619" unicode="&#x33b2;" 
 />
    <glyph glyph-name="cid620" unicode="&#x33b3;" 
 />
    <glyph glyph-name="cid621" unicode="&#x33b4;" 
 />
    <glyph glyph-name="cid622" unicode="&#x33b5;" 
 />
    <glyph glyph-name="cid623" unicode="&#x33b6;" 
 />
    <glyph glyph-name="cid624" unicode="&#x33b7;" 
 />
    <glyph glyph-name="cid625" unicode="&#x33b8;" 
 />
    <glyph glyph-name="cid626" unicode="&#x33b9;" 
 />
    <glyph glyph-name="cid632" unicode="&#x33ba;" 
 />
    <glyph glyph-name="cid633" unicode="&#x33bb;" 
 />
    <glyph glyph-name="cid634" unicode="&#x33bc;" 
 />
    <glyph glyph-name="cid635" unicode="&#x33bd;" 
 />
    <glyph glyph-name="cid636" unicode="&#x33be;" 
 />
    <glyph glyph-name="cid637" unicode="&#x33bf;" 
 />
    <glyph glyph-name="cid644" unicode="&#x33c0;" 
 />
    <glyph glyph-name="cid645" unicode="&#x33c1;" 
 />
    <glyph glyph-name="cid261" unicode="&#x33c2;" 
 />
    <glyph glyph-name="cid662" unicode="&#x33c3;" 
 />
    <glyph glyph-name="cid592" unicode="&#x33c4;" 
 />
    <glyph glyph-name="cid650" unicode="&#x33c5;" 
 />
    <glyph glyph-name="cid665" unicode="&#x33c6;" 
 />
    <glyph glyph-name="cid259" unicode="&#x33c7;" 
 />
    <glyph glyph-name="cid614" unicode="&#x33c8;" 
 />
    <glyph glyph-name="cid663" unicode="&#x33c9;" 
 />
    <glyph glyph-name="cid607" unicode="&#x33ca;" 
 />
    <glyph glyph-name="cid8790" unicode="&#x33cb;" 
 />
    <glyph glyph-name="cid611" unicode="&#x33cf;" 
 />
    <glyph glyph-name="cid660" unicode="&#x33d0;" 
 />
    <glyph glyph-name="cid661" unicode="&#x33d3;" 
 />
    <glyph glyph-name="cid649" unicode="&#x33d6;" 
 />
    <glyph glyph-name="cid262" unicode="&#x33d8;" 
 />
    <glyph glyph-name="cid654" unicode="&#x33db;" 
 />
    <glyph glyph-name="cid664" unicode="&#x33dc;" 
 />
    <glyph glyph-name="cid659" unicode="&#x33dd;" 
 />
    <glyph glyph-name="cid6704" unicode="&#x4e01;" 
 />
    <glyph glyph-name="cid7364" unicode="&#x4e03;" 
 />
    <glyph glyph-name="cid4670" unicode="&#x4e07;" 
 />
    <glyph glyph-name="cid6534" unicode="&#x4e08;" 
 />
    <glyph glyph-name="cid5320" unicode="&#x4e09;" 
 />
    <glyph glyph-name="cid5331" unicode="&#x4e0a;" 
 />
    <glyph glyph-name="cid7616" unicode="&#x4e0b;" 
 />
    <glyph glyph-name="cid5109" unicode="&#x4e0d;" 
 />
    <glyph glyph-name="cid5109" unicode="&#xf967;" 
 />
    <glyph glyph-name="cid7288" unicode="&#x4e11;" 
 />
    <glyph glyph-name="cid7041" unicode="&#x4e14;" 
 />
    <glyph glyph-name="cid5181" unicode="&#x4e15;" 
 />
    <glyph glyph-name="cid5492" unicode="&#x4e16;" 
 />
    <glyph glyph-name="cid3893" unicode="&#x4e18;" 
 />
    <glyph glyph-name="cid5041" unicode="&#x4e19;" 
 />
    <glyph glyph-name="cid5682" unicode="&#x4e1e;" 
 />
    <glyph glyph-name="cid6922" unicode="&#x4e2d;" 
 />
    <glyph glyph-name="cid3802" unicode="&#x4e32;" 
 />
    <glyph glyph-name="cid3802" unicode="&#xf905;" 
 />
    <glyph glyph-name="cid7882" unicode="&#x4e38;" 
 />
    <glyph glyph-name="cid4192" unicode="&#x4e39;" 
 />
    <glyph glyph-name="cid4192" unicode="&#xf95e;" 
 />
    <glyph glyph-name="cid6860" unicode="&#x4e3b;" 
 />
    <glyph glyph-name="cid6029" unicode="&#x4e42;" 
 />
    <glyph glyph-name="cid4154" unicode="&#x4e43;" 
 />
    <glyph glyph-name="cid3894" unicode="&#x4e45;" 
 />
    <glyph glyph-name="cid6942" unicode="&#x4e4b;" 
 />
    <glyph glyph-name="cid5241" unicode="&#x4e4d;" 
 />
    <glyph glyph-name="cid7800" unicode="&#x4e4e;" 
 />
    <glyph glyph-name="cid7614" unicode="&#x4e4f;" 
 />
    <glyph glyph-name="cid3855" unicode="&#x4e56;" 
 />
    <glyph glyph-name="cid5683" unicode="&#x4e58;" 
 />
    <glyph glyph-name="cid3895" unicode="&#x4e5d;" 
 />
    <glyph glyph-name="cid3613" unicode="&#x4e5e;" 
 />
    <glyph glyph-name="cid5862" unicode="&#x4e5f;" 
 />
    <glyph glyph-name="cid3500" unicode="&#x4e6b;" 
 />
    <glyph glyph-name="cid4329" unicode="&#x4e6d;" 
 />
    <glyph glyph-name="cid6309" unicode="&#x4e73;" 
 />
    <glyph glyph-name="cid5092" unicode="&#x4e76;" 
 />
    <glyph glyph-name="cid5315" unicode="&#x4e77;" 
 />
    <glyph glyph-name="cid3601" unicode="&#x4e7e;" 
 />
    <glyph glyph-name="cid4389" unicode="&#x4e82;" 
 />
    <glyph glyph-name="cid4389" unicode="&#xf91b;" 
 />
    <glyph glyph-name="cid4551" unicode="&#x4e86;" 
 />
    <glyph glyph-name="cid4551" unicode="&#xf9ba;" 
 />
    <glyph glyph-name="cid5934" unicode="&#x4e88;" 
 />
    <glyph glyph-name="cid5242" unicode="&#x4e8b;" 
 />
    <glyph glyph-name="cid6197" unicode="&#x4e8e;" 
 />
    <glyph glyph-name="cid6252" unicode="&#x4e90;" 
 />
    <glyph glyph-name="cid6238" unicode="&#x4e91;" 
 />
    <glyph glyph-name="cid7801" unicode="&#x4e92;" 
 />
    <glyph glyph-name="cid6049" unicode="&#x4e94;" 
 />
    <glyph glyph-name="cid6705" unicode="&#x4e95;" 
 />
    <glyph glyph-name="cid4058" unicode="&#x4e98;" 
 />
    <glyph glyph-name="cid5243" unicode="&#x4e9b;" 
 />
    <glyph glyph-name="cid5775" unicode="&#x4e9e;" 
 />
    <glyph glyph-name="cid4696" unicode="&#x4ea1;" 
 />
    <glyph glyph-name="cid7670" unicode="&#x4ea2;" 
 />
    <glyph glyph-name="cid3868" unicode="&#x4ea4;" 
 />
    <glyph glyph-name="cid7685" unicode="&#x4ea5;" 
 />
    <glyph glyph-name="cid5947" unicode="&#x4ea6;" 
 />
    <glyph glyph-name="cid7771" unicode="&#x4ea8;" 
 />
    <glyph glyph-name="cid7710" unicode="&#x4eab;" 
 />
    <glyph glyph-name="cid3660" unicode="&#x4eac;" 
 />
    <glyph glyph-name="cid6706" unicode="&#x4ead;" 
 />
    <glyph glyph-name="cid4427" unicode="&#x4eae;" 
 />
    <glyph glyph-name="cid4427" unicode="&#xf977;" 
 />
    <glyph glyph-name="cid4193" unicode="&#x4eb6;" 
 />
    <glyph glyph-name="cid5771" unicode="&#x4ec0;" 
 />
    <glyph glyph-name="cid5771" unicode="&#xf9fd;" 
 />
    <glyph glyph-name="cid6444" unicode="&#x4ec1;" 
 />
    <glyph glyph-name="cid7331" unicode="&#x4ec4;" 
 />
    <glyph glyph-name="cid3896" unicode="&#x4ec7;" 
 />
    <glyph glyph-name="cid4038" unicode="&#x4eca;" 
 />
    <glyph glyph-name="cid3560" unicode="&#x4ecb;" 
 />
    <glyph glyph-name="cid6479" unicode="&#x4ecd;" 
 />
    <glyph glyph-name="cid6483" unicode="&#x4ed4;" 
 />
    <glyph glyph-name="cid5244" unicode="&#x4ed5;" 
 />
    <glyph glyph-name="cid7380" unicode="&#x4ed6;" 
 />
    <glyph glyph-name="cid6535" unicode="&#x4ed7;" 
 />
    <glyph glyph-name="cid5110" unicode="&#x4ed8;" 
 />
    <glyph glyph-name="cid5418" unicode="&#x4ed9;" 
 />
    <glyph glyph-name="cid4331" unicode="&#x4edd;" 
 />
    <glyph glyph-name="cid7148" unicode="&#x4edf;" 
 />
    <glyph glyph-name="cid4250" unicode="&#x4ee3;" 
 />
    <glyph glyph-name="cid4489" unicode="&#x4ee4;" 
 />
    <glyph glyph-name="cid4489" unicode="&#xf9a8;" 
 />
    <glyph glyph-name="cid6414" unicode="&#x4ee5;" 
 />
    <glyph glyph-name="cid5833" unicode="&#x4ef0;" 
 />
    <glyph glyph-name="cid6923" unicode="&#x4ef2;" 
 />
    <glyph glyph-name="cid3602" unicode="&#x4ef6;" 
 />
    <glyph glyph-name="cid3561" unicode="&#x4ef7;" 
 />
    <glyph glyph-name="cid6469" unicode="&#x4efb;" 
 />
    <glyph glyph-name="cid4062" unicode="&#x4f01;" 
 />
    <glyph glyph-name="cid7671" unicode="&#x4f09;" 
 />
    <glyph glyph-name="cid6415" unicode="&#x4f0a;" 
 />
    <glyph glyph-name="cid4051" unicode="&#x4f0b;" 
 />
    <glyph glyph-name="cid6050" unicode="&#x4f0d;" 
 />
    <glyph glyph-name="cid4063" unicode="&#x4f0e;" 
 />
    <glyph glyph-name="cid5074" unicode="&#x4f0f;" 
 />
    <glyph glyph-name="cid5005" unicode="&#x4f10;" 
 />
    <glyph glyph-name="cid8005" unicode="&#x4f11;" 
 />
    <glyph glyph-name="cid4988" unicode="&#x4f2f;" 
 />
    <glyph glyph-name="cid4905" unicode="&#x4f34;" 
 />
    <glyph glyph-name="cid4490" unicode="&#x4f36;" 
 />
    <glyph glyph-name="cid5735" unicode="&#x4f38;" 
 />
    <glyph glyph-name="cid5245" unicode="&#x4f3a;" 
 />
    <glyph glyph-name="cid5246" unicode="&#x4f3c;" 
 />
    <glyph glyph-name="cid3436" unicode="&#x4f3d;" 
 />
    <glyph glyph-name="cid6643" unicode="&#x4f43;" 
 />
    <glyph glyph-name="cid4194" unicode="&#x4f46;" 
 />
    <glyph glyph-name="cid6591" unicode="&#x4f47;" 
 />
    <glyph glyph-name="cid7544" unicode="&#x4f48;" 
 />
    <glyph glyph-name="cid6284" unicode="&#x4f4d;" 
 />
    <glyph glyph-name="cid6592" unicode="&#x4f4e;" 
 />
    <glyph glyph-name="cid6861" unicode="&#x4f4f;" 
 />
    <glyph glyph-name="cid6854" unicode="&#x4f50;" 
 />
    <glyph glyph-name="cid6198" unicode="&#x4f51;" 
 />
    <glyph glyph-name="cid7617" unicode="&#x4f55;" 
 />
    <glyph glyph-name="cid5935" unicode="&#x4f59;" 
 />
    <glyph glyph-name="cid6461" unicode="&#x4f5a;" 
 />
    <glyph glyph-name="cid5171" unicode="&#x4f5b;" 
 />
    <glyph glyph-name="cid6509" unicode="&#x4f5c;" 
 />
    <glyph glyph-name="cid7502" unicode="&#x4f69;" 
 />
    <glyph glyph-name="cid5879" unicode="&#x4f6f;" 
 />
    <glyph glyph-name="cid4989" unicode="&#x4f70;" 
 />
    <glyph glyph-name="cid3437" unicode="&#x4f73;" 
 />
    <glyph glyph-name="cid4127" unicode="&#x4f76;" 
 />
    <glyph glyph-name="cid6644" unicode="&#x4f7a;" 
 />
    <glyph glyph-name="cid6462" unicode="&#x4f7e;" 
 />
    <glyph glyph-name="cid5247" unicode="&#x4f7f;" 
 />
    <glyph glyph-name="cid5736" unicode="&#x4f81;" 
 />
    <glyph glyph-name="cid3476" unicode="&#x4f83;" 
 />
    <glyph glyph-name="cid7015" unicode="&#x4f84;" 
 />
    <glyph glyph-name="cid4420" unicode="&#x4f86;" 
 />
    <glyph glyph-name="cid4420" unicode="&#xf92d;" 
 />
    <glyph glyph-name="cid7336" unicode="&#x4f88;" 
 />
    <glyph glyph-name="cid3839" unicode="&#x4f8a;" 
 />
    <glyph glyph-name="cid4506" unicode="&#x4f8b;" 
 />
    <glyph glyph-name="cid4506" unicode="&#xf9b5;" 
 />
    <glyph glyph-name="cid5692" unicode="&#x4f8d;" 
 />
    <glyph glyph-name="cid6862" unicode="&#x4f8f;" 
 />
    <glyph glyph-name="cid6310" unicode="&#x4f91;" 
 />
    <glyph glyph-name="cid4594" unicode="&#x4f96;" 
 />
    <glyph glyph-name="cid7042" unicode="&#x4f98;" 
 />
    <glyph glyph-name="cid3786" unicode="&#x4f9b;" 
 />
    <glyph glyph-name="cid6394" unicode="&#x4f9d;" 
 />
    <glyph glyph-name="cid4764" unicode="&#x4fae;" 
 />
    <glyph glyph-name="cid7966" unicode="&#x4faf;" 
 />
    <glyph glyph-name="cid7367" unicode="&#x4fb5;" 
 />
    <glyph glyph-name="cid4440" unicode="&#x4fb6;" 
 />
    <glyph glyph-name="cid7518" unicode="&#x4fbf;" 
 />
    <glyph glyph-name="cid7518" unicode="&#xf965;" 
 />
    <glyph glyph-name="cid3705" unicode="&#x4fc2;" 
 />
    <glyph glyph-name="cid7241" unicode="&#x4fc3;" 
 />
    <glyph glyph-name="cid5776" unicode="&#x4fc4;" 
 />
    <glyph glyph-name="cid6051" unicode="&#x4fc9;" 
 />
    <glyph glyph-name="cid6902" unicode="&#x4fca;" 
 />
    <glyph glyph-name="cid6782" unicode="&#x4fce;" 
 />
    <glyph glyph-name="cid6174" unicode="&#x4fd1;" 
 />
    <glyph glyph-name="cid3661" unicode="&#x4fd3;" 
 />
    <glyph glyph-name="cid7734" unicode="&#x4fd4;" 
 />
    <glyph glyph-name="cid5537" unicode="&#x4fd7;" 
 />
    <glyph glyph-name="cid4613" unicode="&#x4fda;" 
 />
    <glyph glyph-name="cid5058" unicode="&#x4fdd;" 
 />
    <glyph glyph-name="cid5248" unicode="&#x4fdf;" 
 />
    <glyph glyph-name="cid7759" unicode="&#x4fe0;" 
 />
    <glyph glyph-name="cid5737" unicode="&#x4fe1;" 
 />
    <glyph glyph-name="cid5567" unicode="&#x4fee;" 
 />
    <glyph glyph-name="cid5111" unicode="&#x4fef;" 
 />
    <glyph glyph-name="cid3897" unicode="&#x4ff1;" 
 />
    <glyph glyph-name="cid4970" unicode="&#x4ff3;" 
 />
    <glyph glyph-name="cid7576" unicode="&#x4ff5;" 
 />
    <glyph glyph-name="cid5093" unicode="&#x4ff8;" 
 />
    <glyph glyph-name="cid5925" unicode="&#x4ffa;" 
 />
    <glyph glyph-name="cid5042" unicode="&#x5002;" 
 />
    <glyph glyph-name="cid4428" unicode="&#x5006;" 
 />
    <glyph glyph-name="cid7092" unicode="&#x5009;" 
 />
    <glyph glyph-name="cid3562" unicode="&#x500b;" 
 />
    <glyph glyph-name="cid4969" unicode="&#x500d;" 
 />
    <glyph glyph-name="cid4836" unicode="&#x5011;" 
 />
    <glyph glyph-name="cid4269" unicode="&#x5012;" 
 />
    <glyph glyph-name="cid7705" unicode="&#x5016;" 
 />
    <glyph glyph-name="cid7967" unicode="&#x5019;" 
 />
    <glyph glyph-name="cid6395" unicode="&#x501a;" 
 />
    <glyph glyph-name="cid7134" unicode="&#x501c;" 
 />
    <glyph glyph-name="cid3662" unicode="&#x501e;" 
 />
    <glyph glyph-name="cid7043" unicode="&#x501f;" 
 />
    <glyph glyph-name="cid7093" unicode="&#x5021;" 
 />
    <glyph glyph-name="cid4941" unicode="&#x5023;" 
 />
    <glyph glyph-name="cid7337" unicode="&#x5024;" 
 />
    <glyph glyph-name="cid3969" unicode="&#x5026;" 
 />
    <glyph glyph-name="cid6837" unicode="&#x5027;" 
 />
    <glyph glyph-name="cid3585" unicode="&#x5028;" 
 />
    <glyph glyph-name="cid6030" unicode="&#x502a;" 
 />
    <glyph glyph-name="cid4595" unicode="&#x502b;" 
 />
    <glyph glyph-name="cid4595" unicode="&#xf9d4;" 
 />
    <glyph glyph-name="cid7394" unicode="&#x502c;" 
 />
    <glyph glyph-name="cid6131" unicode="&#x502d;" 
 />
    <glyph glyph-name="cid5863" unicode="&#x503b;" 
 />
    <glyph glyph-name="cid5917" unicode="&#x5043;" 
 />
    <glyph glyph-name="cid3438" unicode="&#x5047;" 
 />
    <glyph glyph-name="cid3627" unicode="&#x5048;" 
 />
    <glyph glyph-name="cid6285" unicode="&#x5049;" 
 />
    <glyph glyph-name="cid7519" unicode="&#x504f;" 
 />
    <glyph glyph-name="cid7686" unicode="&#x5055;" 
 />
    <glyph glyph-name="cid6863" unicode="&#x505a;" 
 />
    <glyph glyph-name="cid6707" unicode="&#x505c;" 
 />
    <glyph glyph-name="cid3603" unicode="&#x5065;" 
 />
    <glyph glyph-name="cid7330" unicode="&#x5074;" 
 />
    <glyph glyph-name="cid6708" unicode="&#x5075;" 
 />
    <glyph glyph-name="cid6199" unicode="&#x5076;" 
 />
    <glyph glyph-name="cid7465" unicode="&#x5078;" 
 />
    <glyph glyph-name="cid3856" unicode="&#x5080;" 
 />
    <glyph glyph-name="cid5112" unicode="&#x5085;" 
 />
    <glyph glyph-name="cid4942" unicode="&#x508d;" 
 />
    <glyph glyph-name="cid3614" unicode="&#x5091;" 
 />
    <glyph glyph-name="cid5303" unicode="&#x5098;" 
 />
    <glyph glyph-name="cid5182" unicode="&#x5099;" 
 />
    <glyph glyph-name="cid7262" unicode="&#x50ac;" 
 />
    <glyph glyph-name="cid6175" unicode="&#x50ad;" 
 />
    <glyph glyph-name="cid6052" unicode="&#x50b2;" 
 />
    <glyph glyph-name="cid6645" unicode="&#x50b3;" 
 />
    <glyph glyph-name="cid7114" unicode="&#x50b5;" 
 />
    <glyph glyph-name="cid5332" unicode="&#x50b7;" 
 />
    <glyph glyph-name="cid3663" unicode="&#x50be;" 
 />
    <glyph glyph-name="cid4023" unicode="&#x50c5;" 
 />
    <glyph glyph-name="cid7177" unicode="&#x50c9;" 
 />
    <glyph glyph-name="cid5419" unicode="&#x50ca;" 
 />
    <glyph glyph-name="cid5333" unicode="&#x50cf;" 
 />
    <glyph glyph-name="cid3869" unicode="&#x50d1;" 
 />
    <glyph glyph-name="cid5075" unicode="&#x50d5;" 
 />
    <glyph glyph-name="cid8035" unicode="&#x50d6;" 
 />
    <glyph glyph-name="cid4552" unicode="&#x50da;" 
 />
    <glyph glyph-name="cid4552" unicode="&#xf9bb;" 
 />
    <glyph glyph-name="cid6286" unicode="&#x50de;" 
 />
    <glyph glyph-name="cid6140" unicode="&#x50e5;" 
 />
    <glyph glyph-name="cid5684" unicode="&#x50e7;" 
 />
    <glyph glyph-name="cid7082" unicode="&#x50ed;" 
 />
    <glyph glyph-name="cid3439" unicode="&#x50f9;" 
 />
    <glyph glyph-name="cid5020" unicode="&#x50fb;" 
 />
    <glyph glyph-name="cid5249" unicode="&#x50ff;" 
 />
    <glyph glyph-name="cid6396" unicode="&#x5100;" 
 />
    <glyph glyph-name="cid6903" unicode="&#x5101;" 
 />
    <glyph glyph-name="cid5912" unicode="&#x5104;" 
 />
    <glyph glyph-name="cid3664" unicode="&#x5106;" 
 />
    <glyph glyph-name="cid3617" unicode="&#x5109;" 
 />
    <glyph glyph-name="cid6311" unicode="&#x5112;" 
 />
    <glyph glyph-name="cid5334" unicode="&#x511f;" 
 />
    <glyph glyph-name="cid4543" unicode="&#x5121;" 
 />
    <glyph glyph-name="cid6200" unicode="&#x512a;" 
 />
    <glyph glyph-name="cid6593" unicode="&#x5132;" 
 />
    <glyph glyph-name="cid4441" unicode="&#x5137;" 
 />
    <glyph glyph-name="cid4133" unicode="&#x513a;" 
 />
    <glyph glyph-name="cid5926" unicode="&#x513c;" 
 />
    <glyph glyph-name="cid6089" unicode="&#x5140;" 
 />
    <glyph glyph-name="cid6359" unicode="&#x5141;" 
 />
    <glyph glyph-name="cid6255" unicode="&#x5143;" 
 />
    <glyph glyph-name="cid7772" unicode="&#x5144;" 
 />
    <glyph glyph-name="cid7306" unicode="&#x5145;" 
 />
    <glyph glyph-name="cid6783" unicode="&#x5146;" 
 />
    <glyph glyph-name="cid8013" unicode="&#x5147;" 
 />
    <glyph glyph-name="cid5420" unicode="&#x5148;" 
 />
    <glyph glyph-name="cid3840" unicode="&#x5149;" 
 />
    <glyph glyph-name="cid4016" unicode="&#x514b;" 
 />
    <glyph glyph-name="cid7431" unicode="&#x514c;" 
 />
    <glyph glyph-name="cid4735" unicode="&#x514d;" 
 />
    <glyph glyph-name="cid7449" unicode="&#x514e;" 
 />
    <glyph glyph-name="cid5777" unicode="&#x5152;" 
 />
    <glyph glyph-name="cid4348" unicode="&#x515c;" 
 />
    <glyph glyph-name="cid4059" unicode="&#x5162;" 
 />
    <glyph glyph-name="cid4155" unicode="&#x5167;" 
 />
    <glyph glyph-name="cid6646" unicode="&#x5168;" 
 />
    <glyph glyph-name="cid4429" unicode="&#x5169;" 
 />
    <glyph glyph-name="cid4429" unicode="&#xf978;" 
 />
    <glyph glyph-name="cid6312" unicode="&#x516a;" 
 />
    <glyph glyph-name="cid3787" unicode="&#x516c;" 
 />
    <glyph glyph-name="cid4591" unicode="&#x516d;" 
 />
    <glyph glyph-name="cid4591" unicode="&#xf9d1;" 
 />
    <glyph glyph-name="cid7791" unicode="&#x516e;" 
 />
    <glyph glyph-name="cid3788" unicode="&#x5171;" 
 />
    <glyph glyph-name="cid5043" unicode="&#x5175;" 
 />
    <glyph glyph-name="cid4064" unicode="&#x5176;" 
 />
    <glyph glyph-name="cid3898" unicode="&#x5177;" 
 />
    <glyph glyph-name="cid6647" unicode="&#x5178;" 
 />
    <glyph glyph-name="cid3654" unicode="&#x517c;" 
 />
    <glyph glyph-name="cid4065" unicode="&#x5180;" 
 />
    <glyph glyph-name="cid5933" unicode="&#x5186;" horiz-adv-x="900" 
d="M586 -43q-39 11 -53.5 30.5t-6.5 59.5q5 23 22.5 38.5t51.5 9.5l35 -7q8 -2 17.5 0t9.5 16v103h-375v-198q0 -32 -21 -48.5t-49 -19.5q-17 -2 -33 2t-29.5 12.5t-21.5 22t-8 31.5v543q0 50 24.5 68.5t56.5 18.5h537q16 0 30.5 -4t25.5 -14t18 -27t7 -42v-498
q0 -32 -13 -57t-35.5 -40.5t-52 -20.5t-61.5 3zM545 510v-172h117v172h-117zM287 338h106v172h-106v-172z" />
    <glyph glyph-name="cid7126" unicode="&#x518a;" 
 />
    <glyph glyph-name="cid6570" unicode="&#x518d;" 
 />
    <glyph glyph-name="cid4765" unicode="&#x5192;" 
 />
    <glyph glyph-name="cid4736" unicode="&#x5195;" 
 />
    <glyph glyph-name="cid6176" unicode="&#x5197;" 
 />
    <glyph glyph-name="cid3819" unicode="&#x51a0;" 
 />
    <glyph glyph-name="cid4748" unicode="&#x51a5;" 
 />
    <glyph glyph-name="cid4733" unicode="&#x51aa;" 
 />
    <glyph glyph-name="cid4332" unicode="&#x51ac;" 
 />
    <glyph glyph-name="cid5864" unicode="&#x51b6;" 
 />
    <glyph glyph-name="cid4424" unicode="&#x51b7;" 
 />
    <glyph glyph-name="cid4424" unicode="&#xf92e;" 
 />
    <glyph glyph-name="cid4477" unicode="&#x51bd;" 
 />
    <glyph glyph-name="cid7130" unicode="&#x51c4;" 
 />
    <glyph glyph-name="cid6904" unicode="&#x51c6;" 
 />
    <glyph glyph-name="cid4430" unicode="&#x51c9;" 
 />
    <glyph glyph-name="cid4430" unicode="&#xf979;" 
 />
    <glyph glyph-name="cid6784" unicode="&#x51cb;" 
 />
    <glyph glyph-name="cid4607" unicode="&#x51cc;" 
 />
    <glyph glyph-name="cid4607" unicode="&#xf955;" 
 />
    <glyph glyph-name="cid4333" unicode="&#x51cd;" 
 />
    <glyph glyph-name="cid4606" unicode="&#x51dc;" 
 />
    <glyph glyph-name="cid4606" unicode="&#xf954;" 
 />
    <glyph glyph-name="cid6390" unicode="&#x51dd;" 
 />
    <glyph glyph-name="cid8036" unicode="&#x51de;" 
 />
    <glyph glyph-name="cid5009" unicode="&#x51e1;" 
 />
    <glyph glyph-name="cid7904" unicode="&#x51f0;" 
 />
    <glyph glyph-name="cid3563" unicode="&#x51f1;" 
 />
    <glyph glyph-name="cid8014" unicode="&#x51f6;" 
 />
    <glyph glyph-name="cid7167" unicode="&#x51f8;" 
 />
    <glyph glyph-name="cid6141" unicode="&#x51f9;" 
 />
    <glyph glyph-name="cid7303" unicode="&#x51fa;" 
 />
    <glyph glyph-name="cid7651" unicode="&#x51fd;" 
 />
    <glyph glyph-name="cid6445" unicode="&#x5203;" 
 />
    <glyph glyph-name="cid5152" unicode="&#x5206;" 
 />
    <glyph glyph-name="cid6684" unicode="&#x5207;" 
 />
    <glyph glyph-name="cid6684" unicode="&#xfa00;" 
 />
    <glyph glyph-name="cid6031" unicode="&#x5208;" 
 />
    <glyph glyph-name="cid3477" unicode="&#x520a;" 
 />
    <glyph glyph-name="cid4837" unicode="&#x520e;" 
 />
    <glyph glyph-name="cid7773" unicode="&#x5211;" 
 />
    <glyph glyph-name="cid4478" unicode="&#x5217;" 
 />
    <glyph glyph-name="cid4478" unicode="&#xf99c;" 
 />
    <glyph glyph-name="cid7214" unicode="&#x521d;" 
 />
    <glyph glyph-name="cid7490" unicode="&#x5224;" 
 />
    <glyph glyph-name="cid5037" unicode="&#x5225;" 
 />
    <glyph glyph-name="cid4614" unicode="&#x5229;" 
 />
    <glyph glyph-name="cid4614" unicode="&#xf9dd;" 
 />
    <glyph glyph-name="cid5304" unicode="&#x522a;" 
 />
    <glyph glyph-name="cid3835" unicode="&#x522e;" 
 />
    <glyph glyph-name="cid4271" unicode="&#x5230;" 
 />
    <glyph glyph-name="cid6759" unicode="&#x5236;" 
 />
    <glyph glyph-name="cid5561" unicode="&#x5237;" 
 />
    <glyph glyph-name="cid3970" unicode="&#x5238;" 
 />
    <glyph glyph-name="cid7077" unicode="&#x5239;" 
 />
    <glyph glyph-name="cid6484" unicode="&#x523a;" 
 />
    <glyph glyph-name="cid6484" unicode="&#xf9ff;" 
 />
    <glyph glyph-name="cid3465" unicode="&#x523b;" 
 />
    <glyph glyph-name="cid7205" unicode="&#x5243;" 
 />
    <glyph glyph-name="cid7360" unicode="&#x5247;" 
 />
    <glyph glyph-name="cid5301" unicode="&#x524a;" 
 />
    <glyph glyph-name="cid4017" unicode="&#x524b;" 
 />
    <glyph glyph-name="cid4397" unicode="&#x524c;" 
 />
    <glyph glyph-name="cid6648" unicode="&#x524d;" 
 />
    <glyph glyph-name="cid7135" unicode="&#x5254;" 
 />
    <glyph glyph-name="cid5113" unicode="&#x5256;" 
 />
    <glyph glyph-name="cid3536" unicode="&#x525b;" 
 />
    <glyph glyph-name="cid4886" unicode="&#x525d;" 
 />
    <glyph glyph-name="cid5463" unicode="&#x5261;" 
 />
    <glyph glyph-name="cid6480" unicode="&#x5269;" 
 />
    <glyph glyph-name="cid6649" unicode="&#x526a;" 
 />
    <glyph glyph-name="cid5114" unicode="&#x526f;" 
 />
    <glyph glyph-name="cid7649" unicode="&#x5272;" 
 />
    <glyph glyph-name="cid7094" unicode="&#x5275;" 
 />
    <glyph glyph-name="cid7577" unicode="&#x527d;" 
 />
    <glyph glyph-name="cid7215" unicode="&#x527f;" 
 />
    <glyph glyph-name="cid7948" unicode="&#x5283;" 
 />
    <glyph glyph-name="cid4018" unicode="&#x5287;" 
 />
    <glyph glyph-name="cid5021" unicode="&#x5288;" 
 />
    <glyph glyph-name="cid4577" unicode="&#x5289;" 
 />
    <glyph glyph-name="cid4577" unicode="&#xf9c7;" 
 />
    <glyph glyph-name="cid3618" unicode="&#x528d;" 
 />
    <glyph glyph-name="cid6760" unicode="&#x5291;" 
 />
    <glyph glyph-name="cid3619" unicode="&#x5292;" 
 />
    <glyph glyph-name="cid3789" unicode="&#x529f;" 
 />
    <glyph glyph-name="cid3440" unicode="&#x52a0;" 
 />
    <glyph glyph-name="cid4479" unicode="&#x52a3;" 
 />
    <glyph glyph-name="cid4479" unicode="&#xf99d;" 
 />
    <glyph glyph-name="cid4024" unicode="&#x52a4;" 
 />
    <glyph glyph-name="cid6785" unicode="&#x52a9;" 
 />
    <glyph glyph-name="cid4169" unicode="&#x52aa;" 
 />
    <glyph glyph-name="cid3624" unicode="&#x52ab;" 
 />
    <glyph glyph-name="cid7703" unicode="&#x52be;" 
 />
    <glyph glyph-name="cid3665" unicode="&#x52c1;" 
 />
    <glyph glyph-name="cid4930" unicode="&#x52c3;" 
 />
    <glyph glyph-name="cid7361" unicode="&#x52c5;" 
 />
    <glyph glyph-name="cid6177" unicode="&#x52c7;" 
 />
    <glyph glyph-name="cid4737" unicode="&#x52c9;" 
 />
    <glyph glyph-name="cid3666" unicode="&#x52cd;" 
 />
    <glyph glyph-name="cid4604" unicode="&#x52d2;" 
 />
    <glyph glyph-name="cid4604" unicode="&#xf952;" 
 />
    <glyph glyph-name="cid4334" unicode="&#x52d5;" 
 />
    <glyph glyph-name="cid6229" unicode="&#x52d6;" 
 />
    <glyph glyph-name="cid3510" unicode="&#x52d8;" 
 />
    <glyph glyph-name="cid4812" unicode="&#x52d9;" 
 />
    <glyph glyph-name="cid7979" unicode="&#x52db;" 
 />
    <glyph glyph-name="cid5685" unicode="&#x52dd;" 
 />
    <glyph glyph-name="cid4511" unicode="&#x52de;" 
 />
    <glyph glyph-name="cid4511" unicode="&#xf92f;" 
 />
    <glyph glyph-name="cid4766" unicode="&#x52df;" 
 />
    <glyph glyph-name="cid5493" unicode="&#x52e2;" 
 />
    <glyph glyph-name="cid6619" unicode="&#x52e3;" 
 />
    <glyph glyph-name="cid4025" unicode="&#x52e4;" 
 />
    <glyph glyph-name="cid7980" unicode="&#x52f3;" 
 />
    <glyph glyph-name="cid4442" unicode="&#x52f5;" 
 />
    <glyph glyph-name="cid4442" unicode="&#xf97f;" 
 />
    <glyph glyph-name="cid3971" unicode="&#x52f8;" 
 />
    <glyph glyph-name="cid6510" unicode="&#x52fa;" 
 />
    <glyph glyph-name="cid4009" unicode="&#x52fb;" 
 />
    <glyph glyph-name="cid3899" unicode="&#x52fe;" 
 />
    <glyph glyph-name="cid4848" unicode="&#x52ff;" 
 />
    <glyph glyph-name="cid7545" unicode="&#x5305;" 
 />
    <glyph glyph-name="cid8015" unicode="&#x5308;" 
 />
    <glyph glyph-name="cid7546" unicode="&#x530d;" 
 />
    <glyph glyph-name="cid7547" unicode="&#x530f;" 
 />
    <glyph glyph-name="cid5076" unicode="&#x5310;" 
 />
    <glyph glyph-name="cid7863" unicode="&#x5316;" 
 />
    <glyph glyph-name="cid5151" unicode="&#x5317;" 
 />
    <glyph glyph-name="cid5151" unicode="&#xf963;" 
 />
    <glyph glyph-name="cid5693" unicode="&#x5319;" 
 />
    <glyph glyph-name="cid6536" unicode="&#x5320;" 
 />
    <glyph glyph-name="cid3841" unicode="&#x5321;" 
 />
    <glyph glyph-name="cid3530" unicode="&#x5323;" 
 />
    <glyph glyph-name="cid5184" unicode="&#x532a;" 
 />
    <glyph glyph-name="cid7928" unicode="&#x532f;" 
 />
    <glyph glyph-name="cid7604" unicode="&#x5339;" 
 />
    <glyph glyph-name="cid4188" unicode="&#x533f;" 
 />
    <glyph glyph-name="cid4188" unicode="&#xf9eb;" 
 />
    <glyph glyph-name="cid3900" unicode="&#x5340;" 
 />
    <glyph glyph-name="cid7149" unicode="&#x5343;" 
 />
    <glyph glyph-name="cid6478" unicode="&#x5344;" 
 />
    <glyph glyph-name="cid5686" unicode="&#x5347;" 
 />
    <glyph glyph-name="cid6053" unicode="&#x5348;" 
 />
    <glyph glyph-name="cid7994" unicode="&#x5349;" 
 />
    <glyph glyph-name="cid4906" unicode="&#x534a;" 
 />
    <glyph glyph-name="cid4671" unicode="&#x534d;" 
 />
    <glyph glyph-name="cid5185" unicode="&#x5351;" 
 />
    <glyph glyph-name="cid6834" unicode="&#x5352;" 
 />
    <glyph glyph-name="cid7395" unicode="&#x5353;" 
 />
    <glyph glyph-name="cid7760" unicode="&#x5354;" 
 />
    <glyph glyph-name="cid4145" unicode="&#x5357;" 
 />
    <glyph glyph-name="cid4887" unicode="&#x535a;" 
 />
    <glyph glyph-name="cid5031" unicode="&#x535e;" 
 />
    <glyph glyph-name="cid6692" unicode="&#x5360;" 
 />
    <glyph glyph-name="cid3852" unicode="&#x5366;" 
 />
    <glyph glyph-name="cid5450" unicode="&#x5368;" 
 />
    <glyph glyph-name="cid4800" unicode="&#x536f;" 
 />
    <glyph glyph-name="cid6446" unicode="&#x5370;" 
 />
    <glyph glyph-name="cid6287" unicode="&#x5371;" 
 />
    <glyph glyph-name="cid3466" unicode="&#x5374;" 
 />
    <glyph glyph-name="cid4390" unicode="&#x5375;" 
 />
    <glyph glyph-name="cid4390" unicode="&#xf91c;" 
 />
    <glyph glyph-name="cid3972" unicode="&#x5377;" 
 />
    <glyph glyph-name="cid6926" unicode="&#x537d;" 
 />
    <glyph glyph-name="cid3667" unicode="&#x537f;" 
 />
    <glyph glyph-name="cid5851" unicode="&#x5384;" 
 />
    <glyph glyph-name="cid5840" unicode="&#x5393;" 
 />
    <glyph glyph-name="cid4615" unicode="&#x5398;" 
 />
    <glyph glyph-name="cid7968" unicode="&#x539a;" 
 />
    <glyph glyph-name="cid6256" unicode="&#x539f;" 
 />
    <glyph glyph-name="cid7332" unicode="&#x53a0;" 
 />
    <glyph glyph-name="cid3979" unicode="&#x53a5;" 
 />
    <glyph glyph-name="cid7618" unicode="&#x53a6;" 
 />
    <glyph glyph-name="cid5989" unicode="&#x53ad;" 
 />
    <glyph glyph-name="cid3586" unicode="&#x53bb;" 
 />
    <glyph glyph-name="cid7083" unicode="&#x53c3;" 
 />
    <glyph glyph-name="cid7083" unicode="&#xf96b;" 
 />
    <glyph glyph-name="cid7044" unicode="&#x53c9;" 
 />
    <glyph glyph-name="cid4052" unicode="&#x53ca;" 
 />
    <glyph glyph-name="cid6202" unicode="&#x53cb;" 
 />
    <glyph glyph-name="cid4907" unicode="&#x53cd;" 
 />
    <glyph glyph-name="cid5628" unicode="&#x53d4;" 
 />
    <glyph glyph-name="cid7316" unicode="&#x53d6;" 
 />
    <glyph glyph-name="cid5568" unicode="&#x53d7;" 
 />
    <glyph glyph-name="cid4908" unicode="&#x53db;" 
 />
    <glyph glyph-name="cid6032" unicode="&#x53e1;" 
 />
    <glyph glyph-name="cid7251" unicode="&#x53e2;" 
 />
    <glyph glyph-name="cid3729" unicode="&#x53e4;" 
 />
    <glyph glyph-name="cid3902" unicode="&#x53e5;" 
 />
    <glyph glyph-name="cid3902" unicode="&#xf906;" 
 />
    <glyph glyph-name="cid3730" unicode="&#x53e9;" 
 />
    <glyph glyph-name="cid6943" unicode="&#x53ea;" 
 />
    <glyph glyph-name="cid3994" unicode="&#x53eb;" 
 />
    <glyph glyph-name="cid5500" unicode="&#x53ec;" 
 />
    <glyph glyph-name="cid7500" unicode="&#x53ed;" 
 />
    <glyph glyph-name="cid3441" unicode="&#x53ef;" 
 />
    <glyph glyph-name="cid7432" unicode="&#x53f0;" 
 />
    <glyph glyph-name="cid7016" unicode="&#x53f1;" 
 />
    <glyph glyph-name="cid5250" unicode="&#x53f2;" 
 />
    <glyph glyph-name="cid6203" unicode="&#x53f3;" 
 />
    <glyph glyph-name="cid5251" unicode="&#x53f8;" 
 />
    <glyph glyph-name="cid8023" unicode="&#x5403;" 
 />
    <glyph glyph-name="cid3467" unicode="&#x5404;" 
 />
    <glyph glyph-name="cid7663" unicode="&#x5408;" 
 />
    <glyph glyph-name="cid4128" unicode="&#x5409;" 
 />
    <glyph glyph-name="cid6620" unicode="&#x540a;" 
 />
    <glyph glyph-name="cid4335" unicode="&#x540c;" 
 />
    <glyph glyph-name="cid4749" unicode="&#x540d;" 
 />
    <glyph glyph-name="cid7969" unicode="&#x540e;" 
 />
    <glyph glyph-name="cid4616" unicode="&#x540f;" 
 />
    <glyph glyph-name="cid4616" unicode="&#xf9de;" 
 />
    <glyph glyph-name="cid7450" unicode="&#x5410;" 
 />
    <glyph glyph-name="cid7711" unicode="&#x5411;" 
 />
    <glyph glyph-name="cid3953" unicode="&#x541b;" 
 />
    <glyph glyph-name="cid4638" unicode="&#x541d;" 
 />
    <glyph glyph-name="cid4638" unicode="&#xf9ed;" 
 />
    <glyph glyph-name="cid6381" unicode="&#x541f;" 
 />
    <glyph glyph-name="cid7534" unicode="&#x5420;" 
 />
    <glyph glyph-name="cid5115" unicode="&#x5426;" 
 />
    <glyph glyph-name="cid5153" unicode="&#x5429;" 
 />
    <glyph glyph-name="cid7652" unicode="&#x542b;" 
 />
    <glyph glyph-name="cid6055" unicode="&#x5433;" 
 />
    <glyph glyph-name="cid8030" unicode="&#x5438;" 
 />
    <glyph glyph-name="cid7317" unicode="&#x5439;" 
 />
    <glyph glyph-name="cid4838" unicode="&#x543b;" 
 />
    <glyph glyph-name="cid7970" unicode="&#x543c;" 
 />
    <glyph glyph-name="cid6054" unicode="&#x543e;" 
 />
    <glyph glyph-name="cid4443" unicode="&#x5442;" 
 />
    <glyph glyph-name="cid4443" unicode="&#xf980;" 
 />
    <glyph glyph-name="cid6709" unicode="&#x5448;" 
 />
    <glyph glyph-name="cid3731" unicode="&#x544a;" 
 />
    <glyph glyph-name="cid7408" unicode="&#x5451;" 
 />
    <glyph glyph-name="cid6867" unicode="&#x5468;" 
 />
    <glyph glyph-name="cid6866" unicode="&#x546a;" 
 />
    <glyph glyph-name="cid3732" unicode="&#x5471;" 
 />
    <glyph glyph-name="cid4851" unicode="&#x5473;" 
 />
    <glyph glyph-name="cid3442" unicode="&#x5475;" 
 />
    <glyph glyph-name="cid5738" unicode="&#x547b;" 
 />
    <glyph glyph-name="cid7802" unicode="&#x547c;" 
 />
    <glyph glyph-name="cid4750" unicode="&#x547d;" 
 />
    <glyph glyph-name="cid6594" unicode="&#x5480;" 
 />
    <glyph glyph-name="cid7548" unicode="&#x5486;" 
 />
    <glyph glyph-name="cid7864" unicode="&#x548c;" 
 />
    <glyph glyph-name="cid3903" unicode="&#x548e;" 
 />
    <glyph glyph-name="cid5116" unicode="&#x5490;" 
 />
    <glyph glyph-name="cid7381" unicode="&#x54a4;" 
 />
    <glyph glyph-name="cid6485" unicode="&#x54a8;" 
 />
    <glyph glyph-name="cid6944" unicode="&#x54ab;" 
 />
    <glyph glyph-name="cid3870" unicode="&#x54ac;" 
 />
    <glyph glyph-name="cid7687" unicode="&#x54b3;" 
 />
    <glyph glyph-name="cid7653" unicode="&#x54b8;" 
 />
    <glyph glyph-name="cid6447" unicode="&#x54bd;" 
 />
    <glyph glyph-name="cid6447" unicode="&#xf99e;" 
 />
    <glyph glyph-name="cid5841" unicode="&#x54c0;" 
 />
    <glyph glyph-name="cid7590" unicode="&#x54c1;" 
 />
    <glyph glyph-name="cid7853" unicode="&#x54c4;" 
 />
    <glyph glyph-name="cid7664" unicode="&#x54c8;" 
 />
    <glyph glyph-name="cid6571" unicode="&#x54c9;" 
 />
    <glyph glyph-name="cid6257" unicode="&#x54e1;" 
 />
    <glyph glyph-name="cid3443" unicode="&#x54e5;" 
 />
    <glyph glyph-name="cid7216" unicode="&#x54e8;" 
 />
    <glyph glyph-name="cid3767" unicode="&#x54ed;" 
 />
    <glyph glyph-name="cid7953" unicode="&#x54ee;" 
 />
    <glyph glyph-name="cid7168" unicode="&#x54f2;" 
 />
    <glyph glyph-name="cid7549" unicode="&#x54fa;" 
 />
    <glyph glyph-name="cid7503" unicode="&#x5504;" 
 />
    <glyph glyph-name="cid5252" unicode="&#x5506;" 
 />
    <glyph glyph-name="cid6980" unicode="&#x5507;" 
 />
    <glyph glyph-name="cid4617" unicode="&#x550e;" 
 />
    <glyph glyph-name="cid4239" unicode="&#x5510;" 
 />
    <glyph glyph-name="cid4689" unicode="&#x551c;" 
 />
    <glyph glyph-name="cid6313" unicode="&#x552f;" 
 />
    <glyph glyph-name="cid7095" unicode="&#x5531;" 
 />
    <glyph glyph-name="cid5821" unicode="&#x5535;" 
 />
    <glyph glyph-name="cid7382" unicode="&#x553e;" 
 />
    <glyph glyph-name="cid7396" unicode="&#x5544;" 
 />
    <glyph glyph-name="cid5335" unicode="&#x5546;" 
 />
    <glyph glyph-name="cid4839" unicode="&#x554f;" 
 />
    <glyph glyph-name="cid3706" unicode="&#x5553;" 
 />
    <glyph glyph-name="cid4217" unicode="&#x5556;" 
 />
    <glyph glyph-name="cid5778" unicode="&#x555e;" 
 />
    <glyph glyph-name="cid7654" unicode="&#x5563;" 
 />
    <glyph glyph-name="cid6761" unicode="&#x557c;" 
 />
    <glyph glyph-name="cid3579" unicode="&#x5580;" 
 />
    <glyph glyph-name="cid5421" unicode="&#x5584;" 
 />
    <glyph glyph-name="cid7169" unicode="&#x5586;" 
 />
    <glyph glyph-name="cid4374" unicode="&#x5587;" 
 />
    <glyph glyph-name="cid4374" unicode="&#xf90b;" 
 />
    <glyph glyph-name="cid7971" unicode="&#x5589;" 
 />
    <glyph glyph-name="cid7655" unicode="&#x558a;" 
 />
    <glyph glyph-name="cid7150" unicode="&#x5598;" 
 />
    <glyph glyph-name="cid7995" unicode="&#x5599;" 
 />
    <glyph glyph-name="cid7883" unicode="&#x559a;" 
 />
    <glyph glyph-name="cid8037" unicode="&#x559c;" 
 />
    <glyph glyph-name="cid3501" unicode="&#x559d;" 
 />
    <glyph glyph-name="cid7990" unicode="&#x55a7;" 
 />
    <glyph glyph-name="cid6314" unicode="&#x55a9;" 
 />
    <glyph glyph-name="cid5336" unicode="&#x55aa;" 
 />
    <glyph glyph-name="cid4132" unicode="&#x55ab;" 
 />
    <glyph glyph-name="cid3871" unicode="&#x55ac;" 
 />
    <glyph glyph-name="cid4195" unicode="&#x55ae;" 
 />
    <glyph glyph-name="cid7972" unicode="&#x55c5;" 
 />
    <glyph glyph-name="cid5365" unicode="&#x55c7;" 
 />
    <glyph glyph-name="cid6981" unicode="&#x55d4;" 
 />
    <glyph glyph-name="cid6056" unicode="&#x55da;" 
 />
    <glyph glyph-name="cid4066" unicode="&#x55dc;" 
 />
    <glyph glyph-name="cid7045" unicode="&#x55df;" 
 />
    <glyph glyph-name="cid5253" unicode="&#x55e3;" 
 />
    <glyph glyph-name="cid7338" unicode="&#x55e4;" 
 />
    <glyph glyph-name="cid5569" unicode="&#x55fd;" 
 />
    <glyph glyph-name="cid6868" unicode="&#x55fe;" 
 />
    <glyph glyph-name="cid7409" unicode="&#x5606;" 
 />
    <glyph glyph-name="cid3444" unicode="&#x5609;" 
 />
    <glyph glyph-name="cid3904" unicode="&#x5614;" 
 />
    <glyph glyph-name="cid5337" unicode="&#x5617;" 
 />
    <glyph glyph-name="cid5501" unicode="&#x562f;" 
 />
    <glyph glyph-name="cid6786" unicode="&#x5632;" 
 />
    <glyph glyph-name="cid7318" unicode="&#x5634;" 
 />
    <glyph glyph-name="cid5694" unicode="&#x5636;" 
 />
    <glyph glyph-name="cid7719" unicode="&#x5653;" 
 />
    <glyph glyph-name="cid4067" unicode="&#x5668;" 
 />
    <glyph glyph-name="cid8038" unicode="&#x566b;" 
 />
    <glyph glyph-name="cid5154" unicode="&#x5674;" 
 />
    <glyph glyph-name="cid7954" unicode="&#x5686;" 
 />
    <glyph glyph-name="cid5956" unicode="&#x56a5;" 
 />
    <glyph glyph-name="cid5223" unicode="&#x56ac;" 
 />
    <glyph glyph-name="cid7712" unicode="&#x56ae;" 
 />
    <glyph glyph-name="cid5927" unicode="&#x56b4;" 
 />
    <glyph glyph-name="cid6511" unicode="&#x56bc;" 
 />
    <glyph glyph-name="cid4152" unicode="&#x56ca;" 
 />
    <glyph glyph-name="cid8039" unicode="&#x56cd;" 
 />
    <glyph glyph-name="cid7242" unicode="&#x56d1;" 
 />
    <glyph glyph-name="cid5570" unicode="&#x56da;" 
 />
    <glyph glyph-name="cid5254" unicode="&#x56db;" 
 />
    <glyph glyph-name="cid7929" unicode="&#x56de;" 
 />
    <glyph glyph-name="cid6448" unicode="&#x56e0;" 
 />
    <glyph glyph-name="cid3774" unicode="&#x56f0;" 
 />
    <glyph glyph-name="cid4491" unicode="&#x56f9;" 
 />
    <glyph glyph-name="cid4491" unicode="&#xf9a9;" 
 />
    <glyph glyph-name="cid3733" unicode="&#x56fa;" 
 />
    <glyph glyph-name="cid7550" unicode="&#x5703;" 
 />
    <glyph glyph-name="cid5902" unicode="&#x5704;" 
 />
    <glyph glyph-name="cid3973" unicode="&#x5708;" 
 />
    <glyph glyph-name="cid3947" unicode="&#x570b;" 
 />
    <glyph glyph-name="cid6288" unicode="&#x570d;" 
 />
    <glyph glyph-name="cid6259" unicode="&#x5712;" 
 />
    <glyph glyph-name="cid6258" unicode="&#x5713;" 
 />
    <glyph glyph-name="cid4272" unicode="&#x5716;" 
 />
    <glyph glyph-name="cid4196" unicode="&#x5718;" 
 />
    <glyph glyph-name="cid6572" unicode="&#x5728;" 
 />
    <glyph glyph-name="cid3995" unicode="&#x572d;" 
 />
    <glyph glyph-name="cid6945" unicode="&#x5730;" 
 />
    <glyph glyph-name="cid4068" unicode="&#x573b;" 
 />
    <glyph glyph-name="cid6946" unicode="&#x5740;" 
 />
    <glyph glyph-name="cid7491" unicode="&#x5742;" 
 />
    <glyph glyph-name="cid4010" unicode="&#x5747;" 
 />
    <glyph glyph-name="cid4943" unicode="&#x574a;" 
 />
    <glyph glyph-name="cid4218" unicode="&#x574d;" 
 />
    <glyph glyph-name="cid3511" unicode="&#x574e;" 
 />
    <glyph glyph-name="cid6855" unicode="&#x5750;" 
 />
    <glyph glyph-name="cid3581" unicode="&#x5751;" 
 />
    <glyph glyph-name="cid7474" unicode="&#x5761;" 
 />
    <glyph glyph-name="cid3775" unicode="&#x5764;" 
 />
    <glyph glyph-name="cid7410" unicode="&#x5766;" 
 />
    <glyph glyph-name="cid7529" unicode="&#x576a;" 
 />
    <glyph glyph-name="cid4252" unicode="&#x576e;" 
 />
    <glyph glyph-name="cid3668" unicode="&#x5770;" 
 />
    <glyph glyph-name="cid3905" unicode="&#x5775;" 
 />
    <glyph glyph-name="cid7397" unicode="&#x577c;" 
 />
    <glyph glyph-name="cid5571" unicode="&#x5782;" 
 />
    <glyph glyph-name="cid4251" unicode="&#x5788;" 
 />
    <glyph glyph-name="cid7774" unicode="&#x578b;" 
 />
    <glyph glyph-name="cid7688" unicode="&#x5793;" 
 />
    <glyph glyph-name="cid6373" unicode="&#x57a0;" 
 />
    <glyph glyph-name="cid3906" unicode="&#x57a2;" 
 />
    <glyph glyph-name="cid6260" unicode="&#x57a3;" 
 />
    <glyph glyph-name="cid5842" unicode="&#x57c3;" 
 />
    <glyph glyph-name="cid6178" unicode="&#x57c7;" 
 />
    <glyph glyph-name="cid6905" unicode="&#x57c8;" 
 />
    <glyph glyph-name="cid4708" unicode="&#x57cb;" 
 />
    <glyph glyph-name="cid5474" unicode="&#x57ce;" 
 />
    <glyph glyph-name="cid5948" unicode="&#x57df;" 
 />
    <glyph glyph-name="cid5117" unicode="&#x57e0;" 
 />
    <glyph glyph-name="cid7115" unicode="&#x57f0;" 
 />
    <glyph glyph-name="cid5720" unicode="&#x57f4;" 
 />
    <glyph glyph-name="cid7032" unicode="&#x57f7;" 
 />
    <glyph glyph-name="cid4971" unicode="&#x57f9;" 
 />
    <glyph glyph-name="cid4069" unicode="&#x57fa;" 
 />
    <glyph glyph-name="cid4070" unicode="&#x57fc;" 
 />
    <glyph glyph-name="cid3959" unicode="&#x5800;" 
 />
    <glyph glyph-name="cid4240" unicode="&#x5802;" 
 />
    <glyph glyph-name="cid3637" unicode="&#x5805;" 
 />
    <glyph glyph-name="cid7459" unicode="&#x5806;" 
 />
    <glyph glyph-name="cid3537" unicode="&#x5808;" 
 />
    <glyph glyph-name="cid6355" unicode="&#x5809;" 
 />
    <glyph glyph-name="cid5793" unicode="&#x580a;" 
 />
    <glyph glyph-name="cid7187" unicode="&#x581e;" 
 />
    <glyph glyph-name="cid5059" unicode="&#x5821;" 
 />
    <glyph glyph-name="cid6762" unicode="&#x5824;" 
 />
    <glyph glyph-name="cid5957" unicode="&#x5827;" 
 />
    <glyph glyph-name="cid3512" unicode="&#x582a;" 
 />
    <glyph glyph-name="cid6142" unicode="&#x582f;" 
 />
    <glyph glyph-name="cid5918" unicode="&#x5830;" 
 />
    <glyph glyph-name="cid5060" unicode="&#x5831;" 
 />
    <glyph glyph-name="cid6537" unicode="&#x5834;" 
 />
    <glyph glyph-name="cid4273" unicode="&#x5835;" 
 />
    <glyph glyph-name="cid3707" unicode="&#x583a;" 
 />
    <glyph glyph-name="cid3857" unicode="&#x584a;" 
 />
    <glyph glyph-name="cid6002" unicode="&#x584b;" 
 />
    <glyph glyph-name="cid3564" unicode="&#x584f;" 
 />
    <glyph glyph-name="cid5502" unicode="&#x5851;" 
 />
    <glyph glyph-name="cid7424" unicode="&#x5854;" 
 />
    <glyph glyph-name="cid4274" unicode="&#x5857;" 
 />
    <glyph glyph-name="cid4241" unicode="&#x5858;" 
 />
    <glyph glyph-name="cid7252" unicode="&#x585a;" 
 />
    <glyph glyph-name="cid5362" unicode="&#x585e;" 
 />
    <glyph glyph-name="cid5362" unicode="&#xf96c;" 
 />
    <glyph glyph-name="cid6650" unicode="&#x5861;" 
 />
    <glyph glyph-name="cid6057" unicode="&#x5862;" 
 />
    <glyph glyph-name="cid7981" unicode="&#x5864;" 
 />
    <glyph glyph-name="cid6982" unicode="&#x5875;" 
 />
    <glyph glyph-name="cid7084" unicode="&#x5879;" 
 />
    <glyph glyph-name="cid6651" unicode="&#x587c;" 
 />
    <glyph glyph-name="cid5629" unicode="&#x587e;" 
 />
    <glyph glyph-name="cid3669" unicode="&#x5883;" 
 />
    <glyph glyph-name="cid5373" unicode="&#x5885;" 
 />
    <glyph glyph-name="cid6179" unicode="&#x5889;" 
 />
    <glyph glyph-name="cid4801" unicode="&#x5893;" 
 />
    <glyph glyph-name="cid7265" unicode="&#x589c;" 
 />
    <glyph glyph-name="cid6931" unicode="&#x589e;" 
 />
    <glyph glyph-name="cid7720" unicode="&#x589f;" 
 />
    <glyph glyph-name="cid4834" unicode="&#x58a8;" 
 />
    <glyph glyph-name="cid4319" unicode="&#x58a9;" 
 />
    <glyph glyph-name="cid7383" unicode="&#x58ae;" 
 />
    <glyph glyph-name="cid5155" unicode="&#x58b3;" 
 />
    <glyph glyph-name="cid6058" unicode="&#x58ba;" 
 />
    <glyph glyph-name="cid6538" unicode="&#x58bb;" 
 />
    <glyph glyph-name="cid3478" unicode="&#x58be;" 
 />
    <glyph glyph-name="cid5022" unicode="&#x58c1;" 
 />
    <glyph glyph-name="cid6090" unicode="&#x58c5;" 
 />
    <glyph glyph-name="cid4197" unicode="&#x58c7;" 
 />
    <glyph glyph-name="cid7982" unicode="&#x58ce;" 
 />
    <glyph glyph-name="cid7630" unicode="&#x58d1;" 
 />
    <glyph glyph-name="cid5829" unicode="&#x58d3;" 
 />
    <glyph glyph-name="cid7803" unicode="&#x58d5;" 
 />
    <glyph glyph-name="cid4564" unicode="&#x58d8;" 
 />
    <glyph glyph-name="cid4564" unicode="&#xf94a;" 
 />
    <glyph glyph-name="cid3842" unicode="&#x58d9;" 
 />
    <glyph glyph-name="cid3858" unicode="&#x58de;" 
 />
    <glyph glyph-name="cid4536" unicode="&#x58df;" 
 />
    <glyph glyph-name="cid4536" unicode="&#xf942;" 
 />
    <glyph glyph-name="cid5880" unicode="&#x58e4;" 
 />
    <glyph glyph-name="cid6470" unicode="&#x58ec;" 
 />
    <glyph glyph-name="cid6539" unicode="&#x58ef;" 
 />
    <glyph glyph-name="cid6463" unicode="&#x58f9;" 
 />
    <glyph glyph-name="cid7804" unicode="&#x58fa;" 
 />
    <glyph glyph-name="cid5374" unicode="&#x58fb;" 
 />
    <glyph glyph-name="cid5572" unicode="&#x58fd;" 
 />
    <glyph glyph-name="cid7619" unicode="&#x590f;" 
 />
    <glyph glyph-name="cid4071" unicode="&#x5914;" 
 />
    <glyph glyph-name="cid6135" unicode="&#x5916;" 
 />
    <glyph glyph-name="cid5630" unicode="&#x5919;" 
 />
    <glyph glyph-name="cid4190" unicode="&#x591a;" 
 />
    <glyph glyph-name="cid5865" unicode="&#x591c;" 
 />
    <glyph glyph-name="cid4797" unicode="&#x5922;" 
 />
    <glyph glyph-name="cid7151" unicode="&#x5929;" 
 />
    <glyph glyph-name="cid7433" unicode="&#x592a;" 
 />
    <glyph glyph-name="cid5118" unicode="&#x592b;" 
 />
    <glyph glyph-name="cid6143" unicode="&#x592d;" 
 />
    <glyph glyph-name="cid5834" unicode="&#x592e;" 
 />
    <glyph glyph-name="cid5758" unicode="&#x5931;" 
 />
    <glyph glyph-name="cid6416" unicode="&#x5937;" 
 />
    <glyph glyph-name="cid7761" unicode="&#x593e;" 
 />
    <glyph glyph-name="cid5928" unicode="&#x5944;" 
 />
    <glyph glyph-name="cid4072" unicode="&#x5947;" 
 />
    <glyph glyph-name="cid4156" unicode="&#x5948;" 
 />
    <glyph glyph-name="cid4156" unicode="&#xf90c;" 
 />
    <glyph glyph-name="cid5094" unicode="&#x5949;" 
 />
    <glyph glyph-name="cid3996" unicode="&#x594e;" 
 />
    <glyph glyph-name="cid6869" unicode="&#x594f;" 
 />
    <glyph glyph-name="cid7884" unicode="&#x5950;" 
 />
    <glyph glyph-name="cid3708" unicode="&#x5951;" 
 />
    <glyph glyph-name="cid3708" unicode="&#xf909;" 
 />
    <glyph glyph-name="cid5156" unicode="&#x5954;" 
 />
    <glyph glyph-name="cid7730" unicode="&#x5955;" 
 />
    <glyph glyph-name="cid7466" unicode="&#x5957;" 
 />
    <glyph glyph-name="cid7689" unicode="&#x595a;" 
 />
    <glyph glyph-name="cid6652" unicode="&#x5960;" 
 />
    <glyph glyph-name="cid5256" unicode="&#x5962;" 
 />
    <glyph glyph-name="cid6059" unicode="&#x5967;" 
 />
    <glyph glyph-name="cid7418" unicode="&#x596a;" 
 />
    <glyph glyph-name="cid6360" unicode="&#x596b;" 
 />
    <glyph glyph-name="cid6540" unicode="&#x596c;" 
 />
    <glyph glyph-name="cid5404" unicode="&#x596d;" 
 />
    <glyph glyph-name="cid5157" unicode="&#x596e;" 
 />
    <glyph glyph-name="cid4170" unicode="&#x5974;" 
 />
    <glyph glyph-name="cid3479" unicode="&#x5978;" 
 />
    <glyph glyph-name="cid7805" unicode="&#x597d;" 
 />
    <glyph glyph-name="cid5936" unicode="&#x5982;" 
 />
    <glyph glyph-name="cid5186" unicode="&#x5983;" 
 />
    <glyph glyph-name="cid4697" unicode="&#x5984;" 
 />
    <glyph glyph-name="cid6471" unicode="&#x598a;" 
 />
    <glyph glyph-name="cid4073" unicode="&#x5993;" 
 />
    <glyph glyph-name="cid6144" unicode="&#x5996;" 
 />
    <glyph glyph-name="cid4039" unicode="&#x5997;" 
 />
    <glyph glyph-name="cid4802" unicode="&#x5999;" 
 />
    <glyph glyph-name="cid7384" unicode="&#x59a5;" 
 />
    <glyph glyph-name="cid4944" unicode="&#x59a8;" 
 />
    <glyph glyph-name="cid7467" unicode="&#x59ac;" 
 />
    <glyph glyph-name="cid4709" unicode="&#x59b9;" 
 />
    <glyph glyph-name="cid7131" unicode="&#x59bb;" 
 />
    <glyph glyph-name="cid7188" unicode="&#x59be;" 
 />
    <glyph glyph-name="cid6710" unicode="&#x59c3;" 
 />
    <glyph glyph-name="cid4767" unicode="&#x59c6;" 
 />
    <glyph glyph-name="cid6486" unicode="&#x59c9;" 
 />
    <glyph glyph-name="cid5695" unicode="&#x59cb;" 
 />
    <glyph glyph-name="cid6595" unicode="&#x59d0;" 
 />
    <glyph glyph-name="cid3734" unicode="&#x59d1;" 
 />
    <glyph glyph-name="cid5475" unicode="&#x59d3;" 
 />
    <glyph glyph-name="cid6289" unicode="&#x59d4;" 
 />
    <glyph glyph-name="cid6472" unicode="&#x59d9;" 
 />
    <glyph glyph-name="cid6145" unicode="&#x59da;" 
 />
    <glyph glyph-name="cid3538" unicode="&#x59dc;" 
 />
    <glyph glyph-name="cid6864" unicode="&#x59dd;" 
 />
    <glyph glyph-name="cid3480" unicode="&#x59e6;" 
 />
    <glyph glyph-name="cid6417" unicode="&#x59e8;" 
 />
    <glyph glyph-name="cid7017" unicode="&#x59ea;" 
 />
    <glyph glyph-name="cid8040" unicode="&#x59ec;" 
 />
    <glyph glyph-name="cid7672" unicode="&#x59ee;" 
 />
    <glyph glyph-name="cid5958" unicode="&#x59f8;" 
 />
    <glyph glyph-name="cid6449" unicode="&#x59fb;" 
 />
    <glyph glyph-name="cid6487" unicode="&#x59ff;" 
 />
    <glyph glyph-name="cid6290" unicode="&#x5a01;" 
 />
    <glyph glyph-name="cid6132" unicode="&#x5a03;" 
 />
    <glyph glyph-name="cid5257" unicode="&#x5a11;" 
 />
    <glyph glyph-name="cid4153" unicode="&#x5a18;" 
 />
    <glyph glyph-name="cid6060" unicode="&#x5a1b;" 
 />
    <glyph glyph-name="cid4134" unicode="&#x5a1c;" 
 />
    <glyph glyph-name="cid5959" unicode="&#x5a1f;" 
 />
    <glyph glyph-name="cid5739" unicode="&#x5a20;" 
 />
    <glyph glyph-name="cid5779" unicode="&#x5a25;" 
 />
    <glyph glyph-name="cid4672" unicode="&#x5a29;" 
 />
    <glyph glyph-name="cid7319" unicode="&#x5a36;" 
 />
    </font>
</defs>
</svg>
